G04 #@! TF.GenerationSoftware,KiCad,Pcbnew,5.1.2-f72e74a~84~ubuntu18.04.1*
G04 #@! TF.CreationDate,2019-07-19T22:50:41+02:00*
G04 #@! TF.ProjectId,Axiface,41786966-6163-4652-9e6b-696361645f70,rev?*
G04 #@! TF.SameCoordinates,Original*
G04 #@! TF.FileFunction,Paste,Top*
G04 #@! TF.FilePolarity,Positive*
%FSLAX46Y46*%
G04 Gerber Fmt 4.6, Leading zero omitted, Abs format (unit mm)*
G04 Created by KiCad (PCBNEW 5.1.2-f72e74a~84~ubuntu18.04.1) date 2019-07-19 22:50:41*
%MOMM*%
%LPD*%
G04 APERTURE LIST*
%ADD10C,0.100000*%
%ADD11C,1.250000*%
G04 APERTURE END LIST*
D10*
G36*
X145879504Y-124468204D02*
G01*
X145903773Y-124471804D01*
X145927571Y-124477765D01*
X145950671Y-124486030D01*
X145972849Y-124496520D01*
X145993893Y-124509133D01*
X146013598Y-124523747D01*
X146031777Y-124540223D01*
X146048253Y-124558402D01*
X146062867Y-124578107D01*
X146075480Y-124599151D01*
X146085970Y-124621329D01*
X146094235Y-124644429D01*
X146100196Y-124668227D01*
X146103796Y-124692496D01*
X146105000Y-124717000D01*
X146105000Y-125467000D01*
X146103796Y-125491504D01*
X146100196Y-125515773D01*
X146094235Y-125539571D01*
X146085970Y-125562671D01*
X146075480Y-125584849D01*
X146062867Y-125605893D01*
X146048253Y-125625598D01*
X146031777Y-125643777D01*
X146013598Y-125660253D01*
X145993893Y-125674867D01*
X145972849Y-125687480D01*
X145950671Y-125697970D01*
X145927571Y-125706235D01*
X145903773Y-125712196D01*
X145879504Y-125715796D01*
X145855000Y-125717000D01*
X143705000Y-125717000D01*
X143680496Y-125715796D01*
X143656227Y-125712196D01*
X143632429Y-125706235D01*
X143609329Y-125697970D01*
X143587151Y-125687480D01*
X143566107Y-125674867D01*
X143546402Y-125660253D01*
X143528223Y-125643777D01*
X143511747Y-125625598D01*
X143497133Y-125605893D01*
X143484520Y-125584849D01*
X143474030Y-125562671D01*
X143465765Y-125539571D01*
X143459804Y-125515773D01*
X143456204Y-125491504D01*
X143455000Y-125467000D01*
X143455000Y-124717000D01*
X143456204Y-124692496D01*
X143459804Y-124668227D01*
X143465765Y-124644429D01*
X143474030Y-124621329D01*
X143484520Y-124599151D01*
X143497133Y-124578107D01*
X143511747Y-124558402D01*
X143528223Y-124540223D01*
X143546402Y-124523747D01*
X143566107Y-124509133D01*
X143587151Y-124496520D01*
X143609329Y-124486030D01*
X143632429Y-124477765D01*
X143656227Y-124471804D01*
X143680496Y-124468204D01*
X143705000Y-124467000D01*
X145855000Y-124467000D01*
X145879504Y-124468204D01*
X145879504Y-124468204D01*
G37*
D11*
X144780000Y-125092000D03*
D10*
G36*
X145879504Y-127268204D02*
G01*
X145903773Y-127271804D01*
X145927571Y-127277765D01*
X145950671Y-127286030D01*
X145972849Y-127296520D01*
X145993893Y-127309133D01*
X146013598Y-127323747D01*
X146031777Y-127340223D01*
X146048253Y-127358402D01*
X146062867Y-127378107D01*
X146075480Y-127399151D01*
X146085970Y-127421329D01*
X146094235Y-127444429D01*
X146100196Y-127468227D01*
X146103796Y-127492496D01*
X146105000Y-127517000D01*
X146105000Y-128267000D01*
X146103796Y-128291504D01*
X146100196Y-128315773D01*
X146094235Y-128339571D01*
X146085970Y-128362671D01*
X146075480Y-128384849D01*
X146062867Y-128405893D01*
X146048253Y-128425598D01*
X146031777Y-128443777D01*
X146013598Y-128460253D01*
X145993893Y-128474867D01*
X145972849Y-128487480D01*
X145950671Y-128497970D01*
X145927571Y-128506235D01*
X145903773Y-128512196D01*
X145879504Y-128515796D01*
X145855000Y-128517000D01*
X143705000Y-128517000D01*
X143680496Y-128515796D01*
X143656227Y-128512196D01*
X143632429Y-128506235D01*
X143609329Y-128497970D01*
X143587151Y-128487480D01*
X143566107Y-128474867D01*
X143546402Y-128460253D01*
X143528223Y-128443777D01*
X143511747Y-128425598D01*
X143497133Y-128405893D01*
X143484520Y-128384849D01*
X143474030Y-128362671D01*
X143465765Y-128339571D01*
X143459804Y-128315773D01*
X143456204Y-128291504D01*
X143455000Y-128267000D01*
X143455000Y-127517000D01*
X143456204Y-127492496D01*
X143459804Y-127468227D01*
X143465765Y-127444429D01*
X143474030Y-127421329D01*
X143484520Y-127399151D01*
X143497133Y-127378107D01*
X143511747Y-127358402D01*
X143528223Y-127340223D01*
X143546402Y-127323747D01*
X143566107Y-127309133D01*
X143587151Y-127296520D01*
X143609329Y-127286030D01*
X143632429Y-127277765D01*
X143656227Y-127271804D01*
X143680496Y-127268204D01*
X143705000Y-127267000D01*
X145855000Y-127267000D01*
X145879504Y-127268204D01*
X145879504Y-127268204D01*
G37*
D11*
X144780000Y-127892000D03*
D10*
G36*
X146133504Y-108472204D02*
G01*
X146157773Y-108475804D01*
X146181571Y-108481765D01*
X146204671Y-108490030D01*
X146226849Y-108500520D01*
X146247893Y-108513133D01*
X146267598Y-108527747D01*
X146285777Y-108544223D01*
X146302253Y-108562402D01*
X146316867Y-108582107D01*
X146329480Y-108603151D01*
X146339970Y-108625329D01*
X146348235Y-108648429D01*
X146354196Y-108672227D01*
X146357796Y-108696496D01*
X146359000Y-108721000D01*
X146359000Y-109471000D01*
X146357796Y-109495504D01*
X146354196Y-109519773D01*
X146348235Y-109543571D01*
X146339970Y-109566671D01*
X146329480Y-109588849D01*
X146316867Y-109609893D01*
X146302253Y-109629598D01*
X146285777Y-109647777D01*
X146267598Y-109664253D01*
X146247893Y-109678867D01*
X146226849Y-109691480D01*
X146204671Y-109701970D01*
X146181571Y-109710235D01*
X146157773Y-109716196D01*
X146133504Y-109719796D01*
X146109000Y-109721000D01*
X143959000Y-109721000D01*
X143934496Y-109719796D01*
X143910227Y-109716196D01*
X143886429Y-109710235D01*
X143863329Y-109701970D01*
X143841151Y-109691480D01*
X143820107Y-109678867D01*
X143800402Y-109664253D01*
X143782223Y-109647777D01*
X143765747Y-109629598D01*
X143751133Y-109609893D01*
X143738520Y-109588849D01*
X143728030Y-109566671D01*
X143719765Y-109543571D01*
X143713804Y-109519773D01*
X143710204Y-109495504D01*
X143709000Y-109471000D01*
X143709000Y-108721000D01*
X143710204Y-108696496D01*
X143713804Y-108672227D01*
X143719765Y-108648429D01*
X143728030Y-108625329D01*
X143738520Y-108603151D01*
X143751133Y-108582107D01*
X143765747Y-108562402D01*
X143782223Y-108544223D01*
X143800402Y-108527747D01*
X143820107Y-108513133D01*
X143841151Y-108500520D01*
X143863329Y-108490030D01*
X143886429Y-108481765D01*
X143910227Y-108475804D01*
X143934496Y-108472204D01*
X143959000Y-108471000D01*
X146109000Y-108471000D01*
X146133504Y-108472204D01*
X146133504Y-108472204D01*
G37*
D11*
X145034000Y-109096000D03*
D10*
G36*
X146133504Y-105672204D02*
G01*
X146157773Y-105675804D01*
X146181571Y-105681765D01*
X146204671Y-105690030D01*
X146226849Y-105700520D01*
X146247893Y-105713133D01*
X146267598Y-105727747D01*
X146285777Y-105744223D01*
X146302253Y-105762402D01*
X146316867Y-105782107D01*
X146329480Y-105803151D01*
X146339970Y-105825329D01*
X146348235Y-105848429D01*
X146354196Y-105872227D01*
X146357796Y-105896496D01*
X146359000Y-105921000D01*
X146359000Y-106671000D01*
X146357796Y-106695504D01*
X146354196Y-106719773D01*
X146348235Y-106743571D01*
X146339970Y-106766671D01*
X146329480Y-106788849D01*
X146316867Y-106809893D01*
X146302253Y-106829598D01*
X146285777Y-106847777D01*
X146267598Y-106864253D01*
X146247893Y-106878867D01*
X146226849Y-106891480D01*
X146204671Y-106901970D01*
X146181571Y-106910235D01*
X146157773Y-106916196D01*
X146133504Y-106919796D01*
X146109000Y-106921000D01*
X143959000Y-106921000D01*
X143934496Y-106919796D01*
X143910227Y-106916196D01*
X143886429Y-106910235D01*
X143863329Y-106901970D01*
X143841151Y-106891480D01*
X143820107Y-106878867D01*
X143800402Y-106864253D01*
X143782223Y-106847777D01*
X143765747Y-106829598D01*
X143751133Y-106809893D01*
X143738520Y-106788849D01*
X143728030Y-106766671D01*
X143719765Y-106743571D01*
X143713804Y-106719773D01*
X143710204Y-106695504D01*
X143709000Y-106671000D01*
X143709000Y-105921000D01*
X143710204Y-105896496D01*
X143713804Y-105872227D01*
X143719765Y-105848429D01*
X143728030Y-105825329D01*
X143738520Y-105803151D01*
X143751133Y-105782107D01*
X143765747Y-105762402D01*
X143782223Y-105744223D01*
X143800402Y-105727747D01*
X143820107Y-105713133D01*
X143841151Y-105700520D01*
X143863329Y-105690030D01*
X143886429Y-105681765D01*
X143910227Y-105675804D01*
X143934496Y-105672204D01*
X143959000Y-105671000D01*
X146109000Y-105671000D01*
X146133504Y-105672204D01*
X146133504Y-105672204D01*
G37*
D11*
X145034000Y-106296000D03*
D10*
G36*
X145879504Y-116216204D02*
G01*
X145903773Y-116219804D01*
X145927571Y-116225765D01*
X145950671Y-116234030D01*
X145972849Y-116244520D01*
X145993893Y-116257133D01*
X146013598Y-116271747D01*
X146031777Y-116288223D01*
X146048253Y-116306402D01*
X146062867Y-116326107D01*
X146075480Y-116347151D01*
X146085970Y-116369329D01*
X146094235Y-116392429D01*
X146100196Y-116416227D01*
X146103796Y-116440496D01*
X146105000Y-116465000D01*
X146105000Y-117215000D01*
X146103796Y-117239504D01*
X146100196Y-117263773D01*
X146094235Y-117287571D01*
X146085970Y-117310671D01*
X146075480Y-117332849D01*
X146062867Y-117353893D01*
X146048253Y-117373598D01*
X146031777Y-117391777D01*
X146013598Y-117408253D01*
X145993893Y-117422867D01*
X145972849Y-117435480D01*
X145950671Y-117445970D01*
X145927571Y-117454235D01*
X145903773Y-117460196D01*
X145879504Y-117463796D01*
X145855000Y-117465000D01*
X143705000Y-117465000D01*
X143680496Y-117463796D01*
X143656227Y-117460196D01*
X143632429Y-117454235D01*
X143609329Y-117445970D01*
X143587151Y-117435480D01*
X143566107Y-117422867D01*
X143546402Y-117408253D01*
X143528223Y-117391777D01*
X143511747Y-117373598D01*
X143497133Y-117353893D01*
X143484520Y-117332849D01*
X143474030Y-117310671D01*
X143465765Y-117287571D01*
X143459804Y-117263773D01*
X143456204Y-117239504D01*
X143455000Y-117215000D01*
X143455000Y-116465000D01*
X143456204Y-116440496D01*
X143459804Y-116416227D01*
X143465765Y-116392429D01*
X143474030Y-116369329D01*
X143484520Y-116347151D01*
X143497133Y-116326107D01*
X143511747Y-116306402D01*
X143528223Y-116288223D01*
X143546402Y-116271747D01*
X143566107Y-116257133D01*
X143587151Y-116244520D01*
X143609329Y-116234030D01*
X143632429Y-116225765D01*
X143656227Y-116219804D01*
X143680496Y-116216204D01*
X143705000Y-116215000D01*
X145855000Y-116215000D01*
X145879504Y-116216204D01*
X145879504Y-116216204D01*
G37*
D11*
X144780000Y-116840000D03*
D10*
G36*
X145879504Y-113416204D02*
G01*
X145903773Y-113419804D01*
X145927571Y-113425765D01*
X145950671Y-113434030D01*
X145972849Y-113444520D01*
X145993893Y-113457133D01*
X146013598Y-113471747D01*
X146031777Y-113488223D01*
X146048253Y-113506402D01*
X146062867Y-113526107D01*
X146075480Y-113547151D01*
X146085970Y-113569329D01*
X146094235Y-113592429D01*
X146100196Y-113616227D01*
X146103796Y-113640496D01*
X146105000Y-113665000D01*
X146105000Y-114415000D01*
X146103796Y-114439504D01*
X146100196Y-114463773D01*
X146094235Y-114487571D01*
X146085970Y-114510671D01*
X146075480Y-114532849D01*
X146062867Y-114553893D01*
X146048253Y-114573598D01*
X146031777Y-114591777D01*
X146013598Y-114608253D01*
X145993893Y-114622867D01*
X145972849Y-114635480D01*
X145950671Y-114645970D01*
X145927571Y-114654235D01*
X145903773Y-114660196D01*
X145879504Y-114663796D01*
X145855000Y-114665000D01*
X143705000Y-114665000D01*
X143680496Y-114663796D01*
X143656227Y-114660196D01*
X143632429Y-114654235D01*
X143609329Y-114645970D01*
X143587151Y-114635480D01*
X143566107Y-114622867D01*
X143546402Y-114608253D01*
X143528223Y-114591777D01*
X143511747Y-114573598D01*
X143497133Y-114553893D01*
X143484520Y-114532849D01*
X143474030Y-114510671D01*
X143465765Y-114487571D01*
X143459804Y-114463773D01*
X143456204Y-114439504D01*
X143455000Y-114415000D01*
X143455000Y-113665000D01*
X143456204Y-113640496D01*
X143459804Y-113616227D01*
X143465765Y-113592429D01*
X143474030Y-113569329D01*
X143484520Y-113547151D01*
X143497133Y-113526107D01*
X143511747Y-113506402D01*
X143528223Y-113488223D01*
X143546402Y-113471747D01*
X143566107Y-113457133D01*
X143587151Y-113444520D01*
X143609329Y-113434030D01*
X143632429Y-113425765D01*
X143656227Y-113419804D01*
X143680496Y-113416204D01*
X143705000Y-113415000D01*
X145855000Y-113415000D01*
X145879504Y-113416204D01*
X145879504Y-113416204D01*
G37*
D11*
X144780000Y-114040000D03*
D10*
G36*
X112159504Y-109674204D02*
G01*
X112183773Y-109677804D01*
X112207571Y-109683765D01*
X112230671Y-109692030D01*
X112252849Y-109702520D01*
X112273893Y-109715133D01*
X112293598Y-109729747D01*
X112311777Y-109746223D01*
X112328253Y-109764402D01*
X112342867Y-109784107D01*
X112355480Y-109805151D01*
X112365970Y-109827329D01*
X112374235Y-109850429D01*
X112380196Y-109874227D01*
X112383796Y-109898496D01*
X112385000Y-109923000D01*
X112385000Y-112073000D01*
X112383796Y-112097504D01*
X112380196Y-112121773D01*
X112374235Y-112145571D01*
X112365970Y-112168671D01*
X112355480Y-112190849D01*
X112342867Y-112211893D01*
X112328253Y-112231598D01*
X112311777Y-112249777D01*
X112293598Y-112266253D01*
X112273893Y-112280867D01*
X112252849Y-112293480D01*
X112230671Y-112303970D01*
X112207571Y-112312235D01*
X112183773Y-112318196D01*
X112159504Y-112321796D01*
X112135000Y-112323000D01*
X111385000Y-112323000D01*
X111360496Y-112321796D01*
X111336227Y-112318196D01*
X111312429Y-112312235D01*
X111289329Y-112303970D01*
X111267151Y-112293480D01*
X111246107Y-112280867D01*
X111226402Y-112266253D01*
X111208223Y-112249777D01*
X111191747Y-112231598D01*
X111177133Y-112211893D01*
X111164520Y-112190849D01*
X111154030Y-112168671D01*
X111145765Y-112145571D01*
X111139804Y-112121773D01*
X111136204Y-112097504D01*
X111135000Y-112073000D01*
X111135000Y-109923000D01*
X111136204Y-109898496D01*
X111139804Y-109874227D01*
X111145765Y-109850429D01*
X111154030Y-109827329D01*
X111164520Y-109805151D01*
X111177133Y-109784107D01*
X111191747Y-109764402D01*
X111208223Y-109746223D01*
X111226402Y-109729747D01*
X111246107Y-109715133D01*
X111267151Y-109702520D01*
X111289329Y-109692030D01*
X111312429Y-109683765D01*
X111336227Y-109677804D01*
X111360496Y-109674204D01*
X111385000Y-109673000D01*
X112135000Y-109673000D01*
X112159504Y-109674204D01*
X112159504Y-109674204D01*
G37*
D11*
X111760000Y-110998000D03*
D10*
G36*
X114959504Y-109674204D02*
G01*
X114983773Y-109677804D01*
X115007571Y-109683765D01*
X115030671Y-109692030D01*
X115052849Y-109702520D01*
X115073893Y-109715133D01*
X115093598Y-109729747D01*
X115111777Y-109746223D01*
X115128253Y-109764402D01*
X115142867Y-109784107D01*
X115155480Y-109805151D01*
X115165970Y-109827329D01*
X115174235Y-109850429D01*
X115180196Y-109874227D01*
X115183796Y-109898496D01*
X115185000Y-109923000D01*
X115185000Y-112073000D01*
X115183796Y-112097504D01*
X115180196Y-112121773D01*
X115174235Y-112145571D01*
X115165970Y-112168671D01*
X115155480Y-112190849D01*
X115142867Y-112211893D01*
X115128253Y-112231598D01*
X115111777Y-112249777D01*
X115093598Y-112266253D01*
X115073893Y-112280867D01*
X115052849Y-112293480D01*
X115030671Y-112303970D01*
X115007571Y-112312235D01*
X114983773Y-112318196D01*
X114959504Y-112321796D01*
X114935000Y-112323000D01*
X114185000Y-112323000D01*
X114160496Y-112321796D01*
X114136227Y-112318196D01*
X114112429Y-112312235D01*
X114089329Y-112303970D01*
X114067151Y-112293480D01*
X114046107Y-112280867D01*
X114026402Y-112266253D01*
X114008223Y-112249777D01*
X113991747Y-112231598D01*
X113977133Y-112211893D01*
X113964520Y-112190849D01*
X113954030Y-112168671D01*
X113945765Y-112145571D01*
X113939804Y-112121773D01*
X113936204Y-112097504D01*
X113935000Y-112073000D01*
X113935000Y-109923000D01*
X113936204Y-109898496D01*
X113939804Y-109874227D01*
X113945765Y-109850429D01*
X113954030Y-109827329D01*
X113964520Y-109805151D01*
X113977133Y-109784107D01*
X113991747Y-109764402D01*
X114008223Y-109746223D01*
X114026402Y-109729747D01*
X114046107Y-109715133D01*
X114067151Y-109702520D01*
X114089329Y-109692030D01*
X114112429Y-109683765D01*
X114136227Y-109677804D01*
X114160496Y-109674204D01*
X114185000Y-109673000D01*
X114935000Y-109673000D01*
X114959504Y-109674204D01*
X114959504Y-109674204D01*
G37*
D11*
X114560000Y-110998000D03*
D10*
G36*
X112159504Y-121866204D02*
G01*
X112183773Y-121869804D01*
X112207571Y-121875765D01*
X112230671Y-121884030D01*
X112252849Y-121894520D01*
X112273893Y-121907133D01*
X112293598Y-121921747D01*
X112311777Y-121938223D01*
X112328253Y-121956402D01*
X112342867Y-121976107D01*
X112355480Y-121997151D01*
X112365970Y-122019329D01*
X112374235Y-122042429D01*
X112380196Y-122066227D01*
X112383796Y-122090496D01*
X112385000Y-122115000D01*
X112385000Y-124265000D01*
X112383796Y-124289504D01*
X112380196Y-124313773D01*
X112374235Y-124337571D01*
X112365970Y-124360671D01*
X112355480Y-124382849D01*
X112342867Y-124403893D01*
X112328253Y-124423598D01*
X112311777Y-124441777D01*
X112293598Y-124458253D01*
X112273893Y-124472867D01*
X112252849Y-124485480D01*
X112230671Y-124495970D01*
X112207571Y-124504235D01*
X112183773Y-124510196D01*
X112159504Y-124513796D01*
X112135000Y-124515000D01*
X111385000Y-124515000D01*
X111360496Y-124513796D01*
X111336227Y-124510196D01*
X111312429Y-124504235D01*
X111289329Y-124495970D01*
X111267151Y-124485480D01*
X111246107Y-124472867D01*
X111226402Y-124458253D01*
X111208223Y-124441777D01*
X111191747Y-124423598D01*
X111177133Y-124403893D01*
X111164520Y-124382849D01*
X111154030Y-124360671D01*
X111145765Y-124337571D01*
X111139804Y-124313773D01*
X111136204Y-124289504D01*
X111135000Y-124265000D01*
X111135000Y-122115000D01*
X111136204Y-122090496D01*
X111139804Y-122066227D01*
X111145765Y-122042429D01*
X111154030Y-122019329D01*
X111164520Y-121997151D01*
X111177133Y-121976107D01*
X111191747Y-121956402D01*
X111208223Y-121938223D01*
X111226402Y-121921747D01*
X111246107Y-121907133D01*
X111267151Y-121894520D01*
X111289329Y-121884030D01*
X111312429Y-121875765D01*
X111336227Y-121869804D01*
X111360496Y-121866204D01*
X111385000Y-121865000D01*
X112135000Y-121865000D01*
X112159504Y-121866204D01*
X112159504Y-121866204D01*
G37*
D11*
X111760000Y-123190000D03*
D10*
G36*
X114959504Y-121866204D02*
G01*
X114983773Y-121869804D01*
X115007571Y-121875765D01*
X115030671Y-121884030D01*
X115052849Y-121894520D01*
X115073893Y-121907133D01*
X115093598Y-121921747D01*
X115111777Y-121938223D01*
X115128253Y-121956402D01*
X115142867Y-121976107D01*
X115155480Y-121997151D01*
X115165970Y-122019329D01*
X115174235Y-122042429D01*
X115180196Y-122066227D01*
X115183796Y-122090496D01*
X115185000Y-122115000D01*
X115185000Y-124265000D01*
X115183796Y-124289504D01*
X115180196Y-124313773D01*
X115174235Y-124337571D01*
X115165970Y-124360671D01*
X115155480Y-124382849D01*
X115142867Y-124403893D01*
X115128253Y-124423598D01*
X115111777Y-124441777D01*
X115093598Y-124458253D01*
X115073893Y-124472867D01*
X115052849Y-124485480D01*
X115030671Y-124495970D01*
X115007571Y-124504235D01*
X114983773Y-124510196D01*
X114959504Y-124513796D01*
X114935000Y-124515000D01*
X114185000Y-124515000D01*
X114160496Y-124513796D01*
X114136227Y-124510196D01*
X114112429Y-124504235D01*
X114089329Y-124495970D01*
X114067151Y-124485480D01*
X114046107Y-124472867D01*
X114026402Y-124458253D01*
X114008223Y-124441777D01*
X113991747Y-124423598D01*
X113977133Y-124403893D01*
X113964520Y-124382849D01*
X113954030Y-124360671D01*
X113945765Y-124337571D01*
X113939804Y-124313773D01*
X113936204Y-124289504D01*
X113935000Y-124265000D01*
X113935000Y-122115000D01*
X113936204Y-122090496D01*
X113939804Y-122066227D01*
X113945765Y-122042429D01*
X113954030Y-122019329D01*
X113964520Y-121997151D01*
X113977133Y-121976107D01*
X113991747Y-121956402D01*
X114008223Y-121938223D01*
X114026402Y-121921747D01*
X114046107Y-121907133D01*
X114067151Y-121894520D01*
X114089329Y-121884030D01*
X114112429Y-121875765D01*
X114136227Y-121869804D01*
X114160496Y-121866204D01*
X114185000Y-121865000D01*
X114935000Y-121865000D01*
X114959504Y-121866204D01*
X114959504Y-121866204D01*
G37*
D11*
X114560000Y-123190000D03*
D10*
G36*
X97427504Y-102504204D02*
G01*
X97451773Y-102507804D01*
X97475571Y-102513765D01*
X97498671Y-102522030D01*
X97520849Y-102532520D01*
X97541893Y-102545133D01*
X97561598Y-102559747D01*
X97579777Y-102576223D01*
X97596253Y-102594402D01*
X97610867Y-102614107D01*
X97623480Y-102635151D01*
X97633970Y-102657329D01*
X97642235Y-102680429D01*
X97648196Y-102704227D01*
X97651796Y-102728496D01*
X97653000Y-102753000D01*
X97653000Y-104003000D01*
X97651796Y-104027504D01*
X97648196Y-104051773D01*
X97642235Y-104075571D01*
X97633970Y-104098671D01*
X97623480Y-104120849D01*
X97610867Y-104141893D01*
X97596253Y-104161598D01*
X97579777Y-104179777D01*
X97561598Y-104196253D01*
X97541893Y-104210867D01*
X97520849Y-104223480D01*
X97498671Y-104233970D01*
X97475571Y-104242235D01*
X97451773Y-104248196D01*
X97427504Y-104251796D01*
X97403000Y-104253000D01*
X96653000Y-104253000D01*
X96628496Y-104251796D01*
X96604227Y-104248196D01*
X96580429Y-104242235D01*
X96557329Y-104233970D01*
X96535151Y-104223480D01*
X96514107Y-104210867D01*
X96494402Y-104196253D01*
X96476223Y-104179777D01*
X96459747Y-104161598D01*
X96445133Y-104141893D01*
X96432520Y-104120849D01*
X96422030Y-104098671D01*
X96413765Y-104075571D01*
X96407804Y-104051773D01*
X96404204Y-104027504D01*
X96403000Y-104003000D01*
X96403000Y-102753000D01*
X96404204Y-102728496D01*
X96407804Y-102704227D01*
X96413765Y-102680429D01*
X96422030Y-102657329D01*
X96432520Y-102635151D01*
X96445133Y-102614107D01*
X96459747Y-102594402D01*
X96476223Y-102576223D01*
X96494402Y-102559747D01*
X96514107Y-102545133D01*
X96535151Y-102532520D01*
X96557329Y-102522030D01*
X96580429Y-102513765D01*
X96604227Y-102507804D01*
X96628496Y-102504204D01*
X96653000Y-102503000D01*
X97403000Y-102503000D01*
X97427504Y-102504204D01*
X97427504Y-102504204D01*
G37*
D11*
X97028000Y-103378000D03*
D10*
G36*
X100227504Y-102504204D02*
G01*
X100251773Y-102507804D01*
X100275571Y-102513765D01*
X100298671Y-102522030D01*
X100320849Y-102532520D01*
X100341893Y-102545133D01*
X100361598Y-102559747D01*
X100379777Y-102576223D01*
X100396253Y-102594402D01*
X100410867Y-102614107D01*
X100423480Y-102635151D01*
X100433970Y-102657329D01*
X100442235Y-102680429D01*
X100448196Y-102704227D01*
X100451796Y-102728496D01*
X100453000Y-102753000D01*
X100453000Y-104003000D01*
X100451796Y-104027504D01*
X100448196Y-104051773D01*
X100442235Y-104075571D01*
X100433970Y-104098671D01*
X100423480Y-104120849D01*
X100410867Y-104141893D01*
X100396253Y-104161598D01*
X100379777Y-104179777D01*
X100361598Y-104196253D01*
X100341893Y-104210867D01*
X100320849Y-104223480D01*
X100298671Y-104233970D01*
X100275571Y-104242235D01*
X100251773Y-104248196D01*
X100227504Y-104251796D01*
X100203000Y-104253000D01*
X99453000Y-104253000D01*
X99428496Y-104251796D01*
X99404227Y-104248196D01*
X99380429Y-104242235D01*
X99357329Y-104233970D01*
X99335151Y-104223480D01*
X99314107Y-104210867D01*
X99294402Y-104196253D01*
X99276223Y-104179777D01*
X99259747Y-104161598D01*
X99245133Y-104141893D01*
X99232520Y-104120849D01*
X99222030Y-104098671D01*
X99213765Y-104075571D01*
X99207804Y-104051773D01*
X99204204Y-104027504D01*
X99203000Y-104003000D01*
X99203000Y-102753000D01*
X99204204Y-102728496D01*
X99207804Y-102704227D01*
X99213765Y-102680429D01*
X99222030Y-102657329D01*
X99232520Y-102635151D01*
X99245133Y-102614107D01*
X99259747Y-102594402D01*
X99276223Y-102576223D01*
X99294402Y-102559747D01*
X99314107Y-102545133D01*
X99335151Y-102532520D01*
X99357329Y-102522030D01*
X99380429Y-102513765D01*
X99404227Y-102507804D01*
X99428496Y-102504204D01*
X99453000Y-102503000D01*
X100203000Y-102503000D01*
X100227504Y-102504204D01*
X100227504Y-102504204D01*
G37*
D11*
X99828000Y-103378000D03*
D10*
G36*
X100735504Y-115204204D02*
G01*
X100759773Y-115207804D01*
X100783571Y-115213765D01*
X100806671Y-115222030D01*
X100828849Y-115232520D01*
X100849893Y-115245133D01*
X100869598Y-115259747D01*
X100887777Y-115276223D01*
X100904253Y-115294402D01*
X100918867Y-115314107D01*
X100931480Y-115335151D01*
X100941970Y-115357329D01*
X100950235Y-115380429D01*
X100956196Y-115404227D01*
X100959796Y-115428496D01*
X100961000Y-115453000D01*
X100961000Y-116703000D01*
X100959796Y-116727504D01*
X100956196Y-116751773D01*
X100950235Y-116775571D01*
X100941970Y-116798671D01*
X100931480Y-116820849D01*
X100918867Y-116841893D01*
X100904253Y-116861598D01*
X100887777Y-116879777D01*
X100869598Y-116896253D01*
X100849893Y-116910867D01*
X100828849Y-116923480D01*
X100806671Y-116933970D01*
X100783571Y-116942235D01*
X100759773Y-116948196D01*
X100735504Y-116951796D01*
X100711000Y-116953000D01*
X99961000Y-116953000D01*
X99936496Y-116951796D01*
X99912227Y-116948196D01*
X99888429Y-116942235D01*
X99865329Y-116933970D01*
X99843151Y-116923480D01*
X99822107Y-116910867D01*
X99802402Y-116896253D01*
X99784223Y-116879777D01*
X99767747Y-116861598D01*
X99753133Y-116841893D01*
X99740520Y-116820849D01*
X99730030Y-116798671D01*
X99721765Y-116775571D01*
X99715804Y-116751773D01*
X99712204Y-116727504D01*
X99711000Y-116703000D01*
X99711000Y-115453000D01*
X99712204Y-115428496D01*
X99715804Y-115404227D01*
X99721765Y-115380429D01*
X99730030Y-115357329D01*
X99740520Y-115335151D01*
X99753133Y-115314107D01*
X99767747Y-115294402D01*
X99784223Y-115276223D01*
X99802402Y-115259747D01*
X99822107Y-115245133D01*
X99843151Y-115232520D01*
X99865329Y-115222030D01*
X99888429Y-115213765D01*
X99912227Y-115207804D01*
X99936496Y-115204204D01*
X99961000Y-115203000D01*
X100711000Y-115203000D01*
X100735504Y-115204204D01*
X100735504Y-115204204D01*
G37*
D11*
X100336000Y-116078000D03*
D10*
G36*
X97935504Y-115204204D02*
G01*
X97959773Y-115207804D01*
X97983571Y-115213765D01*
X98006671Y-115222030D01*
X98028849Y-115232520D01*
X98049893Y-115245133D01*
X98069598Y-115259747D01*
X98087777Y-115276223D01*
X98104253Y-115294402D01*
X98118867Y-115314107D01*
X98131480Y-115335151D01*
X98141970Y-115357329D01*
X98150235Y-115380429D01*
X98156196Y-115404227D01*
X98159796Y-115428496D01*
X98161000Y-115453000D01*
X98161000Y-116703000D01*
X98159796Y-116727504D01*
X98156196Y-116751773D01*
X98150235Y-116775571D01*
X98141970Y-116798671D01*
X98131480Y-116820849D01*
X98118867Y-116841893D01*
X98104253Y-116861598D01*
X98087777Y-116879777D01*
X98069598Y-116896253D01*
X98049893Y-116910867D01*
X98028849Y-116923480D01*
X98006671Y-116933970D01*
X97983571Y-116942235D01*
X97959773Y-116948196D01*
X97935504Y-116951796D01*
X97911000Y-116953000D01*
X97161000Y-116953000D01*
X97136496Y-116951796D01*
X97112227Y-116948196D01*
X97088429Y-116942235D01*
X97065329Y-116933970D01*
X97043151Y-116923480D01*
X97022107Y-116910867D01*
X97002402Y-116896253D01*
X96984223Y-116879777D01*
X96967747Y-116861598D01*
X96953133Y-116841893D01*
X96940520Y-116820849D01*
X96930030Y-116798671D01*
X96921765Y-116775571D01*
X96915804Y-116751773D01*
X96912204Y-116727504D01*
X96911000Y-116703000D01*
X96911000Y-115453000D01*
X96912204Y-115428496D01*
X96915804Y-115404227D01*
X96921765Y-115380429D01*
X96930030Y-115357329D01*
X96940520Y-115335151D01*
X96953133Y-115314107D01*
X96967747Y-115294402D01*
X96984223Y-115276223D01*
X97002402Y-115259747D01*
X97022107Y-115245133D01*
X97043151Y-115232520D01*
X97065329Y-115222030D01*
X97088429Y-115213765D01*
X97112227Y-115207804D01*
X97136496Y-115204204D01*
X97161000Y-115203000D01*
X97911000Y-115203000D01*
X97935504Y-115204204D01*
X97935504Y-115204204D01*
G37*
D11*
X97536000Y-116078000D03*
D10*
G36*
X97935504Y-129986204D02*
G01*
X97959773Y-129989804D01*
X97983571Y-129995765D01*
X98006671Y-130004030D01*
X98028849Y-130014520D01*
X98049893Y-130027133D01*
X98069598Y-130041747D01*
X98087777Y-130058223D01*
X98104253Y-130076402D01*
X98118867Y-130096107D01*
X98131480Y-130117151D01*
X98141970Y-130139329D01*
X98150235Y-130162429D01*
X98156196Y-130186227D01*
X98159796Y-130210496D01*
X98161000Y-130235000D01*
X98161000Y-131485000D01*
X98159796Y-131509504D01*
X98156196Y-131533773D01*
X98150235Y-131557571D01*
X98141970Y-131580671D01*
X98131480Y-131602849D01*
X98118867Y-131623893D01*
X98104253Y-131643598D01*
X98087777Y-131661777D01*
X98069598Y-131678253D01*
X98049893Y-131692867D01*
X98028849Y-131705480D01*
X98006671Y-131715970D01*
X97983571Y-131724235D01*
X97959773Y-131730196D01*
X97935504Y-131733796D01*
X97911000Y-131735000D01*
X97161000Y-131735000D01*
X97136496Y-131733796D01*
X97112227Y-131730196D01*
X97088429Y-131724235D01*
X97065329Y-131715970D01*
X97043151Y-131705480D01*
X97022107Y-131692867D01*
X97002402Y-131678253D01*
X96984223Y-131661777D01*
X96967747Y-131643598D01*
X96953133Y-131623893D01*
X96940520Y-131602849D01*
X96930030Y-131580671D01*
X96921765Y-131557571D01*
X96915804Y-131533773D01*
X96912204Y-131509504D01*
X96911000Y-131485000D01*
X96911000Y-130235000D01*
X96912204Y-130210496D01*
X96915804Y-130186227D01*
X96921765Y-130162429D01*
X96930030Y-130139329D01*
X96940520Y-130117151D01*
X96953133Y-130096107D01*
X96967747Y-130076402D01*
X96984223Y-130058223D01*
X97002402Y-130041747D01*
X97022107Y-130027133D01*
X97043151Y-130014520D01*
X97065329Y-130004030D01*
X97088429Y-129995765D01*
X97112227Y-129989804D01*
X97136496Y-129986204D01*
X97161000Y-129985000D01*
X97911000Y-129985000D01*
X97935504Y-129986204D01*
X97935504Y-129986204D01*
G37*
D11*
X97536000Y-130860000D03*
D10*
G36*
X100735504Y-129986204D02*
G01*
X100759773Y-129989804D01*
X100783571Y-129995765D01*
X100806671Y-130004030D01*
X100828849Y-130014520D01*
X100849893Y-130027133D01*
X100869598Y-130041747D01*
X100887777Y-130058223D01*
X100904253Y-130076402D01*
X100918867Y-130096107D01*
X100931480Y-130117151D01*
X100941970Y-130139329D01*
X100950235Y-130162429D01*
X100956196Y-130186227D01*
X100959796Y-130210496D01*
X100961000Y-130235000D01*
X100961000Y-131485000D01*
X100959796Y-131509504D01*
X100956196Y-131533773D01*
X100950235Y-131557571D01*
X100941970Y-131580671D01*
X100931480Y-131602849D01*
X100918867Y-131623893D01*
X100904253Y-131643598D01*
X100887777Y-131661777D01*
X100869598Y-131678253D01*
X100849893Y-131692867D01*
X100828849Y-131705480D01*
X100806671Y-131715970D01*
X100783571Y-131724235D01*
X100759773Y-131730196D01*
X100735504Y-131733796D01*
X100711000Y-131735000D01*
X99961000Y-131735000D01*
X99936496Y-131733796D01*
X99912227Y-131730196D01*
X99888429Y-131724235D01*
X99865329Y-131715970D01*
X99843151Y-131705480D01*
X99822107Y-131692867D01*
X99802402Y-131678253D01*
X99784223Y-131661777D01*
X99767747Y-131643598D01*
X99753133Y-131623893D01*
X99740520Y-131602849D01*
X99730030Y-131580671D01*
X99721765Y-131557571D01*
X99715804Y-131533773D01*
X99712204Y-131509504D01*
X99711000Y-131485000D01*
X99711000Y-130235000D01*
X99712204Y-130210496D01*
X99715804Y-130186227D01*
X99721765Y-130162429D01*
X99730030Y-130139329D01*
X99740520Y-130117151D01*
X99753133Y-130096107D01*
X99767747Y-130076402D01*
X99784223Y-130058223D01*
X99802402Y-130041747D01*
X99822107Y-130027133D01*
X99843151Y-130014520D01*
X99865329Y-130004030D01*
X99888429Y-129995765D01*
X99912227Y-129989804D01*
X99936496Y-129986204D01*
X99961000Y-129985000D01*
X100711000Y-129985000D01*
X100735504Y-129986204D01*
X100735504Y-129986204D01*
G37*
D11*
X100336000Y-130860000D03*
D10*
G36*
X103269504Y-102504204D02*
G01*
X103293773Y-102507804D01*
X103317571Y-102513765D01*
X103340671Y-102522030D01*
X103362849Y-102532520D01*
X103383893Y-102545133D01*
X103403598Y-102559747D01*
X103421777Y-102576223D01*
X103438253Y-102594402D01*
X103452867Y-102614107D01*
X103465480Y-102635151D01*
X103475970Y-102657329D01*
X103484235Y-102680429D01*
X103490196Y-102704227D01*
X103493796Y-102728496D01*
X103495000Y-102753000D01*
X103495000Y-104003000D01*
X103493796Y-104027504D01*
X103490196Y-104051773D01*
X103484235Y-104075571D01*
X103475970Y-104098671D01*
X103465480Y-104120849D01*
X103452867Y-104141893D01*
X103438253Y-104161598D01*
X103421777Y-104179777D01*
X103403598Y-104196253D01*
X103383893Y-104210867D01*
X103362849Y-104223480D01*
X103340671Y-104233970D01*
X103317571Y-104242235D01*
X103293773Y-104248196D01*
X103269504Y-104251796D01*
X103245000Y-104253000D01*
X102495000Y-104253000D01*
X102470496Y-104251796D01*
X102446227Y-104248196D01*
X102422429Y-104242235D01*
X102399329Y-104233970D01*
X102377151Y-104223480D01*
X102356107Y-104210867D01*
X102336402Y-104196253D01*
X102318223Y-104179777D01*
X102301747Y-104161598D01*
X102287133Y-104141893D01*
X102274520Y-104120849D01*
X102264030Y-104098671D01*
X102255765Y-104075571D01*
X102249804Y-104051773D01*
X102246204Y-104027504D01*
X102245000Y-104003000D01*
X102245000Y-102753000D01*
X102246204Y-102728496D01*
X102249804Y-102704227D01*
X102255765Y-102680429D01*
X102264030Y-102657329D01*
X102274520Y-102635151D01*
X102287133Y-102614107D01*
X102301747Y-102594402D01*
X102318223Y-102576223D01*
X102336402Y-102559747D01*
X102356107Y-102545133D01*
X102377151Y-102532520D01*
X102399329Y-102522030D01*
X102422429Y-102513765D01*
X102446227Y-102507804D01*
X102470496Y-102504204D01*
X102495000Y-102503000D01*
X103245000Y-102503000D01*
X103269504Y-102504204D01*
X103269504Y-102504204D01*
G37*
D11*
X102870000Y-103378000D03*
D10*
G36*
X106069504Y-102504204D02*
G01*
X106093773Y-102507804D01*
X106117571Y-102513765D01*
X106140671Y-102522030D01*
X106162849Y-102532520D01*
X106183893Y-102545133D01*
X106203598Y-102559747D01*
X106221777Y-102576223D01*
X106238253Y-102594402D01*
X106252867Y-102614107D01*
X106265480Y-102635151D01*
X106275970Y-102657329D01*
X106284235Y-102680429D01*
X106290196Y-102704227D01*
X106293796Y-102728496D01*
X106295000Y-102753000D01*
X106295000Y-104003000D01*
X106293796Y-104027504D01*
X106290196Y-104051773D01*
X106284235Y-104075571D01*
X106275970Y-104098671D01*
X106265480Y-104120849D01*
X106252867Y-104141893D01*
X106238253Y-104161598D01*
X106221777Y-104179777D01*
X106203598Y-104196253D01*
X106183893Y-104210867D01*
X106162849Y-104223480D01*
X106140671Y-104233970D01*
X106117571Y-104242235D01*
X106093773Y-104248196D01*
X106069504Y-104251796D01*
X106045000Y-104253000D01*
X105295000Y-104253000D01*
X105270496Y-104251796D01*
X105246227Y-104248196D01*
X105222429Y-104242235D01*
X105199329Y-104233970D01*
X105177151Y-104223480D01*
X105156107Y-104210867D01*
X105136402Y-104196253D01*
X105118223Y-104179777D01*
X105101747Y-104161598D01*
X105087133Y-104141893D01*
X105074520Y-104120849D01*
X105064030Y-104098671D01*
X105055765Y-104075571D01*
X105049804Y-104051773D01*
X105046204Y-104027504D01*
X105045000Y-104003000D01*
X105045000Y-102753000D01*
X105046204Y-102728496D01*
X105049804Y-102704227D01*
X105055765Y-102680429D01*
X105064030Y-102657329D01*
X105074520Y-102635151D01*
X105087133Y-102614107D01*
X105101747Y-102594402D01*
X105118223Y-102576223D01*
X105136402Y-102559747D01*
X105156107Y-102545133D01*
X105177151Y-102532520D01*
X105199329Y-102522030D01*
X105222429Y-102513765D01*
X105246227Y-102507804D01*
X105270496Y-102504204D01*
X105295000Y-102503000D01*
X106045000Y-102503000D01*
X106069504Y-102504204D01*
X106069504Y-102504204D01*
G37*
D11*
X105670000Y-103378000D03*
D10*
G36*
X106069504Y-115204204D02*
G01*
X106093773Y-115207804D01*
X106117571Y-115213765D01*
X106140671Y-115222030D01*
X106162849Y-115232520D01*
X106183893Y-115245133D01*
X106203598Y-115259747D01*
X106221777Y-115276223D01*
X106238253Y-115294402D01*
X106252867Y-115314107D01*
X106265480Y-115335151D01*
X106275970Y-115357329D01*
X106284235Y-115380429D01*
X106290196Y-115404227D01*
X106293796Y-115428496D01*
X106295000Y-115453000D01*
X106295000Y-116703000D01*
X106293796Y-116727504D01*
X106290196Y-116751773D01*
X106284235Y-116775571D01*
X106275970Y-116798671D01*
X106265480Y-116820849D01*
X106252867Y-116841893D01*
X106238253Y-116861598D01*
X106221777Y-116879777D01*
X106203598Y-116896253D01*
X106183893Y-116910867D01*
X106162849Y-116923480D01*
X106140671Y-116933970D01*
X106117571Y-116942235D01*
X106093773Y-116948196D01*
X106069504Y-116951796D01*
X106045000Y-116953000D01*
X105295000Y-116953000D01*
X105270496Y-116951796D01*
X105246227Y-116948196D01*
X105222429Y-116942235D01*
X105199329Y-116933970D01*
X105177151Y-116923480D01*
X105156107Y-116910867D01*
X105136402Y-116896253D01*
X105118223Y-116879777D01*
X105101747Y-116861598D01*
X105087133Y-116841893D01*
X105074520Y-116820849D01*
X105064030Y-116798671D01*
X105055765Y-116775571D01*
X105049804Y-116751773D01*
X105046204Y-116727504D01*
X105045000Y-116703000D01*
X105045000Y-115453000D01*
X105046204Y-115428496D01*
X105049804Y-115404227D01*
X105055765Y-115380429D01*
X105064030Y-115357329D01*
X105074520Y-115335151D01*
X105087133Y-115314107D01*
X105101747Y-115294402D01*
X105118223Y-115276223D01*
X105136402Y-115259747D01*
X105156107Y-115245133D01*
X105177151Y-115232520D01*
X105199329Y-115222030D01*
X105222429Y-115213765D01*
X105246227Y-115207804D01*
X105270496Y-115204204D01*
X105295000Y-115203000D01*
X106045000Y-115203000D01*
X106069504Y-115204204D01*
X106069504Y-115204204D01*
G37*
D11*
X105670000Y-116078000D03*
D10*
G36*
X103269504Y-115204204D02*
G01*
X103293773Y-115207804D01*
X103317571Y-115213765D01*
X103340671Y-115222030D01*
X103362849Y-115232520D01*
X103383893Y-115245133D01*
X103403598Y-115259747D01*
X103421777Y-115276223D01*
X103438253Y-115294402D01*
X103452867Y-115314107D01*
X103465480Y-115335151D01*
X103475970Y-115357329D01*
X103484235Y-115380429D01*
X103490196Y-115404227D01*
X103493796Y-115428496D01*
X103495000Y-115453000D01*
X103495000Y-116703000D01*
X103493796Y-116727504D01*
X103490196Y-116751773D01*
X103484235Y-116775571D01*
X103475970Y-116798671D01*
X103465480Y-116820849D01*
X103452867Y-116841893D01*
X103438253Y-116861598D01*
X103421777Y-116879777D01*
X103403598Y-116896253D01*
X103383893Y-116910867D01*
X103362849Y-116923480D01*
X103340671Y-116933970D01*
X103317571Y-116942235D01*
X103293773Y-116948196D01*
X103269504Y-116951796D01*
X103245000Y-116953000D01*
X102495000Y-116953000D01*
X102470496Y-116951796D01*
X102446227Y-116948196D01*
X102422429Y-116942235D01*
X102399329Y-116933970D01*
X102377151Y-116923480D01*
X102356107Y-116910867D01*
X102336402Y-116896253D01*
X102318223Y-116879777D01*
X102301747Y-116861598D01*
X102287133Y-116841893D01*
X102274520Y-116820849D01*
X102264030Y-116798671D01*
X102255765Y-116775571D01*
X102249804Y-116751773D01*
X102246204Y-116727504D01*
X102245000Y-116703000D01*
X102245000Y-115453000D01*
X102246204Y-115428496D01*
X102249804Y-115404227D01*
X102255765Y-115380429D01*
X102264030Y-115357329D01*
X102274520Y-115335151D01*
X102287133Y-115314107D01*
X102301747Y-115294402D01*
X102318223Y-115276223D01*
X102336402Y-115259747D01*
X102356107Y-115245133D01*
X102377151Y-115232520D01*
X102399329Y-115222030D01*
X102422429Y-115213765D01*
X102446227Y-115207804D01*
X102470496Y-115204204D01*
X102495000Y-115203000D01*
X103245000Y-115203000D01*
X103269504Y-115204204D01*
X103269504Y-115204204D01*
G37*
D11*
X102870000Y-116078000D03*
D10*
G36*
X103269504Y-129936204D02*
G01*
X103293773Y-129939804D01*
X103317571Y-129945765D01*
X103340671Y-129954030D01*
X103362849Y-129964520D01*
X103383893Y-129977133D01*
X103403598Y-129991747D01*
X103421777Y-130008223D01*
X103438253Y-130026402D01*
X103452867Y-130046107D01*
X103465480Y-130067151D01*
X103475970Y-130089329D01*
X103484235Y-130112429D01*
X103490196Y-130136227D01*
X103493796Y-130160496D01*
X103495000Y-130185000D01*
X103495000Y-131435000D01*
X103493796Y-131459504D01*
X103490196Y-131483773D01*
X103484235Y-131507571D01*
X103475970Y-131530671D01*
X103465480Y-131552849D01*
X103452867Y-131573893D01*
X103438253Y-131593598D01*
X103421777Y-131611777D01*
X103403598Y-131628253D01*
X103383893Y-131642867D01*
X103362849Y-131655480D01*
X103340671Y-131665970D01*
X103317571Y-131674235D01*
X103293773Y-131680196D01*
X103269504Y-131683796D01*
X103245000Y-131685000D01*
X102495000Y-131685000D01*
X102470496Y-131683796D01*
X102446227Y-131680196D01*
X102422429Y-131674235D01*
X102399329Y-131665970D01*
X102377151Y-131655480D01*
X102356107Y-131642867D01*
X102336402Y-131628253D01*
X102318223Y-131611777D01*
X102301747Y-131593598D01*
X102287133Y-131573893D01*
X102274520Y-131552849D01*
X102264030Y-131530671D01*
X102255765Y-131507571D01*
X102249804Y-131483773D01*
X102246204Y-131459504D01*
X102245000Y-131435000D01*
X102245000Y-130185000D01*
X102246204Y-130160496D01*
X102249804Y-130136227D01*
X102255765Y-130112429D01*
X102264030Y-130089329D01*
X102274520Y-130067151D01*
X102287133Y-130046107D01*
X102301747Y-130026402D01*
X102318223Y-130008223D01*
X102336402Y-129991747D01*
X102356107Y-129977133D01*
X102377151Y-129964520D01*
X102399329Y-129954030D01*
X102422429Y-129945765D01*
X102446227Y-129939804D01*
X102470496Y-129936204D01*
X102495000Y-129935000D01*
X103245000Y-129935000D01*
X103269504Y-129936204D01*
X103269504Y-129936204D01*
G37*
D11*
X102870000Y-130810000D03*
D10*
G36*
X106069504Y-129936204D02*
G01*
X106093773Y-129939804D01*
X106117571Y-129945765D01*
X106140671Y-129954030D01*
X106162849Y-129964520D01*
X106183893Y-129977133D01*
X106203598Y-129991747D01*
X106221777Y-130008223D01*
X106238253Y-130026402D01*
X106252867Y-130046107D01*
X106265480Y-130067151D01*
X106275970Y-130089329D01*
X106284235Y-130112429D01*
X106290196Y-130136227D01*
X106293796Y-130160496D01*
X106295000Y-130185000D01*
X106295000Y-131435000D01*
X106293796Y-131459504D01*
X106290196Y-131483773D01*
X106284235Y-131507571D01*
X106275970Y-131530671D01*
X106265480Y-131552849D01*
X106252867Y-131573893D01*
X106238253Y-131593598D01*
X106221777Y-131611777D01*
X106203598Y-131628253D01*
X106183893Y-131642867D01*
X106162849Y-131655480D01*
X106140671Y-131665970D01*
X106117571Y-131674235D01*
X106093773Y-131680196D01*
X106069504Y-131683796D01*
X106045000Y-131685000D01*
X105295000Y-131685000D01*
X105270496Y-131683796D01*
X105246227Y-131680196D01*
X105222429Y-131674235D01*
X105199329Y-131665970D01*
X105177151Y-131655480D01*
X105156107Y-131642867D01*
X105136402Y-131628253D01*
X105118223Y-131611777D01*
X105101747Y-131593598D01*
X105087133Y-131573893D01*
X105074520Y-131552849D01*
X105064030Y-131530671D01*
X105055765Y-131507571D01*
X105049804Y-131483773D01*
X105046204Y-131459504D01*
X105045000Y-131435000D01*
X105045000Y-130185000D01*
X105046204Y-130160496D01*
X105049804Y-130136227D01*
X105055765Y-130112429D01*
X105064030Y-130089329D01*
X105074520Y-130067151D01*
X105087133Y-130046107D01*
X105101747Y-130026402D01*
X105118223Y-130008223D01*
X105136402Y-129991747D01*
X105156107Y-129977133D01*
X105177151Y-129964520D01*
X105199329Y-129954030D01*
X105222429Y-129945765D01*
X105246227Y-129939804D01*
X105270496Y-129936204D01*
X105295000Y-129935000D01*
X106045000Y-129935000D01*
X106069504Y-129936204D01*
X106069504Y-129936204D01*
G37*
D11*
X105670000Y-130810000D03*
M02*
