G04 #@! TF.GenerationSoftware,KiCad,Pcbnew,5.1.2-f72e74a~84~ubuntu18.04.1*
G04 #@! TF.CreationDate,2019-08-10T11:06:46+02:00*
G04 #@! TF.ProjectId,Axiface,41786966-6163-4652-9e6b-696361645f70,rev?*
G04 #@! TF.SameCoordinates,Original*
G04 #@! TF.FileFunction,Legend,Bot*
G04 #@! TF.FilePolarity,Positive*
%FSLAX46Y46*%
G04 Gerber Fmt 4.6, Leading zero omitted, Abs format (unit mm)*
G04 Created by KiCad (PCBNEW 5.1.2-f72e74a~84~ubuntu18.04.1) date 2019-08-10 11:06:46*
%MOMM*%
%LPD*%
G04 APERTURE LIST*
%ADD10C,0.150000*%
%ADD11C,0.500000*%
%ADD12C,0.100000*%
%ADD13C,0.300000*%
%ADD14C,0.120000*%
G04 APERTURE END LIST*
D10*
X146387428Y-121634571D02*
X146316000Y-121706000D01*
X146244571Y-121848857D01*
X146244571Y-122206000D01*
X146316000Y-122348857D01*
X146387428Y-122420285D01*
X146530285Y-122491714D01*
X146673142Y-122491714D01*
X146887428Y-122420285D01*
X147744571Y-121563142D01*
X147744571Y-122491714D01*
X146244571Y-123420285D02*
X146244571Y-123563142D01*
X146316000Y-123706000D01*
X146387428Y-123777428D01*
X146530285Y-123848857D01*
X146816000Y-123920285D01*
X147173142Y-123920285D01*
X147458857Y-123848857D01*
X147601714Y-123777428D01*
X147673142Y-123706000D01*
X147744571Y-123563142D01*
X147744571Y-123420285D01*
X147673142Y-123277428D01*
X147601714Y-123206000D01*
X147458857Y-123134571D01*
X147173142Y-123063142D01*
X146816000Y-123063142D01*
X146530285Y-123134571D01*
X146387428Y-123206000D01*
X146316000Y-123277428D01*
X146244571Y-123420285D01*
X147744571Y-125348857D02*
X147744571Y-124491714D01*
X147744571Y-124920285D02*
X146244571Y-124920285D01*
X146458857Y-124777428D01*
X146601714Y-124634571D01*
X146673142Y-124491714D01*
X147744571Y-126063142D02*
X147744571Y-126348857D01*
X147673142Y-126491714D01*
X147601714Y-126563142D01*
X147387428Y-126706000D01*
X147101714Y-126777428D01*
X146530285Y-126777428D01*
X146387428Y-126706000D01*
X146316000Y-126634571D01*
X146244571Y-126491714D01*
X146244571Y-126206000D01*
X146316000Y-126063142D01*
X146387428Y-125991714D01*
X146530285Y-125920285D01*
X146887428Y-125920285D01*
X147030285Y-125991714D01*
X147101714Y-126063142D01*
X147173142Y-126206000D01*
X147173142Y-126491714D01*
X147101714Y-126634571D01*
X147030285Y-126706000D01*
X146887428Y-126777428D01*
D11*
X110490000Y-116641428D02*
X110632857Y-116784285D01*
X110490000Y-116927142D01*
X110347142Y-116784285D01*
X110490000Y-116641428D01*
X110490000Y-116927142D01*
D12*
X130992380Y-107386380D02*
X130992380Y-106386380D01*
X130754285Y-106386380D01*
X130611428Y-106434000D01*
X130516190Y-106529238D01*
X130468571Y-106624476D01*
X130420952Y-106814952D01*
X130420952Y-106957809D01*
X130468571Y-107148285D01*
X130516190Y-107243523D01*
X130611428Y-107338761D01*
X130754285Y-107386380D01*
X130992380Y-107386380D01*
X129563809Y-107386380D02*
X129563809Y-106862571D01*
X129611428Y-106767333D01*
X129706666Y-106719714D01*
X129897142Y-106719714D01*
X129992380Y-106767333D01*
X129563809Y-107338761D02*
X129659047Y-107386380D01*
X129897142Y-107386380D01*
X129992380Y-107338761D01*
X130040000Y-107243523D01*
X130040000Y-107148285D01*
X129992380Y-107053047D01*
X129897142Y-107005428D01*
X129659047Y-107005428D01*
X129563809Y-106957809D01*
X129230476Y-106719714D02*
X128849523Y-106719714D01*
X129087619Y-106386380D02*
X129087619Y-107243523D01*
X129040000Y-107338761D01*
X128944761Y-107386380D01*
X128849523Y-107386380D01*
X128087619Y-107386380D02*
X128087619Y-106862571D01*
X128135238Y-106767333D01*
X128230476Y-106719714D01*
X128420952Y-106719714D01*
X128516190Y-106767333D01*
X128087619Y-107338761D02*
X128182857Y-107386380D01*
X128420952Y-107386380D01*
X128516190Y-107338761D01*
X128563809Y-107243523D01*
X128563809Y-107148285D01*
X128516190Y-107053047D01*
X128420952Y-107005428D01*
X128182857Y-107005428D01*
X128087619Y-106957809D01*
D13*
X128924857Y-103568571D02*
X128924857Y-104711428D01*
X128353428Y-104140000D02*
X129496285Y-104140000D01*
X128924857Y-101028571D02*
X128924857Y-102171428D01*
D14*
X104937936Y-104288000D02*
X106142064Y-104288000D01*
X104937936Y-102468000D02*
X106142064Y-102468000D01*
X97430000Y-115475936D02*
X97430000Y-116680064D01*
X95610000Y-115475936D02*
X95610000Y-116680064D01*
X109757936Y-112882000D02*
X110962064Y-112882000D01*
X109757936Y-114702000D02*
X110962064Y-114702000D01*
X99030000Y-112224000D02*
X99030000Y-110964000D01*
X99030000Y-105404000D02*
X99030000Y-106664000D01*
X102790000Y-112224000D02*
X99030000Y-112224000D01*
X105040000Y-105404000D02*
X99030000Y-105404000D01*
X103964000Y-129827000D02*
X100104000Y-129827000D01*
X100104000Y-129827000D02*
X100104000Y-129592000D01*
X103964000Y-129827000D02*
X107824000Y-129827000D01*
X107824000Y-129827000D02*
X107824000Y-129592000D01*
X103964000Y-116807000D02*
X100104000Y-116807000D01*
X100104000Y-116807000D02*
X100104000Y-117042000D01*
X103964000Y-116807000D02*
X107824000Y-116807000D01*
X107824000Y-116807000D02*
X107824000Y-117042000D01*
X107824000Y-117042000D02*
X109639000Y-117042000D01*
D10*
X105576666Y-101703142D02*
X105624285Y-101750761D01*
X105767142Y-101798380D01*
X105862380Y-101798380D01*
X106005238Y-101750761D01*
X106100476Y-101655523D01*
X106148095Y-101560285D01*
X106195714Y-101369809D01*
X106195714Y-101226952D01*
X106148095Y-101036476D01*
X106100476Y-100941238D01*
X106005238Y-100846000D01*
X105862380Y-100798380D01*
X105767142Y-100798380D01*
X105624285Y-100846000D01*
X105576666Y-100893619D01*
X105195714Y-100893619D02*
X105148095Y-100846000D01*
X105052857Y-100798380D01*
X104814761Y-100798380D01*
X104719523Y-100846000D01*
X104671904Y-100893619D01*
X104624285Y-100988857D01*
X104624285Y-101084095D01*
X104671904Y-101226952D01*
X105243333Y-101798380D01*
X104624285Y-101798380D01*
X94400666Y-116181142D02*
X94448285Y-116228761D01*
X94591142Y-116276380D01*
X94686380Y-116276380D01*
X94829238Y-116228761D01*
X94924476Y-116133523D01*
X94972095Y-116038285D01*
X95019714Y-115847809D01*
X95019714Y-115704952D01*
X94972095Y-115514476D01*
X94924476Y-115419238D01*
X94829238Y-115324000D01*
X94686380Y-115276380D01*
X94591142Y-115276380D01*
X94448285Y-115324000D01*
X94400666Y-115371619D01*
X94067333Y-115276380D02*
X93448285Y-115276380D01*
X93781619Y-115657333D01*
X93638761Y-115657333D01*
X93543523Y-115704952D01*
X93495904Y-115752571D01*
X93448285Y-115847809D01*
X93448285Y-116085904D01*
X93495904Y-116181142D01*
X93543523Y-116228761D01*
X93638761Y-116276380D01*
X93924476Y-116276380D01*
X94019714Y-116228761D01*
X94067333Y-116181142D01*
X114212666Y-114244380D02*
X114546000Y-113768190D01*
X114784095Y-114244380D02*
X114784095Y-113244380D01*
X114403142Y-113244380D01*
X114307904Y-113292000D01*
X114260285Y-113339619D01*
X114212666Y-113434857D01*
X114212666Y-113577714D01*
X114260285Y-113672952D01*
X114307904Y-113720571D01*
X114403142Y-113768190D01*
X114784095Y-113768190D01*
X113260285Y-114244380D02*
X113831714Y-114244380D01*
X113546000Y-114244380D02*
X113546000Y-113244380D01*
X113641238Y-113387238D01*
X113736476Y-113482476D01*
X113831714Y-113530095D01*
X98297904Y-103592380D02*
X98297904Y-104401904D01*
X98250285Y-104497142D01*
X98202666Y-104544761D01*
X98107428Y-104592380D01*
X97916952Y-104592380D01*
X97821714Y-104544761D01*
X97774095Y-104497142D01*
X97726476Y-104401904D01*
X97726476Y-103592380D01*
X96726476Y-104592380D02*
X97297904Y-104592380D01*
X97012190Y-104592380D02*
X97012190Y-103592380D01*
X97107428Y-103735238D01*
X97202666Y-103830476D01*
X97297904Y-103878095D01*
X104549904Y-115530380D02*
X104549904Y-116339904D01*
X104502285Y-116435142D01*
X104454666Y-116482761D01*
X104359428Y-116530380D01*
X104168952Y-116530380D01*
X104073714Y-116482761D01*
X104026095Y-116435142D01*
X103978476Y-116339904D01*
X103978476Y-115530380D01*
X103549904Y-115625619D02*
X103502285Y-115578000D01*
X103407047Y-115530380D01*
X103168952Y-115530380D01*
X103073714Y-115578000D01*
X103026095Y-115625619D01*
X102978476Y-115720857D01*
X102978476Y-115816095D01*
X103026095Y-115958952D01*
X103597523Y-116530380D01*
X102978476Y-116530380D01*
M02*
