G04 #@! TF.GenerationSoftware,KiCad,Pcbnew,5.1.2-f72e74a~84~ubuntu18.04.1*
G04 #@! TF.CreationDate,2019-08-25T12:51:36+02:00*
G04 #@! TF.ProjectId,Axiface,41786966-6163-4652-9e6b-696361645f70,rev?*
G04 #@! TF.SameCoordinates,Original*
G04 #@! TF.FileFunction,Soldermask,Top*
G04 #@! TF.FilePolarity,Negative*
%FSLAX46Y46*%
G04 Gerber Fmt 4.6, Leading zero omitted, Abs format (unit mm)*
G04 Created by KiCad (PCBNEW 5.1.2-f72e74a~84~ubuntu18.04.1) date 2019-08-25 12:51:36*
%MOMM*%
%LPD*%
G04 APERTURE LIST*
%ADD10C,0.100000*%
G04 APERTURE END LIST*
D10*
G36*
X146545809Y-129589627D02*
G01*
X146852437Y-129650619D01*
X147353087Y-129857995D01*
X147489932Y-129949432D01*
X147803660Y-130159058D01*
X148186842Y-130542240D01*
X148367316Y-130812339D01*
X148487905Y-130992813D01*
X148695281Y-131493463D01*
X148727771Y-131656802D01*
X148752437Y-131780804D01*
X148801000Y-132024950D01*
X148801000Y-132566850D01*
X148695281Y-133098337D01*
X148487905Y-133598987D01*
X148367316Y-133779461D01*
X148186842Y-134049560D01*
X147803660Y-134432742D01*
X147533561Y-134613216D01*
X147353087Y-134733805D01*
X146852437Y-134941181D01*
X146586694Y-134994040D01*
X146320951Y-135046900D01*
X145779049Y-135046900D01*
X145513306Y-134994040D01*
X145247563Y-134941181D01*
X144746913Y-134733805D01*
X144566439Y-134613216D01*
X144296340Y-134432742D01*
X143913158Y-134049560D01*
X143732684Y-133779461D01*
X143612095Y-133598987D01*
X143404719Y-133098337D01*
X143299000Y-132566850D01*
X143299000Y-132024950D01*
X143347564Y-131780804D01*
X143372229Y-131656802D01*
X143404719Y-131493463D01*
X143612095Y-130992813D01*
X143732684Y-130812339D01*
X143913158Y-130542240D01*
X144296340Y-130159058D01*
X144610068Y-129949432D01*
X144746913Y-129857995D01*
X145247563Y-129650619D01*
X145554191Y-129589627D01*
X145779049Y-129544900D01*
X146320951Y-129544900D01*
X146545809Y-129589627D01*
X146545809Y-129589627D01*
G37*
G36*
X92189809Y-129589627D02*
G01*
X92496437Y-129650619D01*
X92997087Y-129857995D01*
X93133932Y-129949432D01*
X93447660Y-130159058D01*
X93830842Y-130542240D01*
X94011316Y-130812339D01*
X94131905Y-130992813D01*
X94339281Y-131493463D01*
X94371771Y-131656802D01*
X94396437Y-131780804D01*
X94445000Y-132024950D01*
X94445000Y-132566850D01*
X94339281Y-133098337D01*
X94131905Y-133598987D01*
X94011316Y-133779461D01*
X93830842Y-134049560D01*
X93447660Y-134432742D01*
X93177561Y-134613216D01*
X92997087Y-134733805D01*
X92496437Y-134941181D01*
X92230694Y-134994040D01*
X91964951Y-135046900D01*
X91423049Y-135046900D01*
X91157306Y-134994040D01*
X90891563Y-134941181D01*
X90390913Y-134733805D01*
X90210439Y-134613216D01*
X89940340Y-134432742D01*
X89557158Y-134049560D01*
X89376684Y-133779461D01*
X89256095Y-133598987D01*
X89048719Y-133098337D01*
X88943000Y-132566850D01*
X88943000Y-132024950D01*
X88991564Y-131780804D01*
X89016229Y-131656802D01*
X89048719Y-131493463D01*
X89256095Y-130992813D01*
X89376684Y-130812339D01*
X89557158Y-130542240D01*
X89940340Y-130159058D01*
X90254068Y-129949432D01*
X90390913Y-129857995D01*
X90891563Y-129650619D01*
X91198191Y-129589627D01*
X91423049Y-129544900D01*
X91964951Y-129544900D01*
X92189809Y-129589627D01*
X92189809Y-129589627D01*
G37*
G36*
X141168600Y-131055989D02*
G01*
X141201652Y-131066015D01*
X141232103Y-131082292D01*
X141258799Y-131104201D01*
X141280708Y-131130897D01*
X141296985Y-131161348D01*
X141307011Y-131194400D01*
X141311000Y-131234903D01*
X141311000Y-132671097D01*
X141307011Y-132711600D01*
X141296985Y-132744652D01*
X141280708Y-132775103D01*
X141258799Y-132801799D01*
X141232103Y-132823708D01*
X141201652Y-132839985D01*
X141168600Y-132850011D01*
X141128097Y-132854000D01*
X139541903Y-132854000D01*
X139501400Y-132850011D01*
X139468348Y-132839985D01*
X139437897Y-132823708D01*
X139411201Y-132801799D01*
X139389292Y-132775103D01*
X139373015Y-132744652D01*
X139362989Y-132711600D01*
X139359000Y-132671097D01*
X139359000Y-131234903D01*
X139362989Y-131194400D01*
X139373015Y-131161348D01*
X139389292Y-131130897D01*
X139411201Y-131104201D01*
X139437897Y-131082292D01*
X139468348Y-131066015D01*
X139501400Y-131055989D01*
X139541903Y-131052000D01*
X141128097Y-131052000D01*
X141168600Y-131055989D01*
X141168600Y-131055989D01*
G37*
G36*
X134056600Y-131055989D02*
G01*
X134089652Y-131066015D01*
X134120103Y-131082292D01*
X134146799Y-131104201D01*
X134168708Y-131130897D01*
X134184985Y-131161348D01*
X134195011Y-131194400D01*
X134199000Y-131234903D01*
X134199000Y-132671097D01*
X134195011Y-132711600D01*
X134184985Y-132744652D01*
X134168708Y-132775103D01*
X134146799Y-132801799D01*
X134120103Y-132823708D01*
X134089652Y-132839985D01*
X134056600Y-132850011D01*
X134016097Y-132854000D01*
X132429903Y-132854000D01*
X132389400Y-132850011D01*
X132356348Y-132839985D01*
X132325897Y-132823708D01*
X132299201Y-132801799D01*
X132277292Y-132775103D01*
X132261015Y-132744652D01*
X132250989Y-132711600D01*
X132247000Y-132671097D01*
X132247000Y-131234903D01*
X132250989Y-131194400D01*
X132261015Y-131161348D01*
X132277292Y-131130897D01*
X132299201Y-131104201D01*
X132325897Y-131082292D01*
X132356348Y-131066015D01*
X132389400Y-131055989D01*
X132429903Y-131052000D01*
X134016097Y-131052000D01*
X134056600Y-131055989D01*
X134056600Y-131055989D01*
G37*
G36*
X126944600Y-131015989D02*
G01*
X126977652Y-131026015D01*
X127008103Y-131042292D01*
X127034799Y-131064201D01*
X127056708Y-131090897D01*
X127072985Y-131121348D01*
X127083011Y-131154400D01*
X127087000Y-131194903D01*
X127087000Y-132631097D01*
X127083011Y-132671600D01*
X127072985Y-132704652D01*
X127056708Y-132735103D01*
X127034799Y-132761799D01*
X127008103Y-132783708D01*
X126977652Y-132799985D01*
X126944600Y-132810011D01*
X126904097Y-132814000D01*
X125317903Y-132814000D01*
X125277400Y-132810011D01*
X125244348Y-132799985D01*
X125213897Y-132783708D01*
X125187201Y-132761799D01*
X125165292Y-132735103D01*
X125149015Y-132704652D01*
X125138989Y-132671600D01*
X125135000Y-132631097D01*
X125135000Y-131194903D01*
X125138989Y-131154400D01*
X125149015Y-131121348D01*
X125165292Y-131090897D01*
X125187201Y-131064201D01*
X125213897Y-131042292D01*
X125244348Y-131026015D01*
X125277400Y-131015989D01*
X125317903Y-131012000D01*
X126904097Y-131012000D01*
X126944600Y-131015989D01*
X126944600Y-131015989D01*
G37*
G36*
X114507822Y-129469790D02*
G01*
X114608481Y-129500325D01*
X114658812Y-129515592D01*
X114797317Y-129589625D01*
X114797964Y-129589971D01*
X114919933Y-129690067D01*
X115009714Y-129799466D01*
X115020029Y-129812035D01*
X115094408Y-129951187D01*
X115095865Y-129955991D01*
X115140210Y-130102177D01*
X115151800Y-130219855D01*
X115151800Y-131298545D01*
X115140210Y-131416223D01*
X115116779Y-131493464D01*
X115094408Y-131567213D01*
X115020029Y-131706365D01*
X114919933Y-131828333D01*
X114797965Y-131928429D01*
X114658813Y-132002808D01*
X114608482Y-132018075D01*
X114507823Y-132048610D01*
X114350800Y-132064075D01*
X114193778Y-132048610D01*
X114093119Y-132018075D01*
X114042788Y-132002808D01*
X113903636Y-131928429D01*
X113781668Y-131828333D01*
X113681572Y-131706365D01*
X113607193Y-131567213D01*
X113584822Y-131493464D01*
X113561391Y-131416223D01*
X113549801Y-131298545D01*
X113549800Y-130219856D01*
X113551187Y-130205778D01*
X113556518Y-130151648D01*
X113561390Y-130102178D01*
X113607192Y-129951189D01*
X113607192Y-129951188D01*
X113681571Y-129812036D01*
X113724712Y-129759468D01*
X113781667Y-129690067D01*
X113903635Y-129589971D01*
X113904282Y-129589625D01*
X114042787Y-129515592D01*
X114093118Y-129500325D01*
X114193777Y-129469790D01*
X114350800Y-129454325D01*
X114507822Y-129469790D01*
X114507822Y-129469790D01*
G37*
G36*
X117047822Y-129469790D02*
G01*
X117148481Y-129500325D01*
X117198812Y-129515592D01*
X117337317Y-129589625D01*
X117337964Y-129589971D01*
X117459933Y-129690067D01*
X117549714Y-129799466D01*
X117560029Y-129812035D01*
X117634408Y-129951187D01*
X117635865Y-129955991D01*
X117680210Y-130102177D01*
X117691800Y-130219855D01*
X117691800Y-131298545D01*
X117680210Y-131416223D01*
X117656779Y-131493464D01*
X117634408Y-131567213D01*
X117560029Y-131706365D01*
X117459933Y-131828333D01*
X117337965Y-131928429D01*
X117198813Y-132002808D01*
X117148482Y-132018075D01*
X117047823Y-132048610D01*
X116890800Y-132064075D01*
X116733778Y-132048610D01*
X116633119Y-132018075D01*
X116582788Y-132002808D01*
X116443636Y-131928429D01*
X116321668Y-131828333D01*
X116221572Y-131706365D01*
X116147193Y-131567213D01*
X116124822Y-131493464D01*
X116101391Y-131416223D01*
X116089801Y-131298545D01*
X116089800Y-130219856D01*
X116091187Y-130205778D01*
X116096518Y-130151648D01*
X116101390Y-130102178D01*
X116147192Y-129951189D01*
X116147192Y-129951188D01*
X116221571Y-129812036D01*
X116264712Y-129759468D01*
X116321667Y-129690067D01*
X116443635Y-129589971D01*
X116444282Y-129589625D01*
X116582787Y-129515592D01*
X116633118Y-129500325D01*
X116733777Y-129469790D01*
X116890800Y-129454325D01*
X117047822Y-129469790D01*
X117047822Y-129469790D01*
G37*
G36*
X112611800Y-132060200D02*
G01*
X111009800Y-132060200D01*
X111009800Y-129458200D01*
X112611800Y-129458200D01*
X112611800Y-132060200D01*
X112611800Y-132060200D01*
G37*
G36*
X100854604Y-129938347D02*
G01*
X100891144Y-129949432D01*
X100924821Y-129967433D01*
X100954341Y-129991659D01*
X100978567Y-130021179D01*
X100996568Y-130054856D01*
X101007653Y-130091396D01*
X101012000Y-130135538D01*
X101012000Y-131584462D01*
X101007653Y-131628604D01*
X100996568Y-131665144D01*
X100978567Y-131698821D01*
X100954341Y-131728341D01*
X100924821Y-131752567D01*
X100891144Y-131770568D01*
X100854604Y-131781653D01*
X100810462Y-131786000D01*
X99861538Y-131786000D01*
X99817396Y-131781653D01*
X99780856Y-131770568D01*
X99747179Y-131752567D01*
X99717659Y-131728341D01*
X99693433Y-131698821D01*
X99675432Y-131665144D01*
X99664347Y-131628604D01*
X99660000Y-131584462D01*
X99660000Y-130135538D01*
X99664347Y-130091396D01*
X99675432Y-130054856D01*
X99693433Y-130021179D01*
X99717659Y-129991659D01*
X99747179Y-129967433D01*
X99780856Y-129949432D01*
X99817396Y-129938347D01*
X99861538Y-129934000D01*
X100810462Y-129934000D01*
X100854604Y-129938347D01*
X100854604Y-129938347D01*
G37*
G36*
X98054604Y-129938347D02*
G01*
X98091144Y-129949432D01*
X98124821Y-129967433D01*
X98154341Y-129991659D01*
X98178567Y-130021179D01*
X98196568Y-130054856D01*
X98207653Y-130091396D01*
X98212000Y-130135538D01*
X98212000Y-131584462D01*
X98207653Y-131628604D01*
X98196568Y-131665144D01*
X98178567Y-131698821D01*
X98154341Y-131728341D01*
X98124821Y-131752567D01*
X98091144Y-131770568D01*
X98054604Y-131781653D01*
X98010462Y-131786000D01*
X97061538Y-131786000D01*
X97017396Y-131781653D01*
X96980856Y-131770568D01*
X96947179Y-131752567D01*
X96917659Y-131728341D01*
X96893433Y-131698821D01*
X96875432Y-131665144D01*
X96864347Y-131628604D01*
X96860000Y-131584462D01*
X96860000Y-130135538D01*
X96864347Y-130091396D01*
X96875432Y-130054856D01*
X96893433Y-130021179D01*
X96917659Y-129991659D01*
X96947179Y-129967433D01*
X96980856Y-129949432D01*
X97017396Y-129938347D01*
X97061538Y-129934000D01*
X98010462Y-129934000D01*
X98054604Y-129938347D01*
X98054604Y-129938347D01*
G37*
G36*
X103388604Y-129888347D02*
G01*
X103425144Y-129899432D01*
X103458821Y-129917433D01*
X103488341Y-129941659D01*
X103512567Y-129971179D01*
X103530568Y-130004856D01*
X103541653Y-130041396D01*
X103546000Y-130085538D01*
X103546000Y-131534462D01*
X103541653Y-131578604D01*
X103530568Y-131615144D01*
X103512567Y-131648821D01*
X103488341Y-131678341D01*
X103458821Y-131702567D01*
X103425144Y-131720568D01*
X103388604Y-131731653D01*
X103344462Y-131736000D01*
X102395538Y-131736000D01*
X102351396Y-131731653D01*
X102314856Y-131720568D01*
X102281179Y-131702567D01*
X102251659Y-131678341D01*
X102227433Y-131648821D01*
X102209432Y-131615144D01*
X102198347Y-131578604D01*
X102194000Y-131534462D01*
X102194000Y-130085538D01*
X102198347Y-130041396D01*
X102209432Y-130004856D01*
X102227433Y-129971179D01*
X102251659Y-129941659D01*
X102281179Y-129917433D01*
X102314856Y-129899432D01*
X102351396Y-129888347D01*
X102395538Y-129884000D01*
X103344462Y-129884000D01*
X103388604Y-129888347D01*
X103388604Y-129888347D01*
G37*
G36*
X106188604Y-129888347D02*
G01*
X106225144Y-129899432D01*
X106258821Y-129917433D01*
X106288341Y-129941659D01*
X106312567Y-129971179D01*
X106330568Y-130004856D01*
X106341653Y-130041396D01*
X106346000Y-130085538D01*
X106346000Y-131534462D01*
X106341653Y-131578604D01*
X106330568Y-131615144D01*
X106312567Y-131648821D01*
X106288341Y-131678341D01*
X106258821Y-131702567D01*
X106225144Y-131720568D01*
X106188604Y-131731653D01*
X106144462Y-131736000D01*
X105195538Y-131736000D01*
X105151396Y-131731653D01*
X105114856Y-131720568D01*
X105081179Y-131702567D01*
X105051659Y-131678341D01*
X105027433Y-131648821D01*
X105009432Y-131615144D01*
X104998347Y-131578604D01*
X104994000Y-131534462D01*
X104994000Y-130085538D01*
X104998347Y-130041396D01*
X105009432Y-130004856D01*
X105027433Y-129971179D01*
X105051659Y-129941659D01*
X105081179Y-129917433D01*
X105114856Y-129899432D01*
X105151396Y-129888347D01*
X105195538Y-129884000D01*
X106144462Y-129884000D01*
X106188604Y-129888347D01*
X106188604Y-129888347D01*
G37*
G36*
X140520443Y-128558519D02*
G01*
X140586627Y-128565037D01*
X140756466Y-128616557D01*
X140912991Y-128700222D01*
X140948729Y-128729552D01*
X141050186Y-128812814D01*
X141129951Y-128910009D01*
X141162778Y-128950009D01*
X141246443Y-129106534D01*
X141297963Y-129276373D01*
X141315359Y-129453000D01*
X141297963Y-129629627D01*
X141246443Y-129799466D01*
X141162778Y-129955991D01*
X141150313Y-129971179D01*
X141050186Y-130093186D01*
X140969918Y-130159059D01*
X140912991Y-130205778D01*
X140756466Y-130289443D01*
X140586627Y-130340963D01*
X140520443Y-130347481D01*
X140454260Y-130354000D01*
X140215740Y-130354000D01*
X140149557Y-130347481D01*
X140083373Y-130340963D01*
X139913534Y-130289443D01*
X139757009Y-130205778D01*
X139700082Y-130159059D01*
X139619814Y-130093186D01*
X139519687Y-129971179D01*
X139507222Y-129955991D01*
X139423557Y-129799466D01*
X139372037Y-129629627D01*
X139354641Y-129453000D01*
X139372037Y-129276373D01*
X139423557Y-129106534D01*
X139507222Y-128950009D01*
X139540049Y-128910009D01*
X139619814Y-128812814D01*
X139721271Y-128729552D01*
X139757009Y-128700222D01*
X139913534Y-128616557D01*
X140083373Y-128565037D01*
X140149557Y-128558519D01*
X140215740Y-128552000D01*
X140454260Y-128552000D01*
X140520443Y-128558519D01*
X140520443Y-128558519D01*
G37*
G36*
X133408443Y-128558519D02*
G01*
X133474627Y-128565037D01*
X133644466Y-128616557D01*
X133800991Y-128700222D01*
X133836729Y-128729552D01*
X133938186Y-128812814D01*
X134017951Y-128910009D01*
X134050778Y-128950009D01*
X134134443Y-129106534D01*
X134185963Y-129276373D01*
X134203359Y-129453000D01*
X134185963Y-129629627D01*
X134134443Y-129799466D01*
X134050778Y-129955991D01*
X134038313Y-129971179D01*
X133938186Y-130093186D01*
X133857918Y-130159059D01*
X133800991Y-130205778D01*
X133644466Y-130289443D01*
X133474627Y-130340963D01*
X133408443Y-130347481D01*
X133342260Y-130354000D01*
X133103740Y-130354000D01*
X133037557Y-130347481D01*
X132971373Y-130340963D01*
X132801534Y-130289443D01*
X132645009Y-130205778D01*
X132588082Y-130159059D01*
X132507814Y-130093186D01*
X132407687Y-129971179D01*
X132395222Y-129955991D01*
X132311557Y-129799466D01*
X132260037Y-129629627D01*
X132242641Y-129453000D01*
X132260037Y-129276373D01*
X132311557Y-129106534D01*
X132395222Y-128950009D01*
X132428049Y-128910009D01*
X132507814Y-128812814D01*
X132609271Y-128729552D01*
X132645009Y-128700222D01*
X132801534Y-128616557D01*
X132971373Y-128565037D01*
X133037557Y-128558519D01*
X133103740Y-128552000D01*
X133342260Y-128552000D01*
X133408443Y-128558519D01*
X133408443Y-128558519D01*
G37*
G36*
X126296442Y-128518518D02*
G01*
X126362627Y-128525037D01*
X126532466Y-128576557D01*
X126688991Y-128660222D01*
X126724729Y-128689552D01*
X126826186Y-128772814D01*
X126909448Y-128874271D01*
X126938778Y-128910009D01*
X127022443Y-129066534D01*
X127073963Y-129236373D01*
X127091359Y-129413000D01*
X127073963Y-129589627D01*
X127022443Y-129759466D01*
X126938778Y-129915991D01*
X126911333Y-129949432D01*
X126826186Y-130053186D01*
X126725838Y-130135538D01*
X126688991Y-130165778D01*
X126532466Y-130249443D01*
X126362627Y-130300963D01*
X126296442Y-130307482D01*
X126230260Y-130314000D01*
X125991740Y-130314000D01*
X125925558Y-130307482D01*
X125859373Y-130300963D01*
X125689534Y-130249443D01*
X125533009Y-130165778D01*
X125496162Y-130135538D01*
X125395814Y-130053186D01*
X125310667Y-129949432D01*
X125283222Y-129915991D01*
X125199557Y-129759466D01*
X125148037Y-129589627D01*
X125130641Y-129413000D01*
X125148037Y-129236373D01*
X125199557Y-129066534D01*
X125283222Y-128910009D01*
X125312552Y-128874271D01*
X125395814Y-128772814D01*
X125497271Y-128689552D01*
X125533009Y-128660222D01*
X125689534Y-128576557D01*
X125859373Y-128525037D01*
X125925558Y-128518518D01*
X125991740Y-128512000D01*
X126230260Y-128512000D01*
X126296442Y-128518518D01*
X126296442Y-128518518D01*
G37*
G36*
X145998604Y-127220347D02*
G01*
X146035144Y-127231432D01*
X146068821Y-127249433D01*
X146098341Y-127273659D01*
X146122567Y-127303179D01*
X146140568Y-127336856D01*
X146151653Y-127373396D01*
X146156000Y-127417538D01*
X146156000Y-128366462D01*
X146151653Y-128410604D01*
X146140568Y-128447144D01*
X146122567Y-128480821D01*
X146098341Y-128510341D01*
X146068821Y-128534567D01*
X146035144Y-128552568D01*
X145998604Y-128563653D01*
X145954462Y-128568000D01*
X143605538Y-128568000D01*
X143561396Y-128563653D01*
X143524856Y-128552568D01*
X143491179Y-128534567D01*
X143461659Y-128510341D01*
X143437433Y-128480821D01*
X143419432Y-128447144D01*
X143408347Y-128410604D01*
X143404000Y-128366462D01*
X143404000Y-127417538D01*
X143408347Y-127373396D01*
X143419432Y-127336856D01*
X143437433Y-127303179D01*
X143461659Y-127273659D01*
X143491179Y-127249433D01*
X143524856Y-127231432D01*
X143561396Y-127220347D01*
X143605538Y-127216000D01*
X145954462Y-127216000D01*
X145998604Y-127220347D01*
X145998604Y-127220347D01*
G37*
G36*
X93973561Y-126336966D02*
G01*
X94006383Y-126346923D01*
X94036632Y-126363092D01*
X94063148Y-126384852D01*
X94084908Y-126411368D01*
X94101077Y-126441617D01*
X94111034Y-126474439D01*
X94115000Y-126514713D01*
X94115000Y-127993287D01*
X94111034Y-128033561D01*
X94101077Y-128066383D01*
X94084908Y-128096632D01*
X94063148Y-128123148D01*
X94036632Y-128144908D01*
X94006383Y-128161077D01*
X93973561Y-128171034D01*
X93933287Y-128175000D01*
X91994713Y-128175000D01*
X91954439Y-128171034D01*
X91921617Y-128161077D01*
X91891368Y-128144908D01*
X91864852Y-128123148D01*
X91843092Y-128096632D01*
X91826923Y-128066383D01*
X91816966Y-128033561D01*
X91813000Y-127993287D01*
X91813000Y-126514713D01*
X91816966Y-126474439D01*
X91826923Y-126441617D01*
X91843092Y-126411368D01*
X91864852Y-126384852D01*
X91891368Y-126363092D01*
X91921617Y-126346923D01*
X91954439Y-126336966D01*
X91994713Y-126333000D01*
X93933287Y-126333000D01*
X93973561Y-126336966D01*
X93973561Y-126336966D01*
G37*
G36*
X133408443Y-126058519D02*
G01*
X133474627Y-126065037D01*
X133644466Y-126116557D01*
X133800991Y-126200222D01*
X133836729Y-126229552D01*
X133938186Y-126312814D01*
X133979447Y-126363092D01*
X134050778Y-126450009D01*
X134134443Y-126606534D01*
X134185963Y-126776373D01*
X134203359Y-126953000D01*
X134185963Y-127129627D01*
X134134443Y-127299466D01*
X134134442Y-127299468D01*
X134094926Y-127373396D01*
X134050778Y-127455991D01*
X134025822Y-127486400D01*
X133938186Y-127593186D01*
X133849731Y-127665778D01*
X133800991Y-127705778D01*
X133644466Y-127789443D01*
X133474627Y-127840963D01*
X133408442Y-127847482D01*
X133342260Y-127854000D01*
X133103740Y-127854000D01*
X133037558Y-127847482D01*
X132971373Y-127840963D01*
X132801534Y-127789443D01*
X132645009Y-127705778D01*
X132596269Y-127665778D01*
X132507814Y-127593186D01*
X132420178Y-127486400D01*
X132395222Y-127455991D01*
X132351074Y-127373396D01*
X132311558Y-127299468D01*
X132311557Y-127299466D01*
X132260037Y-127129627D01*
X132242641Y-126953000D01*
X132260037Y-126776373D01*
X132311557Y-126606534D01*
X132395222Y-126450009D01*
X132466553Y-126363092D01*
X132507814Y-126312814D01*
X132609271Y-126229552D01*
X132645009Y-126200222D01*
X132801534Y-126116557D01*
X132971373Y-126065037D01*
X133037557Y-126058519D01*
X133103740Y-126052000D01*
X133342260Y-126052000D01*
X133408443Y-126058519D01*
X133408443Y-126058519D01*
G37*
G36*
X140520443Y-126058519D02*
G01*
X140586627Y-126065037D01*
X140756466Y-126116557D01*
X140912991Y-126200222D01*
X140948729Y-126229552D01*
X141050186Y-126312814D01*
X141091447Y-126363092D01*
X141162778Y-126450009D01*
X141246443Y-126606534D01*
X141297963Y-126776373D01*
X141315359Y-126953000D01*
X141297963Y-127129627D01*
X141246443Y-127299466D01*
X141246442Y-127299468D01*
X141206926Y-127373396D01*
X141162778Y-127455991D01*
X141137822Y-127486400D01*
X141050186Y-127593186D01*
X140961731Y-127665778D01*
X140912991Y-127705778D01*
X140756466Y-127789443D01*
X140586627Y-127840963D01*
X140520442Y-127847482D01*
X140454260Y-127854000D01*
X140215740Y-127854000D01*
X140149558Y-127847482D01*
X140083373Y-127840963D01*
X139913534Y-127789443D01*
X139757009Y-127705778D01*
X139708269Y-127665778D01*
X139619814Y-127593186D01*
X139532178Y-127486400D01*
X139507222Y-127455991D01*
X139463074Y-127373396D01*
X139423558Y-127299468D01*
X139423557Y-127299466D01*
X139372037Y-127129627D01*
X139354641Y-126953000D01*
X139372037Y-126776373D01*
X139423557Y-126606534D01*
X139507222Y-126450009D01*
X139578553Y-126363092D01*
X139619814Y-126312814D01*
X139721271Y-126229552D01*
X139757009Y-126200222D01*
X139913534Y-126116557D01*
X140083373Y-126065037D01*
X140149557Y-126058519D01*
X140215740Y-126052000D01*
X140454260Y-126052000D01*
X140520443Y-126058519D01*
X140520443Y-126058519D01*
G37*
G36*
X126296442Y-126018518D02*
G01*
X126362627Y-126025037D01*
X126532466Y-126076557D01*
X126688991Y-126160222D01*
X126724729Y-126189552D01*
X126826186Y-126272814D01*
X126900274Y-126363092D01*
X126938778Y-126410009D01*
X127022443Y-126566534D01*
X127073963Y-126736373D01*
X127091359Y-126913000D01*
X127073963Y-127089627D01*
X127022443Y-127259466D01*
X126938778Y-127415991D01*
X126937508Y-127417538D01*
X126826186Y-127553186D01*
X126724729Y-127636448D01*
X126688991Y-127665778D01*
X126532466Y-127749443D01*
X126362627Y-127800963D01*
X126296443Y-127807481D01*
X126230260Y-127814000D01*
X125991740Y-127814000D01*
X125925557Y-127807481D01*
X125859373Y-127800963D01*
X125689534Y-127749443D01*
X125533009Y-127665778D01*
X125497271Y-127636448D01*
X125395814Y-127553186D01*
X125284492Y-127417538D01*
X125283222Y-127415991D01*
X125199557Y-127259466D01*
X125148037Y-127089627D01*
X125130641Y-126913000D01*
X125148037Y-126736373D01*
X125199557Y-126566534D01*
X125283222Y-126410009D01*
X125321726Y-126363092D01*
X125395814Y-126272814D01*
X125497271Y-126189552D01*
X125533009Y-126160222D01*
X125689534Y-126076557D01*
X125859373Y-126025037D01*
X125925558Y-126018518D01*
X125991740Y-126012000D01*
X126230260Y-126012000D01*
X126296442Y-126018518D01*
X126296442Y-126018518D01*
G37*
G36*
X145998604Y-124420347D02*
G01*
X146035144Y-124431432D01*
X146068821Y-124449433D01*
X146098341Y-124473659D01*
X146122567Y-124503179D01*
X146140568Y-124536856D01*
X146151653Y-124573396D01*
X146156000Y-124617538D01*
X146156000Y-125566462D01*
X146151653Y-125610604D01*
X146140568Y-125647144D01*
X146122567Y-125680821D01*
X146098341Y-125710341D01*
X146068821Y-125734567D01*
X146035144Y-125752568D01*
X145998604Y-125763653D01*
X145954462Y-125768000D01*
X143605538Y-125768000D01*
X143561396Y-125763653D01*
X143524856Y-125752568D01*
X143491179Y-125734567D01*
X143461659Y-125710341D01*
X143437433Y-125680821D01*
X143419432Y-125647144D01*
X143408347Y-125610604D01*
X143404000Y-125566462D01*
X143404000Y-124617538D01*
X143408347Y-124573396D01*
X143419432Y-124536856D01*
X143437433Y-124503179D01*
X143461659Y-124473659D01*
X143491179Y-124449433D01*
X143524856Y-124431432D01*
X143561396Y-124420347D01*
X143605538Y-124416000D01*
X145954462Y-124416000D01*
X145998604Y-124420347D01*
X145998604Y-124420347D01*
G37*
G36*
X93284345Y-123797442D02*
G01*
X93374548Y-123806326D01*
X93548157Y-123858990D01*
X93708156Y-123944511D01*
X93751729Y-123980271D01*
X93848397Y-124059603D01*
X93927729Y-124156271D01*
X93963489Y-124199844D01*
X94049010Y-124359843D01*
X94101674Y-124533452D01*
X94119456Y-124714000D01*
X94101674Y-124894548D01*
X94049010Y-125068157D01*
X93963489Y-125228156D01*
X93927729Y-125271729D01*
X93848397Y-125368397D01*
X93751729Y-125447729D01*
X93708156Y-125483489D01*
X93548157Y-125569010D01*
X93374548Y-125621674D01*
X93284345Y-125630558D01*
X93239245Y-125635000D01*
X92688755Y-125635000D01*
X92643655Y-125630558D01*
X92553452Y-125621674D01*
X92379843Y-125569010D01*
X92219844Y-125483489D01*
X92176271Y-125447729D01*
X92079603Y-125368397D01*
X92000271Y-125271729D01*
X91964511Y-125228156D01*
X91878990Y-125068157D01*
X91826326Y-124894548D01*
X91808544Y-124714000D01*
X91826326Y-124533452D01*
X91878990Y-124359843D01*
X91964511Y-124199844D01*
X92000271Y-124156271D01*
X92079603Y-124059603D01*
X92176271Y-123980271D01*
X92219844Y-123944511D01*
X92379843Y-123858990D01*
X92553452Y-123806326D01*
X92643655Y-123797442D01*
X92688755Y-123793000D01*
X93239245Y-123793000D01*
X93284345Y-123797442D01*
X93284345Y-123797442D01*
G37*
G36*
X115078604Y-121818347D02*
G01*
X115115144Y-121829432D01*
X115148821Y-121847433D01*
X115178341Y-121871659D01*
X115202567Y-121901179D01*
X115220568Y-121934856D01*
X115231653Y-121971396D01*
X115236000Y-122015538D01*
X115236000Y-124364462D01*
X115231653Y-124408604D01*
X115220568Y-124445144D01*
X115202567Y-124478821D01*
X115178341Y-124508341D01*
X115148821Y-124532567D01*
X115115144Y-124550568D01*
X115078604Y-124561653D01*
X115034462Y-124566000D01*
X114085538Y-124566000D01*
X114041396Y-124561653D01*
X114004856Y-124550568D01*
X113971179Y-124532567D01*
X113941659Y-124508341D01*
X113917433Y-124478821D01*
X113899432Y-124445144D01*
X113888347Y-124408604D01*
X113884000Y-124364462D01*
X113884000Y-122015538D01*
X113888347Y-121971396D01*
X113899432Y-121934856D01*
X113917433Y-121901179D01*
X113941659Y-121871659D01*
X113971179Y-121847433D01*
X114004856Y-121829432D01*
X114041396Y-121818347D01*
X114085538Y-121814000D01*
X115034462Y-121814000D01*
X115078604Y-121818347D01*
X115078604Y-121818347D01*
G37*
G36*
X112278604Y-121818347D02*
G01*
X112315144Y-121829432D01*
X112348821Y-121847433D01*
X112378341Y-121871659D01*
X112402567Y-121901179D01*
X112420568Y-121934856D01*
X112431653Y-121971396D01*
X112436000Y-122015538D01*
X112436000Y-124364462D01*
X112431653Y-124408604D01*
X112420568Y-124445144D01*
X112402567Y-124478821D01*
X112378341Y-124508341D01*
X112348821Y-124532567D01*
X112315144Y-124550568D01*
X112278604Y-124561653D01*
X112234462Y-124566000D01*
X111285538Y-124566000D01*
X111241396Y-124561653D01*
X111204856Y-124550568D01*
X111171179Y-124532567D01*
X111141659Y-124508341D01*
X111117433Y-124478821D01*
X111099432Y-124445144D01*
X111088347Y-124408604D01*
X111084000Y-124364462D01*
X111084000Y-122015538D01*
X111088347Y-121971396D01*
X111099432Y-121934856D01*
X111117433Y-121901179D01*
X111141659Y-121871659D01*
X111171179Y-121847433D01*
X111204856Y-121829432D01*
X111241396Y-121818347D01*
X111285538Y-121814000D01*
X112234462Y-121814000D01*
X112278604Y-121818347D01*
X112278604Y-121818347D01*
G37*
G36*
X93284345Y-121257442D02*
G01*
X93374548Y-121266326D01*
X93548157Y-121318990D01*
X93708156Y-121404511D01*
X93751729Y-121440271D01*
X93848397Y-121519603D01*
X93927729Y-121616271D01*
X93963489Y-121659844D01*
X94049010Y-121819843D01*
X94101674Y-121993452D01*
X94119456Y-122174000D01*
X94101674Y-122354548D01*
X94049010Y-122528157D01*
X93963489Y-122688156D01*
X93927729Y-122731729D01*
X93848397Y-122828397D01*
X93751729Y-122907729D01*
X93708156Y-122943489D01*
X93548157Y-123029010D01*
X93374548Y-123081674D01*
X93284345Y-123090558D01*
X93239245Y-123095000D01*
X92688755Y-123095000D01*
X92643655Y-123090558D01*
X92553452Y-123081674D01*
X92379843Y-123029010D01*
X92219844Y-122943489D01*
X92176271Y-122907729D01*
X92079603Y-122828397D01*
X92000271Y-122731729D01*
X91964511Y-122688156D01*
X91878990Y-122528157D01*
X91826326Y-122354548D01*
X91808544Y-122174000D01*
X91826326Y-121993452D01*
X91878990Y-121819843D01*
X91964511Y-121659844D01*
X92000271Y-121616271D01*
X92079603Y-121519603D01*
X92176271Y-121440271D01*
X92219844Y-121404511D01*
X92379843Y-121318990D01*
X92553452Y-121266326D01*
X92643655Y-121257442D01*
X92688755Y-121253000D01*
X93239245Y-121253000D01*
X93284345Y-121257442D01*
X93284345Y-121257442D01*
G37*
G36*
X93284345Y-118717442D02*
G01*
X93374548Y-118726326D01*
X93548157Y-118778990D01*
X93708156Y-118864511D01*
X93751729Y-118900271D01*
X93848397Y-118979603D01*
X93927729Y-119076271D01*
X93963489Y-119119844D01*
X94049010Y-119279843D01*
X94101674Y-119453452D01*
X94119456Y-119634000D01*
X94101674Y-119814548D01*
X94049010Y-119988157D01*
X93963489Y-120148156D01*
X93927729Y-120191729D01*
X93848397Y-120288397D01*
X93751729Y-120367729D01*
X93708156Y-120403489D01*
X93548157Y-120489010D01*
X93374548Y-120541674D01*
X93284345Y-120550558D01*
X93239245Y-120555000D01*
X92688755Y-120555000D01*
X92643655Y-120550558D01*
X92553452Y-120541674D01*
X92379843Y-120489010D01*
X92219844Y-120403489D01*
X92176271Y-120367729D01*
X92079603Y-120288397D01*
X92000271Y-120191729D01*
X91964511Y-120148156D01*
X91878990Y-119988157D01*
X91826326Y-119814548D01*
X91808544Y-119634000D01*
X91826326Y-119453452D01*
X91878990Y-119279843D01*
X91964511Y-119119844D01*
X92000271Y-119076271D01*
X92079603Y-118979603D01*
X92176271Y-118900271D01*
X92219844Y-118864511D01*
X92379843Y-118778990D01*
X92553452Y-118726326D01*
X92643655Y-118717442D01*
X92688755Y-118713000D01*
X93239245Y-118713000D01*
X93284345Y-118717442D01*
X93284345Y-118717442D01*
G37*
G36*
X141168600Y-118355989D02*
G01*
X141201652Y-118366015D01*
X141232103Y-118382292D01*
X141258799Y-118404201D01*
X141280708Y-118430897D01*
X141296985Y-118461348D01*
X141307011Y-118494400D01*
X141311000Y-118534903D01*
X141311000Y-119971097D01*
X141307011Y-120011600D01*
X141296985Y-120044652D01*
X141280708Y-120075103D01*
X141258799Y-120101799D01*
X141232103Y-120123708D01*
X141201652Y-120139985D01*
X141168600Y-120150011D01*
X141128097Y-120154000D01*
X139541903Y-120154000D01*
X139501400Y-120150011D01*
X139468348Y-120139985D01*
X139437897Y-120123708D01*
X139411201Y-120101799D01*
X139389292Y-120075103D01*
X139373015Y-120044652D01*
X139362989Y-120011600D01*
X139359000Y-119971097D01*
X139359000Y-118534903D01*
X139362989Y-118494400D01*
X139373015Y-118461348D01*
X139389292Y-118430897D01*
X139411201Y-118404201D01*
X139437897Y-118382292D01*
X139468348Y-118366015D01*
X139501400Y-118355989D01*
X139541903Y-118352000D01*
X141128097Y-118352000D01*
X141168600Y-118355989D01*
X141168600Y-118355989D01*
G37*
G36*
X126944600Y-118355989D02*
G01*
X126977652Y-118366015D01*
X127008103Y-118382292D01*
X127034799Y-118404201D01*
X127056708Y-118430897D01*
X127072985Y-118461348D01*
X127083011Y-118494400D01*
X127087000Y-118534903D01*
X127087000Y-119971097D01*
X127083011Y-120011600D01*
X127072985Y-120044652D01*
X127056708Y-120075103D01*
X127034799Y-120101799D01*
X127008103Y-120123708D01*
X126977652Y-120139985D01*
X126944600Y-120150011D01*
X126904097Y-120154000D01*
X125317903Y-120154000D01*
X125277400Y-120150011D01*
X125244348Y-120139985D01*
X125213897Y-120123708D01*
X125187201Y-120101799D01*
X125165292Y-120075103D01*
X125149015Y-120044652D01*
X125138989Y-120011600D01*
X125135000Y-119971097D01*
X125135000Y-118534903D01*
X125138989Y-118494400D01*
X125149015Y-118461348D01*
X125165292Y-118430897D01*
X125187201Y-118404201D01*
X125213897Y-118382292D01*
X125244348Y-118366015D01*
X125277400Y-118355989D01*
X125317903Y-118352000D01*
X126904097Y-118352000D01*
X126944600Y-118355989D01*
X126944600Y-118355989D01*
G37*
G36*
X134056600Y-118355989D02*
G01*
X134089652Y-118366015D01*
X134120103Y-118382292D01*
X134146799Y-118404201D01*
X134168708Y-118430897D01*
X134184985Y-118461348D01*
X134195011Y-118494400D01*
X134199000Y-118534903D01*
X134199000Y-119971097D01*
X134195011Y-120011600D01*
X134184985Y-120044652D01*
X134168708Y-120075103D01*
X134146799Y-120101799D01*
X134120103Y-120123708D01*
X134089652Y-120139985D01*
X134056600Y-120150011D01*
X134016097Y-120154000D01*
X132429903Y-120154000D01*
X132389400Y-120150011D01*
X132356348Y-120139985D01*
X132325897Y-120123708D01*
X132299201Y-120101799D01*
X132277292Y-120075103D01*
X132261015Y-120044652D01*
X132250989Y-120011600D01*
X132247000Y-119971097D01*
X132247000Y-118534903D01*
X132250989Y-118494400D01*
X132261015Y-118461348D01*
X132277292Y-118430897D01*
X132299201Y-118404201D01*
X132325897Y-118382292D01*
X132356348Y-118366015D01*
X132389400Y-118355989D01*
X132429903Y-118352000D01*
X134016097Y-118352000D01*
X134056600Y-118355989D01*
X134056600Y-118355989D01*
G37*
G36*
X114533222Y-115601390D02*
G01*
X114633881Y-115631925D01*
X114684212Y-115647192D01*
X114823364Y-115721571D01*
X114945333Y-115821667D01*
X115045429Y-115943635D01*
X115119808Y-116082787D01*
X115128916Y-116112814D01*
X115165610Y-116233777D01*
X115177200Y-116351455D01*
X115177200Y-117430145D01*
X115165610Y-117547823D01*
X115137356Y-117640963D01*
X115119808Y-117698813D01*
X115045429Y-117837965D01*
X114945333Y-117959933D01*
X114823365Y-118060029D01*
X114684213Y-118134408D01*
X114633882Y-118149675D01*
X114533223Y-118180210D01*
X114376200Y-118195675D01*
X114219178Y-118180210D01*
X114118519Y-118149675D01*
X114068188Y-118134408D01*
X113929036Y-118060029D01*
X113807068Y-117959933D01*
X113706972Y-117837965D01*
X113632593Y-117698813D01*
X113615045Y-117640963D01*
X113586791Y-117547823D01*
X113575201Y-117430145D01*
X113575200Y-116351456D01*
X113586790Y-116233778D01*
X113632592Y-116082789D01*
X113632592Y-116082788D01*
X113706971Y-115943636D01*
X113782174Y-115852000D01*
X113807067Y-115821667D01*
X113929035Y-115721571D01*
X114068187Y-115647192D01*
X114118518Y-115631925D01*
X114219177Y-115601390D01*
X114376200Y-115585925D01*
X114533222Y-115601390D01*
X114533222Y-115601390D01*
G37*
G36*
X117073222Y-115601390D02*
G01*
X117173881Y-115631925D01*
X117224212Y-115647192D01*
X117363364Y-115721571D01*
X117485333Y-115821667D01*
X117585429Y-115943635D01*
X117659808Y-116082787D01*
X117668916Y-116112814D01*
X117705610Y-116233777D01*
X117717200Y-116351455D01*
X117717200Y-117430145D01*
X117705610Y-117547823D01*
X117677356Y-117640963D01*
X117659808Y-117698813D01*
X117585429Y-117837965D01*
X117485333Y-117959933D01*
X117363365Y-118060029D01*
X117224213Y-118134408D01*
X117173882Y-118149675D01*
X117073223Y-118180210D01*
X116916200Y-118195675D01*
X116759178Y-118180210D01*
X116658519Y-118149675D01*
X116608188Y-118134408D01*
X116469036Y-118060029D01*
X116347068Y-117959933D01*
X116246972Y-117837965D01*
X116172593Y-117698813D01*
X116155045Y-117640963D01*
X116126791Y-117547823D01*
X116115201Y-117430145D01*
X116115200Y-116351456D01*
X116126790Y-116233778D01*
X116172592Y-116082789D01*
X116172592Y-116082788D01*
X116246971Y-115943636D01*
X116322174Y-115852000D01*
X116347067Y-115821667D01*
X116469035Y-115721571D01*
X116608187Y-115647192D01*
X116658518Y-115631925D01*
X116759177Y-115601390D01*
X116916200Y-115585925D01*
X117073222Y-115601390D01*
X117073222Y-115601390D01*
G37*
G36*
X112637200Y-118191800D02*
G01*
X111035200Y-118191800D01*
X111035200Y-115589800D01*
X112637200Y-115589800D01*
X112637200Y-118191800D01*
X112637200Y-118191800D01*
G37*
G36*
X140520442Y-115858518D02*
G01*
X140586627Y-115865037D01*
X140756466Y-115916557D01*
X140912991Y-116000222D01*
X140948729Y-116029552D01*
X141050186Y-116112814D01*
X141104857Y-116179432D01*
X141162778Y-116250009D01*
X141246443Y-116406534D01*
X141297963Y-116576373D01*
X141315359Y-116753000D01*
X141297963Y-116929627D01*
X141246443Y-117099466D01*
X141162778Y-117255991D01*
X141133448Y-117291729D01*
X141050186Y-117393186D01*
X140970793Y-117458341D01*
X140912991Y-117505778D01*
X140756466Y-117589443D01*
X140586627Y-117640963D01*
X140520443Y-117647481D01*
X140454260Y-117654000D01*
X140215740Y-117654000D01*
X140149557Y-117647481D01*
X140083373Y-117640963D01*
X139913534Y-117589443D01*
X139757009Y-117505778D01*
X139699207Y-117458341D01*
X139619814Y-117393186D01*
X139536552Y-117291729D01*
X139507222Y-117255991D01*
X139423557Y-117099466D01*
X139372037Y-116929627D01*
X139354641Y-116753000D01*
X139372037Y-116576373D01*
X139423557Y-116406534D01*
X139507222Y-116250009D01*
X139565143Y-116179432D01*
X139619814Y-116112814D01*
X139721271Y-116029552D01*
X139757009Y-116000222D01*
X139913534Y-115916557D01*
X140083373Y-115865037D01*
X140149558Y-115858518D01*
X140215740Y-115852000D01*
X140454260Y-115852000D01*
X140520442Y-115858518D01*
X140520442Y-115858518D01*
G37*
G36*
X126296442Y-115858518D02*
G01*
X126362627Y-115865037D01*
X126532466Y-115916557D01*
X126688991Y-116000222D01*
X126724729Y-116029552D01*
X126826186Y-116112814D01*
X126880857Y-116179432D01*
X126938778Y-116250009D01*
X127022443Y-116406534D01*
X127073963Y-116576373D01*
X127091359Y-116753000D01*
X127073963Y-116929627D01*
X127022443Y-117099466D01*
X126938778Y-117255991D01*
X126909448Y-117291729D01*
X126826186Y-117393186D01*
X126746793Y-117458341D01*
X126688991Y-117505778D01*
X126532466Y-117589443D01*
X126362627Y-117640963D01*
X126296443Y-117647481D01*
X126230260Y-117654000D01*
X125991740Y-117654000D01*
X125925557Y-117647481D01*
X125859373Y-117640963D01*
X125689534Y-117589443D01*
X125533009Y-117505778D01*
X125475207Y-117458341D01*
X125395814Y-117393186D01*
X125312552Y-117291729D01*
X125283222Y-117255991D01*
X125199557Y-117099466D01*
X125148037Y-116929627D01*
X125130641Y-116753000D01*
X125148037Y-116576373D01*
X125199557Y-116406534D01*
X125283222Y-116250009D01*
X125341143Y-116179432D01*
X125395814Y-116112814D01*
X125497271Y-116029552D01*
X125533009Y-116000222D01*
X125689534Y-115916557D01*
X125859373Y-115865037D01*
X125925558Y-115858518D01*
X125991740Y-115852000D01*
X126230260Y-115852000D01*
X126296442Y-115858518D01*
X126296442Y-115858518D01*
G37*
G36*
X133408442Y-115858518D02*
G01*
X133474627Y-115865037D01*
X133644466Y-115916557D01*
X133800991Y-116000222D01*
X133836729Y-116029552D01*
X133938186Y-116112814D01*
X133992857Y-116179432D01*
X134050778Y-116250009D01*
X134134443Y-116406534D01*
X134185963Y-116576373D01*
X134203359Y-116753000D01*
X134185963Y-116929627D01*
X134134443Y-117099466D01*
X134050778Y-117255991D01*
X134021448Y-117291729D01*
X133938186Y-117393186D01*
X133858793Y-117458341D01*
X133800991Y-117505778D01*
X133644466Y-117589443D01*
X133474627Y-117640963D01*
X133408443Y-117647481D01*
X133342260Y-117654000D01*
X133103740Y-117654000D01*
X133037557Y-117647481D01*
X132971373Y-117640963D01*
X132801534Y-117589443D01*
X132645009Y-117505778D01*
X132587207Y-117458341D01*
X132507814Y-117393186D01*
X132424552Y-117291729D01*
X132395222Y-117255991D01*
X132311557Y-117099466D01*
X132260037Y-116929627D01*
X132242641Y-116753000D01*
X132260037Y-116576373D01*
X132311557Y-116406534D01*
X132395222Y-116250009D01*
X132453143Y-116179432D01*
X132507814Y-116112814D01*
X132609271Y-116029552D01*
X132645009Y-116000222D01*
X132801534Y-115916557D01*
X132971373Y-115865037D01*
X133037558Y-115858518D01*
X133103740Y-115852000D01*
X133342260Y-115852000D01*
X133408442Y-115858518D01*
X133408442Y-115858518D01*
G37*
G36*
X145998604Y-116168347D02*
G01*
X146035144Y-116179432D01*
X146068821Y-116197433D01*
X146098341Y-116221659D01*
X146122567Y-116251179D01*
X146140568Y-116284856D01*
X146151653Y-116321396D01*
X146156000Y-116365538D01*
X146156000Y-117314462D01*
X146151653Y-117358604D01*
X146140568Y-117395144D01*
X146122567Y-117428821D01*
X146098341Y-117458341D01*
X146068821Y-117482567D01*
X146035144Y-117500568D01*
X145998604Y-117511653D01*
X145954462Y-117516000D01*
X143605538Y-117516000D01*
X143561396Y-117511653D01*
X143524856Y-117500568D01*
X143491179Y-117482567D01*
X143461659Y-117458341D01*
X143437433Y-117428821D01*
X143419432Y-117395144D01*
X143408347Y-117358604D01*
X143404000Y-117314462D01*
X143404000Y-116365538D01*
X143408347Y-116321396D01*
X143419432Y-116284856D01*
X143437433Y-116251179D01*
X143461659Y-116221659D01*
X143491179Y-116197433D01*
X143524856Y-116179432D01*
X143561396Y-116168347D01*
X143605538Y-116164000D01*
X145954462Y-116164000D01*
X145998604Y-116168347D01*
X145998604Y-116168347D01*
G37*
G36*
X98054604Y-115156347D02*
G01*
X98091144Y-115167432D01*
X98124821Y-115185433D01*
X98154341Y-115209659D01*
X98178567Y-115239179D01*
X98196568Y-115272856D01*
X98207653Y-115309396D01*
X98212000Y-115353538D01*
X98212000Y-116802462D01*
X98207653Y-116846604D01*
X98196568Y-116883144D01*
X98178567Y-116916821D01*
X98154341Y-116946341D01*
X98124821Y-116970567D01*
X98091144Y-116988568D01*
X98054604Y-116999653D01*
X98010462Y-117004000D01*
X97061538Y-117004000D01*
X97017396Y-116999653D01*
X96980856Y-116988568D01*
X96947179Y-116970567D01*
X96917659Y-116946341D01*
X96893433Y-116916821D01*
X96875432Y-116883144D01*
X96864347Y-116846604D01*
X96860000Y-116802462D01*
X96860000Y-115353538D01*
X96864347Y-115309396D01*
X96875432Y-115272856D01*
X96893433Y-115239179D01*
X96917659Y-115209659D01*
X96947179Y-115185433D01*
X96980856Y-115167432D01*
X97017396Y-115156347D01*
X97061538Y-115152000D01*
X98010462Y-115152000D01*
X98054604Y-115156347D01*
X98054604Y-115156347D01*
G37*
G36*
X100854604Y-115156347D02*
G01*
X100891144Y-115167432D01*
X100924821Y-115185433D01*
X100954341Y-115209659D01*
X100978567Y-115239179D01*
X100996568Y-115272856D01*
X101007653Y-115309396D01*
X101012000Y-115353538D01*
X101012000Y-116802462D01*
X101007653Y-116846604D01*
X100996568Y-116883144D01*
X100978567Y-116916821D01*
X100954341Y-116946341D01*
X100924821Y-116970567D01*
X100891144Y-116988568D01*
X100854604Y-116999653D01*
X100810462Y-117004000D01*
X99861538Y-117004000D01*
X99817396Y-116999653D01*
X99780856Y-116988568D01*
X99747179Y-116970567D01*
X99717659Y-116946341D01*
X99693433Y-116916821D01*
X99675432Y-116883144D01*
X99664347Y-116846604D01*
X99660000Y-116802462D01*
X99660000Y-115353538D01*
X99664347Y-115309396D01*
X99675432Y-115272856D01*
X99693433Y-115239179D01*
X99717659Y-115209659D01*
X99747179Y-115185433D01*
X99780856Y-115167432D01*
X99817396Y-115156347D01*
X99861538Y-115152000D01*
X100810462Y-115152000D01*
X100854604Y-115156347D01*
X100854604Y-115156347D01*
G37*
G36*
X103388604Y-115156347D02*
G01*
X103425144Y-115167432D01*
X103458821Y-115185433D01*
X103488341Y-115209659D01*
X103512567Y-115239179D01*
X103530568Y-115272856D01*
X103541653Y-115309396D01*
X103546000Y-115353538D01*
X103546000Y-116802462D01*
X103541653Y-116846604D01*
X103530568Y-116883144D01*
X103512567Y-116916821D01*
X103488341Y-116946341D01*
X103458821Y-116970567D01*
X103425144Y-116988568D01*
X103388604Y-116999653D01*
X103344462Y-117004000D01*
X102395538Y-117004000D01*
X102351396Y-116999653D01*
X102314856Y-116988568D01*
X102281179Y-116970567D01*
X102251659Y-116946341D01*
X102227433Y-116916821D01*
X102209432Y-116883144D01*
X102198347Y-116846604D01*
X102194000Y-116802462D01*
X102194000Y-115353538D01*
X102198347Y-115309396D01*
X102209432Y-115272856D01*
X102227433Y-115239179D01*
X102251659Y-115209659D01*
X102281179Y-115185433D01*
X102314856Y-115167432D01*
X102351396Y-115156347D01*
X102395538Y-115152000D01*
X103344462Y-115152000D01*
X103388604Y-115156347D01*
X103388604Y-115156347D01*
G37*
G36*
X106188604Y-115156347D02*
G01*
X106225144Y-115167432D01*
X106258821Y-115185433D01*
X106288341Y-115209659D01*
X106312567Y-115239179D01*
X106330568Y-115272856D01*
X106341653Y-115309396D01*
X106346000Y-115353538D01*
X106346000Y-116802462D01*
X106341653Y-116846604D01*
X106330568Y-116883144D01*
X106312567Y-116916821D01*
X106288341Y-116946341D01*
X106258821Y-116970567D01*
X106225144Y-116988568D01*
X106188604Y-116999653D01*
X106144462Y-117004000D01*
X105195538Y-117004000D01*
X105151396Y-116999653D01*
X105114856Y-116988568D01*
X105081179Y-116970567D01*
X105051659Y-116946341D01*
X105027433Y-116916821D01*
X105009432Y-116883144D01*
X104998347Y-116846604D01*
X104994000Y-116802462D01*
X104994000Y-115353538D01*
X104998347Y-115309396D01*
X105009432Y-115272856D01*
X105027433Y-115239179D01*
X105051659Y-115209659D01*
X105081179Y-115185433D01*
X105114856Y-115167432D01*
X105151396Y-115156347D01*
X105195538Y-115152000D01*
X106144462Y-115152000D01*
X106188604Y-115156347D01*
X106188604Y-115156347D01*
G37*
G36*
X140520443Y-113358519D02*
G01*
X140586627Y-113365037D01*
X140756466Y-113416557D01*
X140912991Y-113500222D01*
X140938791Y-113521396D01*
X141050186Y-113612814D01*
X141133448Y-113714271D01*
X141162778Y-113750009D01*
X141246443Y-113906534D01*
X141297963Y-114076373D01*
X141315359Y-114253000D01*
X141297963Y-114429627D01*
X141246443Y-114599466D01*
X141162778Y-114755991D01*
X141133448Y-114791729D01*
X141050186Y-114893186D01*
X140948729Y-114976448D01*
X140912991Y-115005778D01*
X140756466Y-115089443D01*
X140586627Y-115140963D01*
X140520443Y-115147481D01*
X140454260Y-115154000D01*
X140215740Y-115154000D01*
X140149557Y-115147481D01*
X140083373Y-115140963D01*
X139913534Y-115089443D01*
X139757009Y-115005778D01*
X139721271Y-114976448D01*
X139619814Y-114893186D01*
X139536552Y-114791729D01*
X139507222Y-114755991D01*
X139423557Y-114599466D01*
X139372037Y-114429627D01*
X139354641Y-114253000D01*
X139372037Y-114076373D01*
X139423557Y-113906534D01*
X139507222Y-113750009D01*
X139536552Y-113714271D01*
X139619814Y-113612814D01*
X139731209Y-113521396D01*
X139757009Y-113500222D01*
X139913534Y-113416557D01*
X140083373Y-113365037D01*
X140149557Y-113358519D01*
X140215740Y-113352000D01*
X140454260Y-113352000D01*
X140520443Y-113358519D01*
X140520443Y-113358519D01*
G37*
G36*
X133408443Y-113358519D02*
G01*
X133474627Y-113365037D01*
X133644466Y-113416557D01*
X133800991Y-113500222D01*
X133826791Y-113521396D01*
X133938186Y-113612814D01*
X134021448Y-113714271D01*
X134050778Y-113750009D01*
X134134443Y-113906534D01*
X134185963Y-114076373D01*
X134203359Y-114253000D01*
X134185963Y-114429627D01*
X134134443Y-114599466D01*
X134050778Y-114755991D01*
X134021448Y-114791729D01*
X133938186Y-114893186D01*
X133836729Y-114976448D01*
X133800991Y-115005778D01*
X133644466Y-115089443D01*
X133474627Y-115140963D01*
X133408443Y-115147481D01*
X133342260Y-115154000D01*
X133103740Y-115154000D01*
X133037557Y-115147481D01*
X132971373Y-115140963D01*
X132801534Y-115089443D01*
X132645009Y-115005778D01*
X132609271Y-114976448D01*
X132507814Y-114893186D01*
X132424552Y-114791729D01*
X132395222Y-114755991D01*
X132311557Y-114599466D01*
X132260037Y-114429627D01*
X132242641Y-114253000D01*
X132260037Y-114076373D01*
X132311557Y-113906534D01*
X132395222Y-113750009D01*
X132424552Y-113714271D01*
X132507814Y-113612814D01*
X132619209Y-113521396D01*
X132645009Y-113500222D01*
X132801534Y-113416557D01*
X132971373Y-113365037D01*
X133037557Y-113358519D01*
X133103740Y-113352000D01*
X133342260Y-113352000D01*
X133408443Y-113358519D01*
X133408443Y-113358519D01*
G37*
G36*
X126296443Y-113358519D02*
G01*
X126362627Y-113365037D01*
X126532466Y-113416557D01*
X126688991Y-113500222D01*
X126714791Y-113521396D01*
X126826186Y-113612814D01*
X126909448Y-113714271D01*
X126938778Y-113750009D01*
X127022443Y-113906534D01*
X127073963Y-114076373D01*
X127091359Y-114253000D01*
X127073963Y-114429627D01*
X127022443Y-114599466D01*
X126938778Y-114755991D01*
X126909448Y-114791729D01*
X126826186Y-114893186D01*
X126724729Y-114976448D01*
X126688991Y-115005778D01*
X126532466Y-115089443D01*
X126362627Y-115140963D01*
X126296443Y-115147481D01*
X126230260Y-115154000D01*
X125991740Y-115154000D01*
X125925557Y-115147481D01*
X125859373Y-115140963D01*
X125689534Y-115089443D01*
X125533009Y-115005778D01*
X125497271Y-114976448D01*
X125395814Y-114893186D01*
X125312552Y-114791729D01*
X125283222Y-114755991D01*
X125199557Y-114599466D01*
X125148037Y-114429627D01*
X125130641Y-114253000D01*
X125148037Y-114076373D01*
X125199557Y-113906534D01*
X125283222Y-113750009D01*
X125312552Y-113714271D01*
X125395814Y-113612814D01*
X125507209Y-113521396D01*
X125533009Y-113500222D01*
X125689534Y-113416557D01*
X125859373Y-113365037D01*
X125925557Y-113358519D01*
X125991740Y-113352000D01*
X126230260Y-113352000D01*
X126296443Y-113358519D01*
X126296443Y-113358519D01*
G37*
G36*
X145998604Y-113368347D02*
G01*
X146035144Y-113379432D01*
X146068821Y-113397433D01*
X146098341Y-113421659D01*
X146122567Y-113451179D01*
X146140568Y-113484856D01*
X146151653Y-113521396D01*
X146156000Y-113565538D01*
X146156000Y-114514462D01*
X146151653Y-114558604D01*
X146140568Y-114595144D01*
X146122567Y-114628821D01*
X146098341Y-114658341D01*
X146068821Y-114682567D01*
X146035144Y-114700568D01*
X145998604Y-114711653D01*
X145954462Y-114716000D01*
X143605538Y-114716000D01*
X143561396Y-114711653D01*
X143524856Y-114700568D01*
X143491179Y-114682567D01*
X143461659Y-114658341D01*
X143437433Y-114628821D01*
X143419432Y-114595144D01*
X143408347Y-114558604D01*
X143404000Y-114514462D01*
X143404000Y-113565538D01*
X143408347Y-113521396D01*
X143419432Y-113484856D01*
X143437433Y-113451179D01*
X143461659Y-113421659D01*
X143491179Y-113397433D01*
X143524856Y-113379432D01*
X143561396Y-113368347D01*
X143605538Y-113364000D01*
X145954462Y-113364000D01*
X145998604Y-113368347D01*
X145998604Y-113368347D01*
G37*
G36*
X94007000Y-114327000D02*
G01*
X90905000Y-114327000D01*
X90905000Y-111225000D01*
X94007000Y-111225000D01*
X94007000Y-114327000D01*
X94007000Y-114327000D01*
G37*
G36*
X115078604Y-109626347D02*
G01*
X115115144Y-109637432D01*
X115148821Y-109655433D01*
X115178341Y-109679659D01*
X115202567Y-109709179D01*
X115220568Y-109742856D01*
X115231653Y-109779396D01*
X115236000Y-109823538D01*
X115236000Y-112172462D01*
X115231653Y-112216604D01*
X115220568Y-112253144D01*
X115202567Y-112286821D01*
X115178341Y-112316341D01*
X115148821Y-112340567D01*
X115115144Y-112358568D01*
X115078604Y-112369653D01*
X115034462Y-112374000D01*
X114085538Y-112374000D01*
X114041396Y-112369653D01*
X114004856Y-112358568D01*
X113971179Y-112340567D01*
X113941659Y-112316341D01*
X113917433Y-112286821D01*
X113899432Y-112253144D01*
X113888347Y-112216604D01*
X113884000Y-112172462D01*
X113884000Y-109823538D01*
X113888347Y-109779396D01*
X113899432Y-109742856D01*
X113917433Y-109709179D01*
X113941659Y-109679659D01*
X113971179Y-109655433D01*
X114004856Y-109637432D01*
X114041396Y-109626347D01*
X114085538Y-109622000D01*
X115034462Y-109622000D01*
X115078604Y-109626347D01*
X115078604Y-109626347D01*
G37*
G36*
X112278604Y-109626347D02*
G01*
X112315144Y-109637432D01*
X112348821Y-109655433D01*
X112378341Y-109679659D01*
X112402567Y-109709179D01*
X112420568Y-109742856D01*
X112431653Y-109779396D01*
X112436000Y-109823538D01*
X112436000Y-112172462D01*
X112431653Y-112216604D01*
X112420568Y-112253144D01*
X112402567Y-112286821D01*
X112378341Y-112316341D01*
X112348821Y-112340567D01*
X112315144Y-112358568D01*
X112278604Y-112369653D01*
X112234462Y-112374000D01*
X111285538Y-112374000D01*
X111241396Y-112369653D01*
X111204856Y-112358568D01*
X111171179Y-112340567D01*
X111141659Y-112316341D01*
X111117433Y-112286821D01*
X111099432Y-112253144D01*
X111088347Y-112216604D01*
X111084000Y-112172462D01*
X111084000Y-109823538D01*
X111088347Y-109779396D01*
X111099432Y-109742856D01*
X111117433Y-109709179D01*
X111141659Y-109679659D01*
X111171179Y-109655433D01*
X111204856Y-109637432D01*
X111241396Y-109626347D01*
X111285538Y-109622000D01*
X112234462Y-109622000D01*
X112278604Y-109626347D01*
X112278604Y-109626347D01*
G37*
G36*
X146252604Y-108424347D02*
G01*
X146289144Y-108435432D01*
X146322821Y-108453433D01*
X146352341Y-108477659D01*
X146376567Y-108507179D01*
X146394568Y-108540856D01*
X146405653Y-108577396D01*
X146410000Y-108621538D01*
X146410000Y-109570462D01*
X146405653Y-109614604D01*
X146394568Y-109651144D01*
X146376567Y-109684821D01*
X146352341Y-109714341D01*
X146322821Y-109738567D01*
X146289144Y-109756568D01*
X146252604Y-109767653D01*
X146208462Y-109772000D01*
X143859538Y-109772000D01*
X143815396Y-109767653D01*
X143778856Y-109756568D01*
X143745179Y-109738567D01*
X143715659Y-109714341D01*
X143691433Y-109684821D01*
X143673432Y-109651144D01*
X143662347Y-109614604D01*
X143658000Y-109570462D01*
X143658000Y-108621538D01*
X143662347Y-108577396D01*
X143673432Y-108540856D01*
X143691433Y-108507179D01*
X143715659Y-108477659D01*
X143745179Y-108453433D01*
X143778856Y-108435432D01*
X143815396Y-108424347D01*
X143859538Y-108420000D01*
X146208462Y-108420000D01*
X146252604Y-108424347D01*
X146252604Y-108424347D01*
G37*
G36*
X92715848Y-106246301D02*
G01*
X92908410Y-106284604D01*
X93190674Y-106401521D01*
X93444705Y-106571259D01*
X93660741Y-106787295D01*
X93830479Y-107041326D01*
X93947396Y-107323590D01*
X93947396Y-107323591D01*
X94006694Y-107621699D01*
X94007000Y-107623240D01*
X94007000Y-107928760D01*
X93947396Y-108228410D01*
X93830479Y-108510674D01*
X93660741Y-108764705D01*
X93444705Y-108980741D01*
X93190674Y-109150479D01*
X92908410Y-109267396D01*
X92758585Y-109297198D01*
X92608761Y-109327000D01*
X92303239Y-109327000D01*
X92153415Y-109297198D01*
X92003590Y-109267396D01*
X91721326Y-109150479D01*
X91467295Y-108980741D01*
X91251259Y-108764705D01*
X91081521Y-108510674D01*
X90964604Y-108228410D01*
X90905000Y-107928760D01*
X90905000Y-107623240D01*
X90905307Y-107621699D01*
X90964604Y-107323591D01*
X90964604Y-107323590D01*
X91081521Y-107041326D01*
X91251259Y-106787295D01*
X91467295Y-106571259D01*
X91721326Y-106401521D01*
X92003590Y-106284604D01*
X92196152Y-106246301D01*
X92303239Y-106225000D01*
X92608761Y-106225000D01*
X92715848Y-106246301D01*
X92715848Y-106246301D01*
G37*
G36*
X126944600Y-106036989D02*
G01*
X126977652Y-106047015D01*
X127008103Y-106063292D01*
X127034799Y-106085201D01*
X127056708Y-106111897D01*
X127072985Y-106142348D01*
X127083011Y-106175400D01*
X127087000Y-106215903D01*
X127087000Y-107652097D01*
X127083011Y-107692600D01*
X127072985Y-107725652D01*
X127056708Y-107756103D01*
X127034799Y-107782799D01*
X127008103Y-107804708D01*
X126977652Y-107820985D01*
X126944600Y-107831011D01*
X126904097Y-107835000D01*
X125317903Y-107835000D01*
X125277400Y-107831011D01*
X125244348Y-107820985D01*
X125213897Y-107804708D01*
X125187201Y-107782799D01*
X125165292Y-107756103D01*
X125149015Y-107725652D01*
X125138989Y-107692600D01*
X125135000Y-107652097D01*
X125135000Y-106215903D01*
X125138989Y-106175400D01*
X125149015Y-106142348D01*
X125165292Y-106111897D01*
X125187201Y-106085201D01*
X125213897Y-106063292D01*
X125244348Y-106047015D01*
X125277400Y-106036989D01*
X125317903Y-106033000D01*
X126904097Y-106033000D01*
X126944600Y-106036989D01*
X126944600Y-106036989D01*
G37*
G36*
X134056600Y-106036989D02*
G01*
X134089652Y-106047015D01*
X134120103Y-106063292D01*
X134146799Y-106085201D01*
X134168708Y-106111897D01*
X134184985Y-106142348D01*
X134195011Y-106175400D01*
X134199000Y-106215903D01*
X134199000Y-107652097D01*
X134195011Y-107692600D01*
X134184985Y-107725652D01*
X134168708Y-107756103D01*
X134146799Y-107782799D01*
X134120103Y-107804708D01*
X134089652Y-107820985D01*
X134056600Y-107831011D01*
X134016097Y-107835000D01*
X132429903Y-107835000D01*
X132389400Y-107831011D01*
X132356348Y-107820985D01*
X132325897Y-107804708D01*
X132299201Y-107782799D01*
X132277292Y-107756103D01*
X132261015Y-107725652D01*
X132250989Y-107692600D01*
X132247000Y-107652097D01*
X132247000Y-106215903D01*
X132250989Y-106175400D01*
X132261015Y-106142348D01*
X132277292Y-106111897D01*
X132299201Y-106085201D01*
X132325897Y-106063292D01*
X132356348Y-106047015D01*
X132389400Y-106036989D01*
X132429903Y-106033000D01*
X134016097Y-106033000D01*
X134056600Y-106036989D01*
X134056600Y-106036989D01*
G37*
G36*
X141168600Y-106036989D02*
G01*
X141201652Y-106047015D01*
X141232103Y-106063292D01*
X141258799Y-106085201D01*
X141280708Y-106111897D01*
X141296985Y-106142348D01*
X141307011Y-106175400D01*
X141311000Y-106215903D01*
X141311000Y-107652097D01*
X141307011Y-107692600D01*
X141296985Y-107725652D01*
X141280708Y-107756103D01*
X141258799Y-107782799D01*
X141232103Y-107804708D01*
X141201652Y-107820985D01*
X141168600Y-107831011D01*
X141128097Y-107835000D01*
X139541903Y-107835000D01*
X139501400Y-107831011D01*
X139468348Y-107820985D01*
X139437897Y-107804708D01*
X139411201Y-107782799D01*
X139389292Y-107756103D01*
X139373015Y-107725652D01*
X139362989Y-107692600D01*
X139359000Y-107652097D01*
X139359000Y-106215903D01*
X139362989Y-106175400D01*
X139373015Y-106142348D01*
X139389292Y-106111897D01*
X139411201Y-106085201D01*
X139437897Y-106063292D01*
X139468348Y-106047015D01*
X139501400Y-106036989D01*
X139541903Y-106033000D01*
X141128097Y-106033000D01*
X141168600Y-106036989D01*
X141168600Y-106036989D01*
G37*
G36*
X146252604Y-105624347D02*
G01*
X146289144Y-105635432D01*
X146322821Y-105653433D01*
X146352341Y-105677659D01*
X146376567Y-105707179D01*
X146394568Y-105740856D01*
X146405653Y-105777396D01*
X146410000Y-105821538D01*
X146410000Y-106770462D01*
X146405653Y-106814604D01*
X146394568Y-106851144D01*
X146376567Y-106884821D01*
X146352341Y-106914341D01*
X146322821Y-106938567D01*
X146289144Y-106956568D01*
X146252604Y-106967653D01*
X146208462Y-106972000D01*
X143859538Y-106972000D01*
X143815396Y-106967653D01*
X143778856Y-106956568D01*
X143745179Y-106938567D01*
X143715659Y-106914341D01*
X143691433Y-106884821D01*
X143673432Y-106851144D01*
X143662347Y-106814604D01*
X143658000Y-106770462D01*
X143658000Y-105821538D01*
X143662347Y-105777396D01*
X143673432Y-105740856D01*
X143691433Y-105707179D01*
X143715659Y-105677659D01*
X143745179Y-105653433D01*
X143778856Y-105635432D01*
X143815396Y-105624347D01*
X143859538Y-105620000D01*
X146208462Y-105620000D01*
X146252604Y-105624347D01*
X146252604Y-105624347D01*
G37*
G36*
X117047822Y-102850590D02*
G01*
X117148481Y-102881125D01*
X117198812Y-102896392D01*
X117337964Y-102970771D01*
X117459933Y-103070867D01*
X117560029Y-103192835D01*
X117634408Y-103331987D01*
X117649675Y-103382318D01*
X117680210Y-103482977D01*
X117691800Y-103600655D01*
X117691800Y-104679345D01*
X117680210Y-104797023D01*
X117649675Y-104897682D01*
X117634408Y-104948013D01*
X117560029Y-105087165D01*
X117459933Y-105209133D01*
X117337965Y-105309229D01*
X117198813Y-105383608D01*
X117148482Y-105398875D01*
X117047823Y-105429410D01*
X116890800Y-105444875D01*
X116733778Y-105429410D01*
X116633119Y-105398875D01*
X116582788Y-105383608D01*
X116443636Y-105309229D01*
X116321668Y-105209133D01*
X116221572Y-105087165D01*
X116147193Y-104948013D01*
X116131926Y-104897682D01*
X116101391Y-104797023D01*
X116089801Y-104679345D01*
X116089800Y-103600656D01*
X116101390Y-103482978D01*
X116147192Y-103331989D01*
X116147192Y-103331988D01*
X116221571Y-103192836D01*
X116221572Y-103192835D01*
X116321667Y-103070867D01*
X116443635Y-102970771D01*
X116582787Y-102896392D01*
X116633118Y-102881125D01*
X116733777Y-102850590D01*
X116890800Y-102835125D01*
X117047822Y-102850590D01*
X117047822Y-102850590D01*
G37*
G36*
X114507822Y-102850590D02*
G01*
X114608481Y-102881125D01*
X114658812Y-102896392D01*
X114797964Y-102970771D01*
X114919933Y-103070867D01*
X115020029Y-103192835D01*
X115094408Y-103331987D01*
X115109675Y-103382318D01*
X115140210Y-103482977D01*
X115151800Y-103600655D01*
X115151800Y-104679345D01*
X115140210Y-104797023D01*
X115109675Y-104897682D01*
X115094408Y-104948013D01*
X115020029Y-105087165D01*
X114919933Y-105209133D01*
X114797965Y-105309229D01*
X114658813Y-105383608D01*
X114608482Y-105398875D01*
X114507823Y-105429410D01*
X114350800Y-105444875D01*
X114193778Y-105429410D01*
X114093119Y-105398875D01*
X114042788Y-105383608D01*
X113903636Y-105309229D01*
X113781668Y-105209133D01*
X113681572Y-105087165D01*
X113607193Y-104948013D01*
X113591926Y-104897682D01*
X113561391Y-104797023D01*
X113549801Y-104679345D01*
X113549800Y-103600656D01*
X113561390Y-103482978D01*
X113607192Y-103331989D01*
X113607192Y-103331988D01*
X113681571Y-103192836D01*
X113681572Y-103192835D01*
X113781667Y-103070867D01*
X113903635Y-102970771D01*
X114042787Y-102896392D01*
X114093118Y-102881125D01*
X114193777Y-102850590D01*
X114350800Y-102835125D01*
X114507822Y-102850590D01*
X114507822Y-102850590D01*
G37*
G36*
X112611800Y-105441000D02*
G01*
X111009800Y-105441000D01*
X111009800Y-102839000D01*
X112611800Y-102839000D01*
X112611800Y-105441000D01*
X112611800Y-105441000D01*
G37*
G36*
X133408443Y-103539519D02*
G01*
X133474627Y-103546037D01*
X133644466Y-103597557D01*
X133800991Y-103681222D01*
X133836729Y-103710552D01*
X133938186Y-103793814D01*
X134021448Y-103895271D01*
X134050778Y-103931009D01*
X134134443Y-104087534D01*
X134185963Y-104257373D01*
X134203359Y-104434000D01*
X134185963Y-104610627D01*
X134134443Y-104780466D01*
X134050778Y-104936991D01*
X134041733Y-104948012D01*
X133938186Y-105074186D01*
X133836729Y-105157448D01*
X133800991Y-105186778D01*
X133644466Y-105270443D01*
X133474627Y-105321963D01*
X133408443Y-105328481D01*
X133342260Y-105335000D01*
X133103740Y-105335000D01*
X133037558Y-105328482D01*
X132971373Y-105321963D01*
X132801534Y-105270443D01*
X132645009Y-105186778D01*
X132609271Y-105157448D01*
X132507814Y-105074186D01*
X132404267Y-104948012D01*
X132395222Y-104936991D01*
X132311557Y-104780466D01*
X132260037Y-104610627D01*
X132242641Y-104434000D01*
X132260037Y-104257373D01*
X132311557Y-104087534D01*
X132395222Y-103931009D01*
X132424552Y-103895271D01*
X132507814Y-103793814D01*
X132609271Y-103710552D01*
X132645009Y-103681222D01*
X132801534Y-103597557D01*
X132971373Y-103546037D01*
X133037558Y-103539518D01*
X133103740Y-103533000D01*
X133342260Y-103533000D01*
X133408443Y-103539519D01*
X133408443Y-103539519D01*
G37*
G36*
X126296443Y-103539519D02*
G01*
X126362627Y-103546037D01*
X126532466Y-103597557D01*
X126688991Y-103681222D01*
X126724729Y-103710552D01*
X126826186Y-103793814D01*
X126909448Y-103895271D01*
X126938778Y-103931009D01*
X127022443Y-104087534D01*
X127073963Y-104257373D01*
X127091359Y-104434000D01*
X127073963Y-104610627D01*
X127022443Y-104780466D01*
X126938778Y-104936991D01*
X126929733Y-104948012D01*
X126826186Y-105074186D01*
X126724729Y-105157448D01*
X126688991Y-105186778D01*
X126532466Y-105270443D01*
X126362627Y-105321963D01*
X126296443Y-105328481D01*
X126230260Y-105335000D01*
X125991740Y-105335000D01*
X125925558Y-105328482D01*
X125859373Y-105321963D01*
X125689534Y-105270443D01*
X125533009Y-105186778D01*
X125497271Y-105157448D01*
X125395814Y-105074186D01*
X125292267Y-104948012D01*
X125283222Y-104936991D01*
X125199557Y-104780466D01*
X125148037Y-104610627D01*
X125130641Y-104434000D01*
X125148037Y-104257373D01*
X125199557Y-104087534D01*
X125283222Y-103931009D01*
X125312552Y-103895271D01*
X125395814Y-103793814D01*
X125497271Y-103710552D01*
X125533009Y-103681222D01*
X125689534Y-103597557D01*
X125859373Y-103546037D01*
X125925558Y-103539518D01*
X125991740Y-103533000D01*
X126230260Y-103533000D01*
X126296443Y-103539519D01*
X126296443Y-103539519D01*
G37*
G36*
X140520443Y-103539519D02*
G01*
X140586627Y-103546037D01*
X140756466Y-103597557D01*
X140912991Y-103681222D01*
X140948729Y-103710552D01*
X141050186Y-103793814D01*
X141133448Y-103895271D01*
X141162778Y-103931009D01*
X141246443Y-104087534D01*
X141297963Y-104257373D01*
X141315359Y-104434000D01*
X141297963Y-104610627D01*
X141246443Y-104780466D01*
X141162778Y-104936991D01*
X141153733Y-104948012D01*
X141050186Y-105074186D01*
X140948729Y-105157448D01*
X140912991Y-105186778D01*
X140756466Y-105270443D01*
X140586627Y-105321963D01*
X140520443Y-105328481D01*
X140454260Y-105335000D01*
X140215740Y-105335000D01*
X140149558Y-105328482D01*
X140083373Y-105321963D01*
X139913534Y-105270443D01*
X139757009Y-105186778D01*
X139721271Y-105157448D01*
X139619814Y-105074186D01*
X139516267Y-104948012D01*
X139507222Y-104936991D01*
X139423557Y-104780466D01*
X139372037Y-104610627D01*
X139354641Y-104434000D01*
X139372037Y-104257373D01*
X139423557Y-104087534D01*
X139507222Y-103931009D01*
X139536552Y-103895271D01*
X139619814Y-103793814D01*
X139721271Y-103710552D01*
X139757009Y-103681222D01*
X139913534Y-103597557D01*
X140083373Y-103546037D01*
X140149558Y-103539518D01*
X140215740Y-103533000D01*
X140454260Y-103533000D01*
X140520443Y-103539519D01*
X140520443Y-103539519D01*
G37*
G36*
X97546604Y-102456347D02*
G01*
X97583144Y-102467432D01*
X97616821Y-102485433D01*
X97646341Y-102509659D01*
X97670567Y-102539179D01*
X97688568Y-102572856D01*
X97699653Y-102609396D01*
X97704000Y-102653538D01*
X97704000Y-104102462D01*
X97699653Y-104146604D01*
X97688568Y-104183144D01*
X97670567Y-104216821D01*
X97646341Y-104246341D01*
X97616821Y-104270567D01*
X97583144Y-104288568D01*
X97546604Y-104299653D01*
X97502462Y-104304000D01*
X96553538Y-104304000D01*
X96509396Y-104299653D01*
X96472856Y-104288568D01*
X96439179Y-104270567D01*
X96409659Y-104246341D01*
X96385433Y-104216821D01*
X96367432Y-104183144D01*
X96356347Y-104146604D01*
X96352000Y-104102462D01*
X96352000Y-102653538D01*
X96356347Y-102609396D01*
X96367432Y-102572856D01*
X96385433Y-102539179D01*
X96409659Y-102509659D01*
X96439179Y-102485433D01*
X96472856Y-102467432D01*
X96509396Y-102456347D01*
X96553538Y-102452000D01*
X97502462Y-102452000D01*
X97546604Y-102456347D01*
X97546604Y-102456347D01*
G37*
G36*
X100346604Y-102456347D02*
G01*
X100383144Y-102467432D01*
X100416821Y-102485433D01*
X100446341Y-102509659D01*
X100470567Y-102539179D01*
X100488568Y-102572856D01*
X100499653Y-102609396D01*
X100504000Y-102653538D01*
X100504000Y-104102462D01*
X100499653Y-104146604D01*
X100488568Y-104183144D01*
X100470567Y-104216821D01*
X100446341Y-104246341D01*
X100416821Y-104270567D01*
X100383144Y-104288568D01*
X100346604Y-104299653D01*
X100302462Y-104304000D01*
X99353538Y-104304000D01*
X99309396Y-104299653D01*
X99272856Y-104288568D01*
X99239179Y-104270567D01*
X99209659Y-104246341D01*
X99185433Y-104216821D01*
X99167432Y-104183144D01*
X99156347Y-104146604D01*
X99152000Y-104102462D01*
X99152000Y-102653538D01*
X99156347Y-102609396D01*
X99167432Y-102572856D01*
X99185433Y-102539179D01*
X99209659Y-102509659D01*
X99239179Y-102485433D01*
X99272856Y-102467432D01*
X99309396Y-102456347D01*
X99353538Y-102452000D01*
X100302462Y-102452000D01*
X100346604Y-102456347D01*
X100346604Y-102456347D01*
G37*
G36*
X103388604Y-102456347D02*
G01*
X103425144Y-102467432D01*
X103458821Y-102485433D01*
X103488341Y-102509659D01*
X103512567Y-102539179D01*
X103530568Y-102572856D01*
X103541653Y-102609396D01*
X103546000Y-102653538D01*
X103546000Y-104102462D01*
X103541653Y-104146604D01*
X103530568Y-104183144D01*
X103512567Y-104216821D01*
X103488341Y-104246341D01*
X103458821Y-104270567D01*
X103425144Y-104288568D01*
X103388604Y-104299653D01*
X103344462Y-104304000D01*
X102395538Y-104304000D01*
X102351396Y-104299653D01*
X102314856Y-104288568D01*
X102281179Y-104270567D01*
X102251659Y-104246341D01*
X102227433Y-104216821D01*
X102209432Y-104183144D01*
X102198347Y-104146604D01*
X102194000Y-104102462D01*
X102194000Y-102653538D01*
X102198347Y-102609396D01*
X102209432Y-102572856D01*
X102227433Y-102539179D01*
X102251659Y-102509659D01*
X102281179Y-102485433D01*
X102314856Y-102467432D01*
X102351396Y-102456347D01*
X102395538Y-102452000D01*
X103344462Y-102452000D01*
X103388604Y-102456347D01*
X103388604Y-102456347D01*
G37*
G36*
X106188604Y-102456347D02*
G01*
X106225144Y-102467432D01*
X106258821Y-102485433D01*
X106288341Y-102509659D01*
X106312567Y-102539179D01*
X106330568Y-102572856D01*
X106341653Y-102609396D01*
X106346000Y-102653538D01*
X106346000Y-104102462D01*
X106341653Y-104146604D01*
X106330568Y-104183144D01*
X106312567Y-104216821D01*
X106288341Y-104246341D01*
X106258821Y-104270567D01*
X106225144Y-104288568D01*
X106188604Y-104299653D01*
X106144462Y-104304000D01*
X105195538Y-104304000D01*
X105151396Y-104299653D01*
X105114856Y-104288568D01*
X105081179Y-104270567D01*
X105051659Y-104246341D01*
X105027433Y-104216821D01*
X105009432Y-104183144D01*
X104998347Y-104146604D01*
X104994000Y-104102462D01*
X104994000Y-102653538D01*
X104998347Y-102609396D01*
X105009432Y-102572856D01*
X105027433Y-102539179D01*
X105051659Y-102509659D01*
X105081179Y-102485433D01*
X105114856Y-102467432D01*
X105151396Y-102456347D01*
X105195538Y-102452000D01*
X106144462Y-102452000D01*
X106188604Y-102456347D01*
X106188604Y-102456347D01*
G37*
G36*
X92230694Y-98139860D02*
G01*
X92496437Y-98192719D01*
X92997087Y-98400095D01*
X93177561Y-98520684D01*
X93447660Y-98701158D01*
X93830842Y-99084340D01*
X94011316Y-99354439D01*
X94131905Y-99534913D01*
X94131905Y-99534914D01*
X94339281Y-100035564D01*
X94445000Y-100567049D01*
X94445000Y-101108951D01*
X94430624Y-101181222D01*
X94339281Y-101640437D01*
X94131905Y-102141087D01*
X94038775Y-102280466D01*
X93830842Y-102591660D01*
X93447660Y-102974842D01*
X93303946Y-103070868D01*
X92997087Y-103275905D01*
X92496437Y-103483281D01*
X92246482Y-103533000D01*
X91964951Y-103589000D01*
X91423049Y-103589000D01*
X91141518Y-103533000D01*
X90891563Y-103483281D01*
X90390913Y-103275905D01*
X90084054Y-103070868D01*
X89940340Y-102974842D01*
X89557158Y-102591660D01*
X89349225Y-102280466D01*
X89256095Y-102141087D01*
X89048719Y-101640437D01*
X88957376Y-101181222D01*
X88943000Y-101108951D01*
X88943000Y-100567049D01*
X89048719Y-100035564D01*
X89256095Y-99534914D01*
X89256095Y-99534913D01*
X89376684Y-99354439D01*
X89557158Y-99084340D01*
X89940340Y-98701158D01*
X90210439Y-98520684D01*
X90390913Y-98400095D01*
X90891563Y-98192719D01*
X91157307Y-98139859D01*
X91423049Y-98087000D01*
X91964951Y-98087000D01*
X92230694Y-98139860D01*
X92230694Y-98139860D01*
G37*
G36*
X146586694Y-98139860D02*
G01*
X146852437Y-98192719D01*
X147353087Y-98400095D01*
X147533561Y-98520684D01*
X147803660Y-98701158D01*
X148186842Y-99084340D01*
X148367316Y-99354439D01*
X148487905Y-99534913D01*
X148487905Y-99534914D01*
X148695281Y-100035564D01*
X148801000Y-100567049D01*
X148801000Y-101108951D01*
X148786624Y-101181222D01*
X148695281Y-101640437D01*
X148487905Y-102141087D01*
X148394775Y-102280466D01*
X148186842Y-102591660D01*
X147803660Y-102974842D01*
X147659946Y-103070868D01*
X147353087Y-103275905D01*
X146852437Y-103483281D01*
X146602482Y-103533000D01*
X146320951Y-103589000D01*
X145779049Y-103589000D01*
X145497518Y-103533000D01*
X145247563Y-103483281D01*
X144746913Y-103275905D01*
X144440054Y-103070868D01*
X144296340Y-102974842D01*
X143913158Y-102591660D01*
X143705225Y-102280466D01*
X143612095Y-102141087D01*
X143404719Y-101640437D01*
X143313376Y-101181222D01*
X143299000Y-101108951D01*
X143299000Y-100567049D01*
X143404719Y-100035564D01*
X143612095Y-99534914D01*
X143612095Y-99534913D01*
X143732684Y-99354439D01*
X143913158Y-99084340D01*
X144296340Y-98701158D01*
X144566439Y-98520684D01*
X144746913Y-98400095D01*
X145247563Y-98192719D01*
X145513307Y-98139859D01*
X145779049Y-98087000D01*
X146320951Y-98087000D01*
X146586694Y-98139860D01*
X146586694Y-98139860D01*
G37*
G36*
X140520443Y-101039519D02*
G01*
X140586627Y-101046037D01*
X140756466Y-101097557D01*
X140912991Y-101181222D01*
X140948729Y-101210552D01*
X141050186Y-101293814D01*
X141133448Y-101395271D01*
X141162778Y-101431009D01*
X141246443Y-101587534D01*
X141297963Y-101757373D01*
X141315359Y-101934000D01*
X141297963Y-102110627D01*
X141246443Y-102280466D01*
X141162778Y-102436991D01*
X141133568Y-102472583D01*
X141050186Y-102574186D01*
X140953494Y-102653538D01*
X140912991Y-102686778D01*
X140756466Y-102770443D01*
X140586627Y-102821963D01*
X140520443Y-102828481D01*
X140454260Y-102835000D01*
X140215740Y-102835000D01*
X140149558Y-102828482D01*
X140083373Y-102821963D01*
X139913534Y-102770443D01*
X139757009Y-102686778D01*
X139716506Y-102653538D01*
X139619814Y-102574186D01*
X139536432Y-102472583D01*
X139507222Y-102436991D01*
X139423557Y-102280466D01*
X139372037Y-102110627D01*
X139354641Y-101934000D01*
X139372037Y-101757373D01*
X139423557Y-101587534D01*
X139507222Y-101431009D01*
X139536552Y-101395271D01*
X139619814Y-101293814D01*
X139721271Y-101210552D01*
X139757009Y-101181222D01*
X139913534Y-101097557D01*
X140083373Y-101046037D01*
X140149557Y-101039519D01*
X140215740Y-101033000D01*
X140454260Y-101033000D01*
X140520443Y-101039519D01*
X140520443Y-101039519D01*
G37*
G36*
X133408443Y-101039519D02*
G01*
X133474627Y-101046037D01*
X133644466Y-101097557D01*
X133800991Y-101181222D01*
X133836729Y-101210552D01*
X133938186Y-101293814D01*
X134021448Y-101395271D01*
X134050778Y-101431009D01*
X134134443Y-101587534D01*
X134185963Y-101757373D01*
X134203359Y-101934000D01*
X134185963Y-102110627D01*
X134134443Y-102280466D01*
X134050778Y-102436991D01*
X134021568Y-102472583D01*
X133938186Y-102574186D01*
X133841494Y-102653538D01*
X133800991Y-102686778D01*
X133644466Y-102770443D01*
X133474627Y-102821963D01*
X133408443Y-102828481D01*
X133342260Y-102835000D01*
X133103740Y-102835000D01*
X133037558Y-102828482D01*
X132971373Y-102821963D01*
X132801534Y-102770443D01*
X132645009Y-102686778D01*
X132604506Y-102653538D01*
X132507814Y-102574186D01*
X132424432Y-102472583D01*
X132395222Y-102436991D01*
X132311557Y-102280466D01*
X132260037Y-102110627D01*
X132242641Y-101934000D01*
X132260037Y-101757373D01*
X132311557Y-101587534D01*
X132395222Y-101431009D01*
X132424552Y-101395271D01*
X132507814Y-101293814D01*
X132609271Y-101210552D01*
X132645009Y-101181222D01*
X132801534Y-101097557D01*
X132971373Y-101046037D01*
X133037557Y-101039519D01*
X133103740Y-101033000D01*
X133342260Y-101033000D01*
X133408443Y-101039519D01*
X133408443Y-101039519D01*
G37*
G36*
X126296443Y-101039519D02*
G01*
X126362627Y-101046037D01*
X126532466Y-101097557D01*
X126688991Y-101181222D01*
X126724729Y-101210552D01*
X126826186Y-101293814D01*
X126909448Y-101395271D01*
X126938778Y-101431009D01*
X127022443Y-101587534D01*
X127073963Y-101757373D01*
X127091359Y-101934000D01*
X127073963Y-102110627D01*
X127022443Y-102280466D01*
X126938778Y-102436991D01*
X126909568Y-102472583D01*
X126826186Y-102574186D01*
X126729494Y-102653538D01*
X126688991Y-102686778D01*
X126532466Y-102770443D01*
X126362627Y-102821963D01*
X126296443Y-102828481D01*
X126230260Y-102835000D01*
X125991740Y-102835000D01*
X125925558Y-102828482D01*
X125859373Y-102821963D01*
X125689534Y-102770443D01*
X125533009Y-102686778D01*
X125492506Y-102653538D01*
X125395814Y-102574186D01*
X125312432Y-102472583D01*
X125283222Y-102436991D01*
X125199557Y-102280466D01*
X125148037Y-102110627D01*
X125130641Y-101934000D01*
X125148037Y-101757373D01*
X125199557Y-101587534D01*
X125283222Y-101431009D01*
X125312552Y-101395271D01*
X125395814Y-101293814D01*
X125497271Y-101210552D01*
X125533009Y-101181222D01*
X125689534Y-101097557D01*
X125859373Y-101046037D01*
X125925557Y-101039519D01*
X125991740Y-101033000D01*
X126230260Y-101033000D01*
X126296443Y-101039519D01*
X126296443Y-101039519D01*
G37*
M02*
