G04 #@! TF.GenerationSoftware,KiCad,Pcbnew,5.1.2-f72e74a~84~ubuntu18.04.1*
G04 #@! TF.CreationDate,2019-07-19T22:50:41+02:00*
G04 #@! TF.ProjectId,Axiface,41786966-6163-4652-9e6b-696361645f70,rev?*
G04 #@! TF.SameCoordinates,Original*
G04 #@! TF.FileFunction,Paste,Bot*
G04 #@! TF.FilePolarity,Positive*
%FSLAX46Y46*%
G04 Gerber Fmt 4.6, Leading zero omitted, Abs format (unit mm)*
G04 Created by KiCad (PCBNEW 5.1.2-f72e74a~84~ubuntu18.04.1) date 2019-07-19 22:50:41*
%MOMM*%
%LPD*%
G04 APERTURE LIST*
%ADD10C,0.100000*%
%ADD11C,1.250000*%
%ADD12R,2.000000X3.800000*%
%ADD13R,2.000000X1.500000*%
%ADD14C,0.600000*%
G04 APERTURE END LIST*
D10*
G36*
X104539504Y-102504204D02*
G01*
X104563773Y-102507804D01*
X104587571Y-102513765D01*
X104610671Y-102522030D01*
X104632849Y-102532520D01*
X104653893Y-102545133D01*
X104673598Y-102559747D01*
X104691777Y-102576223D01*
X104708253Y-102594402D01*
X104722867Y-102614107D01*
X104735480Y-102635151D01*
X104745970Y-102657329D01*
X104754235Y-102680429D01*
X104760196Y-102704227D01*
X104763796Y-102728496D01*
X104765000Y-102753000D01*
X104765000Y-104003000D01*
X104763796Y-104027504D01*
X104760196Y-104051773D01*
X104754235Y-104075571D01*
X104745970Y-104098671D01*
X104735480Y-104120849D01*
X104722867Y-104141893D01*
X104708253Y-104161598D01*
X104691777Y-104179777D01*
X104673598Y-104196253D01*
X104653893Y-104210867D01*
X104632849Y-104223480D01*
X104610671Y-104233970D01*
X104587571Y-104242235D01*
X104563773Y-104248196D01*
X104539504Y-104251796D01*
X104515000Y-104253000D01*
X103765000Y-104253000D01*
X103740496Y-104251796D01*
X103716227Y-104248196D01*
X103692429Y-104242235D01*
X103669329Y-104233970D01*
X103647151Y-104223480D01*
X103626107Y-104210867D01*
X103606402Y-104196253D01*
X103588223Y-104179777D01*
X103571747Y-104161598D01*
X103557133Y-104141893D01*
X103544520Y-104120849D01*
X103534030Y-104098671D01*
X103525765Y-104075571D01*
X103519804Y-104051773D01*
X103516204Y-104027504D01*
X103515000Y-104003000D01*
X103515000Y-102753000D01*
X103516204Y-102728496D01*
X103519804Y-102704227D01*
X103525765Y-102680429D01*
X103534030Y-102657329D01*
X103544520Y-102635151D01*
X103557133Y-102614107D01*
X103571747Y-102594402D01*
X103588223Y-102576223D01*
X103606402Y-102559747D01*
X103626107Y-102545133D01*
X103647151Y-102532520D01*
X103669329Y-102522030D01*
X103692429Y-102513765D01*
X103716227Y-102507804D01*
X103740496Y-102504204D01*
X103765000Y-102503000D01*
X104515000Y-102503000D01*
X104539504Y-102504204D01*
X104539504Y-102504204D01*
G37*
D11*
X104140000Y-103378000D03*
D10*
G36*
X107339504Y-102504204D02*
G01*
X107363773Y-102507804D01*
X107387571Y-102513765D01*
X107410671Y-102522030D01*
X107432849Y-102532520D01*
X107453893Y-102545133D01*
X107473598Y-102559747D01*
X107491777Y-102576223D01*
X107508253Y-102594402D01*
X107522867Y-102614107D01*
X107535480Y-102635151D01*
X107545970Y-102657329D01*
X107554235Y-102680429D01*
X107560196Y-102704227D01*
X107563796Y-102728496D01*
X107565000Y-102753000D01*
X107565000Y-104003000D01*
X107563796Y-104027504D01*
X107560196Y-104051773D01*
X107554235Y-104075571D01*
X107545970Y-104098671D01*
X107535480Y-104120849D01*
X107522867Y-104141893D01*
X107508253Y-104161598D01*
X107491777Y-104179777D01*
X107473598Y-104196253D01*
X107453893Y-104210867D01*
X107432849Y-104223480D01*
X107410671Y-104233970D01*
X107387571Y-104242235D01*
X107363773Y-104248196D01*
X107339504Y-104251796D01*
X107315000Y-104253000D01*
X106565000Y-104253000D01*
X106540496Y-104251796D01*
X106516227Y-104248196D01*
X106492429Y-104242235D01*
X106469329Y-104233970D01*
X106447151Y-104223480D01*
X106426107Y-104210867D01*
X106406402Y-104196253D01*
X106388223Y-104179777D01*
X106371747Y-104161598D01*
X106357133Y-104141893D01*
X106344520Y-104120849D01*
X106334030Y-104098671D01*
X106325765Y-104075571D01*
X106319804Y-104051773D01*
X106316204Y-104027504D01*
X106315000Y-104003000D01*
X106315000Y-102753000D01*
X106316204Y-102728496D01*
X106319804Y-102704227D01*
X106325765Y-102680429D01*
X106334030Y-102657329D01*
X106344520Y-102635151D01*
X106357133Y-102614107D01*
X106371747Y-102594402D01*
X106388223Y-102576223D01*
X106406402Y-102559747D01*
X106426107Y-102545133D01*
X106447151Y-102532520D01*
X106469329Y-102522030D01*
X106492429Y-102513765D01*
X106516227Y-102507804D01*
X106540496Y-102504204D01*
X106565000Y-102503000D01*
X107315000Y-102503000D01*
X107339504Y-102504204D01*
X107339504Y-102504204D01*
G37*
D11*
X106940000Y-103378000D03*
D10*
G36*
X97169504Y-116854204D02*
G01*
X97193773Y-116857804D01*
X97217571Y-116863765D01*
X97240671Y-116872030D01*
X97262849Y-116882520D01*
X97283893Y-116895133D01*
X97303598Y-116909747D01*
X97321777Y-116926223D01*
X97338253Y-116944402D01*
X97352867Y-116964107D01*
X97365480Y-116985151D01*
X97375970Y-117007329D01*
X97384235Y-117030429D01*
X97390196Y-117054227D01*
X97393796Y-117078496D01*
X97395000Y-117103000D01*
X97395000Y-117853000D01*
X97393796Y-117877504D01*
X97390196Y-117901773D01*
X97384235Y-117925571D01*
X97375970Y-117948671D01*
X97365480Y-117970849D01*
X97352867Y-117991893D01*
X97338253Y-118011598D01*
X97321777Y-118029777D01*
X97303598Y-118046253D01*
X97283893Y-118060867D01*
X97262849Y-118073480D01*
X97240671Y-118083970D01*
X97217571Y-118092235D01*
X97193773Y-118098196D01*
X97169504Y-118101796D01*
X97145000Y-118103000D01*
X95895000Y-118103000D01*
X95870496Y-118101796D01*
X95846227Y-118098196D01*
X95822429Y-118092235D01*
X95799329Y-118083970D01*
X95777151Y-118073480D01*
X95756107Y-118060867D01*
X95736402Y-118046253D01*
X95718223Y-118029777D01*
X95701747Y-118011598D01*
X95687133Y-117991893D01*
X95674520Y-117970849D01*
X95664030Y-117948671D01*
X95655765Y-117925571D01*
X95649804Y-117901773D01*
X95646204Y-117877504D01*
X95645000Y-117853000D01*
X95645000Y-117103000D01*
X95646204Y-117078496D01*
X95649804Y-117054227D01*
X95655765Y-117030429D01*
X95664030Y-117007329D01*
X95674520Y-116985151D01*
X95687133Y-116964107D01*
X95701747Y-116944402D01*
X95718223Y-116926223D01*
X95736402Y-116909747D01*
X95756107Y-116895133D01*
X95777151Y-116882520D01*
X95799329Y-116872030D01*
X95822429Y-116863765D01*
X95846227Y-116857804D01*
X95870496Y-116854204D01*
X95895000Y-116853000D01*
X97145000Y-116853000D01*
X97169504Y-116854204D01*
X97169504Y-116854204D01*
G37*
D11*
X96520000Y-117478000D03*
D10*
G36*
X97169504Y-114054204D02*
G01*
X97193773Y-114057804D01*
X97217571Y-114063765D01*
X97240671Y-114072030D01*
X97262849Y-114082520D01*
X97283893Y-114095133D01*
X97303598Y-114109747D01*
X97321777Y-114126223D01*
X97338253Y-114144402D01*
X97352867Y-114164107D01*
X97365480Y-114185151D01*
X97375970Y-114207329D01*
X97384235Y-114230429D01*
X97390196Y-114254227D01*
X97393796Y-114278496D01*
X97395000Y-114303000D01*
X97395000Y-115053000D01*
X97393796Y-115077504D01*
X97390196Y-115101773D01*
X97384235Y-115125571D01*
X97375970Y-115148671D01*
X97365480Y-115170849D01*
X97352867Y-115191893D01*
X97338253Y-115211598D01*
X97321777Y-115229777D01*
X97303598Y-115246253D01*
X97283893Y-115260867D01*
X97262849Y-115273480D01*
X97240671Y-115283970D01*
X97217571Y-115292235D01*
X97193773Y-115298196D01*
X97169504Y-115301796D01*
X97145000Y-115303000D01*
X95895000Y-115303000D01*
X95870496Y-115301796D01*
X95846227Y-115298196D01*
X95822429Y-115292235D01*
X95799329Y-115283970D01*
X95777151Y-115273480D01*
X95756107Y-115260867D01*
X95736402Y-115246253D01*
X95718223Y-115229777D01*
X95701747Y-115211598D01*
X95687133Y-115191893D01*
X95674520Y-115170849D01*
X95664030Y-115148671D01*
X95655765Y-115125571D01*
X95649804Y-115101773D01*
X95646204Y-115077504D01*
X95645000Y-115053000D01*
X95645000Y-114303000D01*
X95646204Y-114278496D01*
X95649804Y-114254227D01*
X95655765Y-114230429D01*
X95664030Y-114207329D01*
X95674520Y-114185151D01*
X95687133Y-114164107D01*
X95701747Y-114144402D01*
X95718223Y-114126223D01*
X95736402Y-114109747D01*
X95756107Y-114095133D01*
X95777151Y-114082520D01*
X95799329Y-114072030D01*
X95822429Y-114063765D01*
X95846227Y-114057804D01*
X95870496Y-114054204D01*
X95895000Y-114053000D01*
X97145000Y-114053000D01*
X97169504Y-114054204D01*
X97169504Y-114054204D01*
G37*
D11*
X96520000Y-114678000D03*
D10*
G36*
X112159504Y-112918204D02*
G01*
X112183773Y-112921804D01*
X112207571Y-112927765D01*
X112230671Y-112936030D01*
X112252849Y-112946520D01*
X112273893Y-112959133D01*
X112293598Y-112973747D01*
X112311777Y-112990223D01*
X112328253Y-113008402D01*
X112342867Y-113028107D01*
X112355480Y-113049151D01*
X112365970Y-113071329D01*
X112374235Y-113094429D01*
X112380196Y-113118227D01*
X112383796Y-113142496D01*
X112385000Y-113167000D01*
X112385000Y-114417000D01*
X112383796Y-114441504D01*
X112380196Y-114465773D01*
X112374235Y-114489571D01*
X112365970Y-114512671D01*
X112355480Y-114534849D01*
X112342867Y-114555893D01*
X112328253Y-114575598D01*
X112311777Y-114593777D01*
X112293598Y-114610253D01*
X112273893Y-114624867D01*
X112252849Y-114637480D01*
X112230671Y-114647970D01*
X112207571Y-114656235D01*
X112183773Y-114662196D01*
X112159504Y-114665796D01*
X112135000Y-114667000D01*
X111385000Y-114667000D01*
X111360496Y-114665796D01*
X111336227Y-114662196D01*
X111312429Y-114656235D01*
X111289329Y-114647970D01*
X111267151Y-114637480D01*
X111246107Y-114624867D01*
X111226402Y-114610253D01*
X111208223Y-114593777D01*
X111191747Y-114575598D01*
X111177133Y-114555893D01*
X111164520Y-114534849D01*
X111154030Y-114512671D01*
X111145765Y-114489571D01*
X111139804Y-114465773D01*
X111136204Y-114441504D01*
X111135000Y-114417000D01*
X111135000Y-113167000D01*
X111136204Y-113142496D01*
X111139804Y-113118227D01*
X111145765Y-113094429D01*
X111154030Y-113071329D01*
X111164520Y-113049151D01*
X111177133Y-113028107D01*
X111191747Y-113008402D01*
X111208223Y-112990223D01*
X111226402Y-112973747D01*
X111246107Y-112959133D01*
X111267151Y-112946520D01*
X111289329Y-112936030D01*
X111312429Y-112927765D01*
X111336227Y-112921804D01*
X111360496Y-112918204D01*
X111385000Y-112917000D01*
X112135000Y-112917000D01*
X112159504Y-112918204D01*
X112159504Y-112918204D01*
G37*
D11*
X111760000Y-113792000D03*
D10*
G36*
X109359504Y-112918204D02*
G01*
X109383773Y-112921804D01*
X109407571Y-112927765D01*
X109430671Y-112936030D01*
X109452849Y-112946520D01*
X109473893Y-112959133D01*
X109493598Y-112973747D01*
X109511777Y-112990223D01*
X109528253Y-113008402D01*
X109542867Y-113028107D01*
X109555480Y-113049151D01*
X109565970Y-113071329D01*
X109574235Y-113094429D01*
X109580196Y-113118227D01*
X109583796Y-113142496D01*
X109585000Y-113167000D01*
X109585000Y-114417000D01*
X109583796Y-114441504D01*
X109580196Y-114465773D01*
X109574235Y-114489571D01*
X109565970Y-114512671D01*
X109555480Y-114534849D01*
X109542867Y-114555893D01*
X109528253Y-114575598D01*
X109511777Y-114593777D01*
X109493598Y-114610253D01*
X109473893Y-114624867D01*
X109452849Y-114637480D01*
X109430671Y-114647970D01*
X109407571Y-114656235D01*
X109383773Y-114662196D01*
X109359504Y-114665796D01*
X109335000Y-114667000D01*
X108585000Y-114667000D01*
X108560496Y-114665796D01*
X108536227Y-114662196D01*
X108512429Y-114656235D01*
X108489329Y-114647970D01*
X108467151Y-114637480D01*
X108446107Y-114624867D01*
X108426402Y-114610253D01*
X108408223Y-114593777D01*
X108391747Y-114575598D01*
X108377133Y-114555893D01*
X108364520Y-114534849D01*
X108354030Y-114512671D01*
X108345765Y-114489571D01*
X108339804Y-114465773D01*
X108336204Y-114441504D01*
X108335000Y-114417000D01*
X108335000Y-113167000D01*
X108336204Y-113142496D01*
X108339804Y-113118227D01*
X108345765Y-113094429D01*
X108354030Y-113071329D01*
X108364520Y-113049151D01*
X108377133Y-113028107D01*
X108391747Y-113008402D01*
X108408223Y-112990223D01*
X108426402Y-112973747D01*
X108446107Y-112959133D01*
X108467151Y-112946520D01*
X108489329Y-112936030D01*
X108512429Y-112927765D01*
X108536227Y-112921804D01*
X108560496Y-112918204D01*
X108585000Y-112917000D01*
X109335000Y-112917000D01*
X109359504Y-112918204D01*
X109359504Y-112918204D01*
G37*
D11*
X108960000Y-113792000D03*
D12*
X97790000Y-108814000D03*
D13*
X104090000Y-108814000D03*
X104090000Y-111114000D03*
X104090000Y-106514000D03*
D10*
G36*
X109503703Y-117302722D02*
G01*
X109518264Y-117304882D01*
X109532543Y-117308459D01*
X109546403Y-117313418D01*
X109559710Y-117319712D01*
X109572336Y-117327280D01*
X109584159Y-117336048D01*
X109595066Y-117345934D01*
X109604952Y-117356841D01*
X109613720Y-117368664D01*
X109621288Y-117381290D01*
X109627582Y-117394597D01*
X109632541Y-117408457D01*
X109636118Y-117422736D01*
X109638278Y-117437297D01*
X109639000Y-117452000D01*
X109639000Y-117752000D01*
X109638278Y-117766703D01*
X109636118Y-117781264D01*
X109632541Y-117795543D01*
X109627582Y-117809403D01*
X109621288Y-117822710D01*
X109613720Y-117835336D01*
X109604952Y-117847159D01*
X109595066Y-117858066D01*
X109584159Y-117867952D01*
X109572336Y-117876720D01*
X109559710Y-117884288D01*
X109546403Y-117890582D01*
X109532543Y-117895541D01*
X109518264Y-117899118D01*
X109503703Y-117901278D01*
X109489000Y-117902000D01*
X107739000Y-117902000D01*
X107724297Y-117901278D01*
X107709736Y-117899118D01*
X107695457Y-117895541D01*
X107681597Y-117890582D01*
X107668290Y-117884288D01*
X107655664Y-117876720D01*
X107643841Y-117867952D01*
X107632934Y-117858066D01*
X107623048Y-117847159D01*
X107614280Y-117835336D01*
X107606712Y-117822710D01*
X107600418Y-117809403D01*
X107595459Y-117795543D01*
X107591882Y-117781264D01*
X107589722Y-117766703D01*
X107589000Y-117752000D01*
X107589000Y-117452000D01*
X107589722Y-117437297D01*
X107591882Y-117422736D01*
X107595459Y-117408457D01*
X107600418Y-117394597D01*
X107606712Y-117381290D01*
X107614280Y-117368664D01*
X107623048Y-117356841D01*
X107632934Y-117345934D01*
X107643841Y-117336048D01*
X107655664Y-117327280D01*
X107668290Y-117319712D01*
X107681597Y-117313418D01*
X107695457Y-117308459D01*
X107709736Y-117304882D01*
X107724297Y-117302722D01*
X107739000Y-117302000D01*
X109489000Y-117302000D01*
X109503703Y-117302722D01*
X109503703Y-117302722D01*
G37*
D14*
X108614000Y-117602000D03*
D10*
G36*
X109503703Y-118572722D02*
G01*
X109518264Y-118574882D01*
X109532543Y-118578459D01*
X109546403Y-118583418D01*
X109559710Y-118589712D01*
X109572336Y-118597280D01*
X109584159Y-118606048D01*
X109595066Y-118615934D01*
X109604952Y-118626841D01*
X109613720Y-118638664D01*
X109621288Y-118651290D01*
X109627582Y-118664597D01*
X109632541Y-118678457D01*
X109636118Y-118692736D01*
X109638278Y-118707297D01*
X109639000Y-118722000D01*
X109639000Y-119022000D01*
X109638278Y-119036703D01*
X109636118Y-119051264D01*
X109632541Y-119065543D01*
X109627582Y-119079403D01*
X109621288Y-119092710D01*
X109613720Y-119105336D01*
X109604952Y-119117159D01*
X109595066Y-119128066D01*
X109584159Y-119137952D01*
X109572336Y-119146720D01*
X109559710Y-119154288D01*
X109546403Y-119160582D01*
X109532543Y-119165541D01*
X109518264Y-119169118D01*
X109503703Y-119171278D01*
X109489000Y-119172000D01*
X107739000Y-119172000D01*
X107724297Y-119171278D01*
X107709736Y-119169118D01*
X107695457Y-119165541D01*
X107681597Y-119160582D01*
X107668290Y-119154288D01*
X107655664Y-119146720D01*
X107643841Y-119137952D01*
X107632934Y-119128066D01*
X107623048Y-119117159D01*
X107614280Y-119105336D01*
X107606712Y-119092710D01*
X107600418Y-119079403D01*
X107595459Y-119065543D01*
X107591882Y-119051264D01*
X107589722Y-119036703D01*
X107589000Y-119022000D01*
X107589000Y-118722000D01*
X107589722Y-118707297D01*
X107591882Y-118692736D01*
X107595459Y-118678457D01*
X107600418Y-118664597D01*
X107606712Y-118651290D01*
X107614280Y-118638664D01*
X107623048Y-118626841D01*
X107632934Y-118615934D01*
X107643841Y-118606048D01*
X107655664Y-118597280D01*
X107668290Y-118589712D01*
X107681597Y-118583418D01*
X107695457Y-118578459D01*
X107709736Y-118574882D01*
X107724297Y-118572722D01*
X107739000Y-118572000D01*
X109489000Y-118572000D01*
X109503703Y-118572722D01*
X109503703Y-118572722D01*
G37*
D14*
X108614000Y-118872000D03*
D10*
G36*
X109503703Y-119842722D02*
G01*
X109518264Y-119844882D01*
X109532543Y-119848459D01*
X109546403Y-119853418D01*
X109559710Y-119859712D01*
X109572336Y-119867280D01*
X109584159Y-119876048D01*
X109595066Y-119885934D01*
X109604952Y-119896841D01*
X109613720Y-119908664D01*
X109621288Y-119921290D01*
X109627582Y-119934597D01*
X109632541Y-119948457D01*
X109636118Y-119962736D01*
X109638278Y-119977297D01*
X109639000Y-119992000D01*
X109639000Y-120292000D01*
X109638278Y-120306703D01*
X109636118Y-120321264D01*
X109632541Y-120335543D01*
X109627582Y-120349403D01*
X109621288Y-120362710D01*
X109613720Y-120375336D01*
X109604952Y-120387159D01*
X109595066Y-120398066D01*
X109584159Y-120407952D01*
X109572336Y-120416720D01*
X109559710Y-120424288D01*
X109546403Y-120430582D01*
X109532543Y-120435541D01*
X109518264Y-120439118D01*
X109503703Y-120441278D01*
X109489000Y-120442000D01*
X107739000Y-120442000D01*
X107724297Y-120441278D01*
X107709736Y-120439118D01*
X107695457Y-120435541D01*
X107681597Y-120430582D01*
X107668290Y-120424288D01*
X107655664Y-120416720D01*
X107643841Y-120407952D01*
X107632934Y-120398066D01*
X107623048Y-120387159D01*
X107614280Y-120375336D01*
X107606712Y-120362710D01*
X107600418Y-120349403D01*
X107595459Y-120335543D01*
X107591882Y-120321264D01*
X107589722Y-120306703D01*
X107589000Y-120292000D01*
X107589000Y-119992000D01*
X107589722Y-119977297D01*
X107591882Y-119962736D01*
X107595459Y-119948457D01*
X107600418Y-119934597D01*
X107606712Y-119921290D01*
X107614280Y-119908664D01*
X107623048Y-119896841D01*
X107632934Y-119885934D01*
X107643841Y-119876048D01*
X107655664Y-119867280D01*
X107668290Y-119859712D01*
X107681597Y-119853418D01*
X107695457Y-119848459D01*
X107709736Y-119844882D01*
X107724297Y-119842722D01*
X107739000Y-119842000D01*
X109489000Y-119842000D01*
X109503703Y-119842722D01*
X109503703Y-119842722D01*
G37*
D14*
X108614000Y-120142000D03*
D10*
G36*
X109503703Y-121112722D02*
G01*
X109518264Y-121114882D01*
X109532543Y-121118459D01*
X109546403Y-121123418D01*
X109559710Y-121129712D01*
X109572336Y-121137280D01*
X109584159Y-121146048D01*
X109595066Y-121155934D01*
X109604952Y-121166841D01*
X109613720Y-121178664D01*
X109621288Y-121191290D01*
X109627582Y-121204597D01*
X109632541Y-121218457D01*
X109636118Y-121232736D01*
X109638278Y-121247297D01*
X109639000Y-121262000D01*
X109639000Y-121562000D01*
X109638278Y-121576703D01*
X109636118Y-121591264D01*
X109632541Y-121605543D01*
X109627582Y-121619403D01*
X109621288Y-121632710D01*
X109613720Y-121645336D01*
X109604952Y-121657159D01*
X109595066Y-121668066D01*
X109584159Y-121677952D01*
X109572336Y-121686720D01*
X109559710Y-121694288D01*
X109546403Y-121700582D01*
X109532543Y-121705541D01*
X109518264Y-121709118D01*
X109503703Y-121711278D01*
X109489000Y-121712000D01*
X107739000Y-121712000D01*
X107724297Y-121711278D01*
X107709736Y-121709118D01*
X107695457Y-121705541D01*
X107681597Y-121700582D01*
X107668290Y-121694288D01*
X107655664Y-121686720D01*
X107643841Y-121677952D01*
X107632934Y-121668066D01*
X107623048Y-121657159D01*
X107614280Y-121645336D01*
X107606712Y-121632710D01*
X107600418Y-121619403D01*
X107595459Y-121605543D01*
X107591882Y-121591264D01*
X107589722Y-121576703D01*
X107589000Y-121562000D01*
X107589000Y-121262000D01*
X107589722Y-121247297D01*
X107591882Y-121232736D01*
X107595459Y-121218457D01*
X107600418Y-121204597D01*
X107606712Y-121191290D01*
X107614280Y-121178664D01*
X107623048Y-121166841D01*
X107632934Y-121155934D01*
X107643841Y-121146048D01*
X107655664Y-121137280D01*
X107668290Y-121129712D01*
X107681597Y-121123418D01*
X107695457Y-121118459D01*
X107709736Y-121114882D01*
X107724297Y-121112722D01*
X107739000Y-121112000D01*
X109489000Y-121112000D01*
X109503703Y-121112722D01*
X109503703Y-121112722D01*
G37*
D14*
X108614000Y-121412000D03*
D10*
G36*
X109503703Y-122382722D02*
G01*
X109518264Y-122384882D01*
X109532543Y-122388459D01*
X109546403Y-122393418D01*
X109559710Y-122399712D01*
X109572336Y-122407280D01*
X109584159Y-122416048D01*
X109595066Y-122425934D01*
X109604952Y-122436841D01*
X109613720Y-122448664D01*
X109621288Y-122461290D01*
X109627582Y-122474597D01*
X109632541Y-122488457D01*
X109636118Y-122502736D01*
X109638278Y-122517297D01*
X109639000Y-122532000D01*
X109639000Y-122832000D01*
X109638278Y-122846703D01*
X109636118Y-122861264D01*
X109632541Y-122875543D01*
X109627582Y-122889403D01*
X109621288Y-122902710D01*
X109613720Y-122915336D01*
X109604952Y-122927159D01*
X109595066Y-122938066D01*
X109584159Y-122947952D01*
X109572336Y-122956720D01*
X109559710Y-122964288D01*
X109546403Y-122970582D01*
X109532543Y-122975541D01*
X109518264Y-122979118D01*
X109503703Y-122981278D01*
X109489000Y-122982000D01*
X107739000Y-122982000D01*
X107724297Y-122981278D01*
X107709736Y-122979118D01*
X107695457Y-122975541D01*
X107681597Y-122970582D01*
X107668290Y-122964288D01*
X107655664Y-122956720D01*
X107643841Y-122947952D01*
X107632934Y-122938066D01*
X107623048Y-122927159D01*
X107614280Y-122915336D01*
X107606712Y-122902710D01*
X107600418Y-122889403D01*
X107595459Y-122875543D01*
X107591882Y-122861264D01*
X107589722Y-122846703D01*
X107589000Y-122832000D01*
X107589000Y-122532000D01*
X107589722Y-122517297D01*
X107591882Y-122502736D01*
X107595459Y-122488457D01*
X107600418Y-122474597D01*
X107606712Y-122461290D01*
X107614280Y-122448664D01*
X107623048Y-122436841D01*
X107632934Y-122425934D01*
X107643841Y-122416048D01*
X107655664Y-122407280D01*
X107668290Y-122399712D01*
X107681597Y-122393418D01*
X107695457Y-122388459D01*
X107709736Y-122384882D01*
X107724297Y-122382722D01*
X107739000Y-122382000D01*
X109489000Y-122382000D01*
X109503703Y-122382722D01*
X109503703Y-122382722D01*
G37*
D14*
X108614000Y-122682000D03*
D10*
G36*
X109503703Y-123652722D02*
G01*
X109518264Y-123654882D01*
X109532543Y-123658459D01*
X109546403Y-123663418D01*
X109559710Y-123669712D01*
X109572336Y-123677280D01*
X109584159Y-123686048D01*
X109595066Y-123695934D01*
X109604952Y-123706841D01*
X109613720Y-123718664D01*
X109621288Y-123731290D01*
X109627582Y-123744597D01*
X109632541Y-123758457D01*
X109636118Y-123772736D01*
X109638278Y-123787297D01*
X109639000Y-123802000D01*
X109639000Y-124102000D01*
X109638278Y-124116703D01*
X109636118Y-124131264D01*
X109632541Y-124145543D01*
X109627582Y-124159403D01*
X109621288Y-124172710D01*
X109613720Y-124185336D01*
X109604952Y-124197159D01*
X109595066Y-124208066D01*
X109584159Y-124217952D01*
X109572336Y-124226720D01*
X109559710Y-124234288D01*
X109546403Y-124240582D01*
X109532543Y-124245541D01*
X109518264Y-124249118D01*
X109503703Y-124251278D01*
X109489000Y-124252000D01*
X107739000Y-124252000D01*
X107724297Y-124251278D01*
X107709736Y-124249118D01*
X107695457Y-124245541D01*
X107681597Y-124240582D01*
X107668290Y-124234288D01*
X107655664Y-124226720D01*
X107643841Y-124217952D01*
X107632934Y-124208066D01*
X107623048Y-124197159D01*
X107614280Y-124185336D01*
X107606712Y-124172710D01*
X107600418Y-124159403D01*
X107595459Y-124145543D01*
X107591882Y-124131264D01*
X107589722Y-124116703D01*
X107589000Y-124102000D01*
X107589000Y-123802000D01*
X107589722Y-123787297D01*
X107591882Y-123772736D01*
X107595459Y-123758457D01*
X107600418Y-123744597D01*
X107606712Y-123731290D01*
X107614280Y-123718664D01*
X107623048Y-123706841D01*
X107632934Y-123695934D01*
X107643841Y-123686048D01*
X107655664Y-123677280D01*
X107668290Y-123669712D01*
X107681597Y-123663418D01*
X107695457Y-123658459D01*
X107709736Y-123654882D01*
X107724297Y-123652722D01*
X107739000Y-123652000D01*
X109489000Y-123652000D01*
X109503703Y-123652722D01*
X109503703Y-123652722D01*
G37*
D14*
X108614000Y-123952000D03*
D10*
G36*
X109503703Y-124922722D02*
G01*
X109518264Y-124924882D01*
X109532543Y-124928459D01*
X109546403Y-124933418D01*
X109559710Y-124939712D01*
X109572336Y-124947280D01*
X109584159Y-124956048D01*
X109595066Y-124965934D01*
X109604952Y-124976841D01*
X109613720Y-124988664D01*
X109621288Y-125001290D01*
X109627582Y-125014597D01*
X109632541Y-125028457D01*
X109636118Y-125042736D01*
X109638278Y-125057297D01*
X109639000Y-125072000D01*
X109639000Y-125372000D01*
X109638278Y-125386703D01*
X109636118Y-125401264D01*
X109632541Y-125415543D01*
X109627582Y-125429403D01*
X109621288Y-125442710D01*
X109613720Y-125455336D01*
X109604952Y-125467159D01*
X109595066Y-125478066D01*
X109584159Y-125487952D01*
X109572336Y-125496720D01*
X109559710Y-125504288D01*
X109546403Y-125510582D01*
X109532543Y-125515541D01*
X109518264Y-125519118D01*
X109503703Y-125521278D01*
X109489000Y-125522000D01*
X107739000Y-125522000D01*
X107724297Y-125521278D01*
X107709736Y-125519118D01*
X107695457Y-125515541D01*
X107681597Y-125510582D01*
X107668290Y-125504288D01*
X107655664Y-125496720D01*
X107643841Y-125487952D01*
X107632934Y-125478066D01*
X107623048Y-125467159D01*
X107614280Y-125455336D01*
X107606712Y-125442710D01*
X107600418Y-125429403D01*
X107595459Y-125415543D01*
X107591882Y-125401264D01*
X107589722Y-125386703D01*
X107589000Y-125372000D01*
X107589000Y-125072000D01*
X107589722Y-125057297D01*
X107591882Y-125042736D01*
X107595459Y-125028457D01*
X107600418Y-125014597D01*
X107606712Y-125001290D01*
X107614280Y-124988664D01*
X107623048Y-124976841D01*
X107632934Y-124965934D01*
X107643841Y-124956048D01*
X107655664Y-124947280D01*
X107668290Y-124939712D01*
X107681597Y-124933418D01*
X107695457Y-124928459D01*
X107709736Y-124924882D01*
X107724297Y-124922722D01*
X107739000Y-124922000D01*
X109489000Y-124922000D01*
X109503703Y-124922722D01*
X109503703Y-124922722D01*
G37*
D14*
X108614000Y-125222000D03*
D10*
G36*
X109503703Y-126192722D02*
G01*
X109518264Y-126194882D01*
X109532543Y-126198459D01*
X109546403Y-126203418D01*
X109559710Y-126209712D01*
X109572336Y-126217280D01*
X109584159Y-126226048D01*
X109595066Y-126235934D01*
X109604952Y-126246841D01*
X109613720Y-126258664D01*
X109621288Y-126271290D01*
X109627582Y-126284597D01*
X109632541Y-126298457D01*
X109636118Y-126312736D01*
X109638278Y-126327297D01*
X109639000Y-126342000D01*
X109639000Y-126642000D01*
X109638278Y-126656703D01*
X109636118Y-126671264D01*
X109632541Y-126685543D01*
X109627582Y-126699403D01*
X109621288Y-126712710D01*
X109613720Y-126725336D01*
X109604952Y-126737159D01*
X109595066Y-126748066D01*
X109584159Y-126757952D01*
X109572336Y-126766720D01*
X109559710Y-126774288D01*
X109546403Y-126780582D01*
X109532543Y-126785541D01*
X109518264Y-126789118D01*
X109503703Y-126791278D01*
X109489000Y-126792000D01*
X107739000Y-126792000D01*
X107724297Y-126791278D01*
X107709736Y-126789118D01*
X107695457Y-126785541D01*
X107681597Y-126780582D01*
X107668290Y-126774288D01*
X107655664Y-126766720D01*
X107643841Y-126757952D01*
X107632934Y-126748066D01*
X107623048Y-126737159D01*
X107614280Y-126725336D01*
X107606712Y-126712710D01*
X107600418Y-126699403D01*
X107595459Y-126685543D01*
X107591882Y-126671264D01*
X107589722Y-126656703D01*
X107589000Y-126642000D01*
X107589000Y-126342000D01*
X107589722Y-126327297D01*
X107591882Y-126312736D01*
X107595459Y-126298457D01*
X107600418Y-126284597D01*
X107606712Y-126271290D01*
X107614280Y-126258664D01*
X107623048Y-126246841D01*
X107632934Y-126235934D01*
X107643841Y-126226048D01*
X107655664Y-126217280D01*
X107668290Y-126209712D01*
X107681597Y-126203418D01*
X107695457Y-126198459D01*
X107709736Y-126194882D01*
X107724297Y-126192722D01*
X107739000Y-126192000D01*
X109489000Y-126192000D01*
X109503703Y-126192722D01*
X109503703Y-126192722D01*
G37*
D14*
X108614000Y-126492000D03*
D10*
G36*
X109503703Y-127462722D02*
G01*
X109518264Y-127464882D01*
X109532543Y-127468459D01*
X109546403Y-127473418D01*
X109559710Y-127479712D01*
X109572336Y-127487280D01*
X109584159Y-127496048D01*
X109595066Y-127505934D01*
X109604952Y-127516841D01*
X109613720Y-127528664D01*
X109621288Y-127541290D01*
X109627582Y-127554597D01*
X109632541Y-127568457D01*
X109636118Y-127582736D01*
X109638278Y-127597297D01*
X109639000Y-127612000D01*
X109639000Y-127912000D01*
X109638278Y-127926703D01*
X109636118Y-127941264D01*
X109632541Y-127955543D01*
X109627582Y-127969403D01*
X109621288Y-127982710D01*
X109613720Y-127995336D01*
X109604952Y-128007159D01*
X109595066Y-128018066D01*
X109584159Y-128027952D01*
X109572336Y-128036720D01*
X109559710Y-128044288D01*
X109546403Y-128050582D01*
X109532543Y-128055541D01*
X109518264Y-128059118D01*
X109503703Y-128061278D01*
X109489000Y-128062000D01*
X107739000Y-128062000D01*
X107724297Y-128061278D01*
X107709736Y-128059118D01*
X107695457Y-128055541D01*
X107681597Y-128050582D01*
X107668290Y-128044288D01*
X107655664Y-128036720D01*
X107643841Y-128027952D01*
X107632934Y-128018066D01*
X107623048Y-128007159D01*
X107614280Y-127995336D01*
X107606712Y-127982710D01*
X107600418Y-127969403D01*
X107595459Y-127955543D01*
X107591882Y-127941264D01*
X107589722Y-127926703D01*
X107589000Y-127912000D01*
X107589000Y-127612000D01*
X107589722Y-127597297D01*
X107591882Y-127582736D01*
X107595459Y-127568457D01*
X107600418Y-127554597D01*
X107606712Y-127541290D01*
X107614280Y-127528664D01*
X107623048Y-127516841D01*
X107632934Y-127505934D01*
X107643841Y-127496048D01*
X107655664Y-127487280D01*
X107668290Y-127479712D01*
X107681597Y-127473418D01*
X107695457Y-127468459D01*
X107709736Y-127464882D01*
X107724297Y-127462722D01*
X107739000Y-127462000D01*
X109489000Y-127462000D01*
X109503703Y-127462722D01*
X109503703Y-127462722D01*
G37*
D14*
X108614000Y-127762000D03*
D10*
G36*
X109503703Y-128732722D02*
G01*
X109518264Y-128734882D01*
X109532543Y-128738459D01*
X109546403Y-128743418D01*
X109559710Y-128749712D01*
X109572336Y-128757280D01*
X109584159Y-128766048D01*
X109595066Y-128775934D01*
X109604952Y-128786841D01*
X109613720Y-128798664D01*
X109621288Y-128811290D01*
X109627582Y-128824597D01*
X109632541Y-128838457D01*
X109636118Y-128852736D01*
X109638278Y-128867297D01*
X109639000Y-128882000D01*
X109639000Y-129182000D01*
X109638278Y-129196703D01*
X109636118Y-129211264D01*
X109632541Y-129225543D01*
X109627582Y-129239403D01*
X109621288Y-129252710D01*
X109613720Y-129265336D01*
X109604952Y-129277159D01*
X109595066Y-129288066D01*
X109584159Y-129297952D01*
X109572336Y-129306720D01*
X109559710Y-129314288D01*
X109546403Y-129320582D01*
X109532543Y-129325541D01*
X109518264Y-129329118D01*
X109503703Y-129331278D01*
X109489000Y-129332000D01*
X107739000Y-129332000D01*
X107724297Y-129331278D01*
X107709736Y-129329118D01*
X107695457Y-129325541D01*
X107681597Y-129320582D01*
X107668290Y-129314288D01*
X107655664Y-129306720D01*
X107643841Y-129297952D01*
X107632934Y-129288066D01*
X107623048Y-129277159D01*
X107614280Y-129265336D01*
X107606712Y-129252710D01*
X107600418Y-129239403D01*
X107595459Y-129225543D01*
X107591882Y-129211264D01*
X107589722Y-129196703D01*
X107589000Y-129182000D01*
X107589000Y-128882000D01*
X107589722Y-128867297D01*
X107591882Y-128852736D01*
X107595459Y-128838457D01*
X107600418Y-128824597D01*
X107606712Y-128811290D01*
X107614280Y-128798664D01*
X107623048Y-128786841D01*
X107632934Y-128775934D01*
X107643841Y-128766048D01*
X107655664Y-128757280D01*
X107668290Y-128749712D01*
X107681597Y-128743418D01*
X107695457Y-128738459D01*
X107709736Y-128734882D01*
X107724297Y-128732722D01*
X107739000Y-128732000D01*
X109489000Y-128732000D01*
X109503703Y-128732722D01*
X109503703Y-128732722D01*
G37*
D14*
X108614000Y-129032000D03*
D10*
G36*
X100203703Y-128732722D02*
G01*
X100218264Y-128734882D01*
X100232543Y-128738459D01*
X100246403Y-128743418D01*
X100259710Y-128749712D01*
X100272336Y-128757280D01*
X100284159Y-128766048D01*
X100295066Y-128775934D01*
X100304952Y-128786841D01*
X100313720Y-128798664D01*
X100321288Y-128811290D01*
X100327582Y-128824597D01*
X100332541Y-128838457D01*
X100336118Y-128852736D01*
X100338278Y-128867297D01*
X100339000Y-128882000D01*
X100339000Y-129182000D01*
X100338278Y-129196703D01*
X100336118Y-129211264D01*
X100332541Y-129225543D01*
X100327582Y-129239403D01*
X100321288Y-129252710D01*
X100313720Y-129265336D01*
X100304952Y-129277159D01*
X100295066Y-129288066D01*
X100284159Y-129297952D01*
X100272336Y-129306720D01*
X100259710Y-129314288D01*
X100246403Y-129320582D01*
X100232543Y-129325541D01*
X100218264Y-129329118D01*
X100203703Y-129331278D01*
X100189000Y-129332000D01*
X98439000Y-129332000D01*
X98424297Y-129331278D01*
X98409736Y-129329118D01*
X98395457Y-129325541D01*
X98381597Y-129320582D01*
X98368290Y-129314288D01*
X98355664Y-129306720D01*
X98343841Y-129297952D01*
X98332934Y-129288066D01*
X98323048Y-129277159D01*
X98314280Y-129265336D01*
X98306712Y-129252710D01*
X98300418Y-129239403D01*
X98295459Y-129225543D01*
X98291882Y-129211264D01*
X98289722Y-129196703D01*
X98289000Y-129182000D01*
X98289000Y-128882000D01*
X98289722Y-128867297D01*
X98291882Y-128852736D01*
X98295459Y-128838457D01*
X98300418Y-128824597D01*
X98306712Y-128811290D01*
X98314280Y-128798664D01*
X98323048Y-128786841D01*
X98332934Y-128775934D01*
X98343841Y-128766048D01*
X98355664Y-128757280D01*
X98368290Y-128749712D01*
X98381597Y-128743418D01*
X98395457Y-128738459D01*
X98409736Y-128734882D01*
X98424297Y-128732722D01*
X98439000Y-128732000D01*
X100189000Y-128732000D01*
X100203703Y-128732722D01*
X100203703Y-128732722D01*
G37*
D14*
X99314000Y-129032000D03*
D10*
G36*
X100203703Y-127462722D02*
G01*
X100218264Y-127464882D01*
X100232543Y-127468459D01*
X100246403Y-127473418D01*
X100259710Y-127479712D01*
X100272336Y-127487280D01*
X100284159Y-127496048D01*
X100295066Y-127505934D01*
X100304952Y-127516841D01*
X100313720Y-127528664D01*
X100321288Y-127541290D01*
X100327582Y-127554597D01*
X100332541Y-127568457D01*
X100336118Y-127582736D01*
X100338278Y-127597297D01*
X100339000Y-127612000D01*
X100339000Y-127912000D01*
X100338278Y-127926703D01*
X100336118Y-127941264D01*
X100332541Y-127955543D01*
X100327582Y-127969403D01*
X100321288Y-127982710D01*
X100313720Y-127995336D01*
X100304952Y-128007159D01*
X100295066Y-128018066D01*
X100284159Y-128027952D01*
X100272336Y-128036720D01*
X100259710Y-128044288D01*
X100246403Y-128050582D01*
X100232543Y-128055541D01*
X100218264Y-128059118D01*
X100203703Y-128061278D01*
X100189000Y-128062000D01*
X98439000Y-128062000D01*
X98424297Y-128061278D01*
X98409736Y-128059118D01*
X98395457Y-128055541D01*
X98381597Y-128050582D01*
X98368290Y-128044288D01*
X98355664Y-128036720D01*
X98343841Y-128027952D01*
X98332934Y-128018066D01*
X98323048Y-128007159D01*
X98314280Y-127995336D01*
X98306712Y-127982710D01*
X98300418Y-127969403D01*
X98295459Y-127955543D01*
X98291882Y-127941264D01*
X98289722Y-127926703D01*
X98289000Y-127912000D01*
X98289000Y-127612000D01*
X98289722Y-127597297D01*
X98291882Y-127582736D01*
X98295459Y-127568457D01*
X98300418Y-127554597D01*
X98306712Y-127541290D01*
X98314280Y-127528664D01*
X98323048Y-127516841D01*
X98332934Y-127505934D01*
X98343841Y-127496048D01*
X98355664Y-127487280D01*
X98368290Y-127479712D01*
X98381597Y-127473418D01*
X98395457Y-127468459D01*
X98409736Y-127464882D01*
X98424297Y-127462722D01*
X98439000Y-127462000D01*
X100189000Y-127462000D01*
X100203703Y-127462722D01*
X100203703Y-127462722D01*
G37*
D14*
X99314000Y-127762000D03*
D10*
G36*
X100203703Y-126192722D02*
G01*
X100218264Y-126194882D01*
X100232543Y-126198459D01*
X100246403Y-126203418D01*
X100259710Y-126209712D01*
X100272336Y-126217280D01*
X100284159Y-126226048D01*
X100295066Y-126235934D01*
X100304952Y-126246841D01*
X100313720Y-126258664D01*
X100321288Y-126271290D01*
X100327582Y-126284597D01*
X100332541Y-126298457D01*
X100336118Y-126312736D01*
X100338278Y-126327297D01*
X100339000Y-126342000D01*
X100339000Y-126642000D01*
X100338278Y-126656703D01*
X100336118Y-126671264D01*
X100332541Y-126685543D01*
X100327582Y-126699403D01*
X100321288Y-126712710D01*
X100313720Y-126725336D01*
X100304952Y-126737159D01*
X100295066Y-126748066D01*
X100284159Y-126757952D01*
X100272336Y-126766720D01*
X100259710Y-126774288D01*
X100246403Y-126780582D01*
X100232543Y-126785541D01*
X100218264Y-126789118D01*
X100203703Y-126791278D01*
X100189000Y-126792000D01*
X98439000Y-126792000D01*
X98424297Y-126791278D01*
X98409736Y-126789118D01*
X98395457Y-126785541D01*
X98381597Y-126780582D01*
X98368290Y-126774288D01*
X98355664Y-126766720D01*
X98343841Y-126757952D01*
X98332934Y-126748066D01*
X98323048Y-126737159D01*
X98314280Y-126725336D01*
X98306712Y-126712710D01*
X98300418Y-126699403D01*
X98295459Y-126685543D01*
X98291882Y-126671264D01*
X98289722Y-126656703D01*
X98289000Y-126642000D01*
X98289000Y-126342000D01*
X98289722Y-126327297D01*
X98291882Y-126312736D01*
X98295459Y-126298457D01*
X98300418Y-126284597D01*
X98306712Y-126271290D01*
X98314280Y-126258664D01*
X98323048Y-126246841D01*
X98332934Y-126235934D01*
X98343841Y-126226048D01*
X98355664Y-126217280D01*
X98368290Y-126209712D01*
X98381597Y-126203418D01*
X98395457Y-126198459D01*
X98409736Y-126194882D01*
X98424297Y-126192722D01*
X98439000Y-126192000D01*
X100189000Y-126192000D01*
X100203703Y-126192722D01*
X100203703Y-126192722D01*
G37*
D14*
X99314000Y-126492000D03*
D10*
G36*
X100203703Y-124922722D02*
G01*
X100218264Y-124924882D01*
X100232543Y-124928459D01*
X100246403Y-124933418D01*
X100259710Y-124939712D01*
X100272336Y-124947280D01*
X100284159Y-124956048D01*
X100295066Y-124965934D01*
X100304952Y-124976841D01*
X100313720Y-124988664D01*
X100321288Y-125001290D01*
X100327582Y-125014597D01*
X100332541Y-125028457D01*
X100336118Y-125042736D01*
X100338278Y-125057297D01*
X100339000Y-125072000D01*
X100339000Y-125372000D01*
X100338278Y-125386703D01*
X100336118Y-125401264D01*
X100332541Y-125415543D01*
X100327582Y-125429403D01*
X100321288Y-125442710D01*
X100313720Y-125455336D01*
X100304952Y-125467159D01*
X100295066Y-125478066D01*
X100284159Y-125487952D01*
X100272336Y-125496720D01*
X100259710Y-125504288D01*
X100246403Y-125510582D01*
X100232543Y-125515541D01*
X100218264Y-125519118D01*
X100203703Y-125521278D01*
X100189000Y-125522000D01*
X98439000Y-125522000D01*
X98424297Y-125521278D01*
X98409736Y-125519118D01*
X98395457Y-125515541D01*
X98381597Y-125510582D01*
X98368290Y-125504288D01*
X98355664Y-125496720D01*
X98343841Y-125487952D01*
X98332934Y-125478066D01*
X98323048Y-125467159D01*
X98314280Y-125455336D01*
X98306712Y-125442710D01*
X98300418Y-125429403D01*
X98295459Y-125415543D01*
X98291882Y-125401264D01*
X98289722Y-125386703D01*
X98289000Y-125372000D01*
X98289000Y-125072000D01*
X98289722Y-125057297D01*
X98291882Y-125042736D01*
X98295459Y-125028457D01*
X98300418Y-125014597D01*
X98306712Y-125001290D01*
X98314280Y-124988664D01*
X98323048Y-124976841D01*
X98332934Y-124965934D01*
X98343841Y-124956048D01*
X98355664Y-124947280D01*
X98368290Y-124939712D01*
X98381597Y-124933418D01*
X98395457Y-124928459D01*
X98409736Y-124924882D01*
X98424297Y-124922722D01*
X98439000Y-124922000D01*
X100189000Y-124922000D01*
X100203703Y-124922722D01*
X100203703Y-124922722D01*
G37*
D14*
X99314000Y-125222000D03*
D10*
G36*
X100203703Y-123652722D02*
G01*
X100218264Y-123654882D01*
X100232543Y-123658459D01*
X100246403Y-123663418D01*
X100259710Y-123669712D01*
X100272336Y-123677280D01*
X100284159Y-123686048D01*
X100295066Y-123695934D01*
X100304952Y-123706841D01*
X100313720Y-123718664D01*
X100321288Y-123731290D01*
X100327582Y-123744597D01*
X100332541Y-123758457D01*
X100336118Y-123772736D01*
X100338278Y-123787297D01*
X100339000Y-123802000D01*
X100339000Y-124102000D01*
X100338278Y-124116703D01*
X100336118Y-124131264D01*
X100332541Y-124145543D01*
X100327582Y-124159403D01*
X100321288Y-124172710D01*
X100313720Y-124185336D01*
X100304952Y-124197159D01*
X100295066Y-124208066D01*
X100284159Y-124217952D01*
X100272336Y-124226720D01*
X100259710Y-124234288D01*
X100246403Y-124240582D01*
X100232543Y-124245541D01*
X100218264Y-124249118D01*
X100203703Y-124251278D01*
X100189000Y-124252000D01*
X98439000Y-124252000D01*
X98424297Y-124251278D01*
X98409736Y-124249118D01*
X98395457Y-124245541D01*
X98381597Y-124240582D01*
X98368290Y-124234288D01*
X98355664Y-124226720D01*
X98343841Y-124217952D01*
X98332934Y-124208066D01*
X98323048Y-124197159D01*
X98314280Y-124185336D01*
X98306712Y-124172710D01*
X98300418Y-124159403D01*
X98295459Y-124145543D01*
X98291882Y-124131264D01*
X98289722Y-124116703D01*
X98289000Y-124102000D01*
X98289000Y-123802000D01*
X98289722Y-123787297D01*
X98291882Y-123772736D01*
X98295459Y-123758457D01*
X98300418Y-123744597D01*
X98306712Y-123731290D01*
X98314280Y-123718664D01*
X98323048Y-123706841D01*
X98332934Y-123695934D01*
X98343841Y-123686048D01*
X98355664Y-123677280D01*
X98368290Y-123669712D01*
X98381597Y-123663418D01*
X98395457Y-123658459D01*
X98409736Y-123654882D01*
X98424297Y-123652722D01*
X98439000Y-123652000D01*
X100189000Y-123652000D01*
X100203703Y-123652722D01*
X100203703Y-123652722D01*
G37*
D14*
X99314000Y-123952000D03*
D10*
G36*
X100203703Y-122382722D02*
G01*
X100218264Y-122384882D01*
X100232543Y-122388459D01*
X100246403Y-122393418D01*
X100259710Y-122399712D01*
X100272336Y-122407280D01*
X100284159Y-122416048D01*
X100295066Y-122425934D01*
X100304952Y-122436841D01*
X100313720Y-122448664D01*
X100321288Y-122461290D01*
X100327582Y-122474597D01*
X100332541Y-122488457D01*
X100336118Y-122502736D01*
X100338278Y-122517297D01*
X100339000Y-122532000D01*
X100339000Y-122832000D01*
X100338278Y-122846703D01*
X100336118Y-122861264D01*
X100332541Y-122875543D01*
X100327582Y-122889403D01*
X100321288Y-122902710D01*
X100313720Y-122915336D01*
X100304952Y-122927159D01*
X100295066Y-122938066D01*
X100284159Y-122947952D01*
X100272336Y-122956720D01*
X100259710Y-122964288D01*
X100246403Y-122970582D01*
X100232543Y-122975541D01*
X100218264Y-122979118D01*
X100203703Y-122981278D01*
X100189000Y-122982000D01*
X98439000Y-122982000D01*
X98424297Y-122981278D01*
X98409736Y-122979118D01*
X98395457Y-122975541D01*
X98381597Y-122970582D01*
X98368290Y-122964288D01*
X98355664Y-122956720D01*
X98343841Y-122947952D01*
X98332934Y-122938066D01*
X98323048Y-122927159D01*
X98314280Y-122915336D01*
X98306712Y-122902710D01*
X98300418Y-122889403D01*
X98295459Y-122875543D01*
X98291882Y-122861264D01*
X98289722Y-122846703D01*
X98289000Y-122832000D01*
X98289000Y-122532000D01*
X98289722Y-122517297D01*
X98291882Y-122502736D01*
X98295459Y-122488457D01*
X98300418Y-122474597D01*
X98306712Y-122461290D01*
X98314280Y-122448664D01*
X98323048Y-122436841D01*
X98332934Y-122425934D01*
X98343841Y-122416048D01*
X98355664Y-122407280D01*
X98368290Y-122399712D01*
X98381597Y-122393418D01*
X98395457Y-122388459D01*
X98409736Y-122384882D01*
X98424297Y-122382722D01*
X98439000Y-122382000D01*
X100189000Y-122382000D01*
X100203703Y-122382722D01*
X100203703Y-122382722D01*
G37*
D14*
X99314000Y-122682000D03*
D10*
G36*
X100203703Y-121112722D02*
G01*
X100218264Y-121114882D01*
X100232543Y-121118459D01*
X100246403Y-121123418D01*
X100259710Y-121129712D01*
X100272336Y-121137280D01*
X100284159Y-121146048D01*
X100295066Y-121155934D01*
X100304952Y-121166841D01*
X100313720Y-121178664D01*
X100321288Y-121191290D01*
X100327582Y-121204597D01*
X100332541Y-121218457D01*
X100336118Y-121232736D01*
X100338278Y-121247297D01*
X100339000Y-121262000D01*
X100339000Y-121562000D01*
X100338278Y-121576703D01*
X100336118Y-121591264D01*
X100332541Y-121605543D01*
X100327582Y-121619403D01*
X100321288Y-121632710D01*
X100313720Y-121645336D01*
X100304952Y-121657159D01*
X100295066Y-121668066D01*
X100284159Y-121677952D01*
X100272336Y-121686720D01*
X100259710Y-121694288D01*
X100246403Y-121700582D01*
X100232543Y-121705541D01*
X100218264Y-121709118D01*
X100203703Y-121711278D01*
X100189000Y-121712000D01*
X98439000Y-121712000D01*
X98424297Y-121711278D01*
X98409736Y-121709118D01*
X98395457Y-121705541D01*
X98381597Y-121700582D01*
X98368290Y-121694288D01*
X98355664Y-121686720D01*
X98343841Y-121677952D01*
X98332934Y-121668066D01*
X98323048Y-121657159D01*
X98314280Y-121645336D01*
X98306712Y-121632710D01*
X98300418Y-121619403D01*
X98295459Y-121605543D01*
X98291882Y-121591264D01*
X98289722Y-121576703D01*
X98289000Y-121562000D01*
X98289000Y-121262000D01*
X98289722Y-121247297D01*
X98291882Y-121232736D01*
X98295459Y-121218457D01*
X98300418Y-121204597D01*
X98306712Y-121191290D01*
X98314280Y-121178664D01*
X98323048Y-121166841D01*
X98332934Y-121155934D01*
X98343841Y-121146048D01*
X98355664Y-121137280D01*
X98368290Y-121129712D01*
X98381597Y-121123418D01*
X98395457Y-121118459D01*
X98409736Y-121114882D01*
X98424297Y-121112722D01*
X98439000Y-121112000D01*
X100189000Y-121112000D01*
X100203703Y-121112722D01*
X100203703Y-121112722D01*
G37*
D14*
X99314000Y-121412000D03*
D10*
G36*
X100203703Y-119842722D02*
G01*
X100218264Y-119844882D01*
X100232543Y-119848459D01*
X100246403Y-119853418D01*
X100259710Y-119859712D01*
X100272336Y-119867280D01*
X100284159Y-119876048D01*
X100295066Y-119885934D01*
X100304952Y-119896841D01*
X100313720Y-119908664D01*
X100321288Y-119921290D01*
X100327582Y-119934597D01*
X100332541Y-119948457D01*
X100336118Y-119962736D01*
X100338278Y-119977297D01*
X100339000Y-119992000D01*
X100339000Y-120292000D01*
X100338278Y-120306703D01*
X100336118Y-120321264D01*
X100332541Y-120335543D01*
X100327582Y-120349403D01*
X100321288Y-120362710D01*
X100313720Y-120375336D01*
X100304952Y-120387159D01*
X100295066Y-120398066D01*
X100284159Y-120407952D01*
X100272336Y-120416720D01*
X100259710Y-120424288D01*
X100246403Y-120430582D01*
X100232543Y-120435541D01*
X100218264Y-120439118D01*
X100203703Y-120441278D01*
X100189000Y-120442000D01*
X98439000Y-120442000D01*
X98424297Y-120441278D01*
X98409736Y-120439118D01*
X98395457Y-120435541D01*
X98381597Y-120430582D01*
X98368290Y-120424288D01*
X98355664Y-120416720D01*
X98343841Y-120407952D01*
X98332934Y-120398066D01*
X98323048Y-120387159D01*
X98314280Y-120375336D01*
X98306712Y-120362710D01*
X98300418Y-120349403D01*
X98295459Y-120335543D01*
X98291882Y-120321264D01*
X98289722Y-120306703D01*
X98289000Y-120292000D01*
X98289000Y-119992000D01*
X98289722Y-119977297D01*
X98291882Y-119962736D01*
X98295459Y-119948457D01*
X98300418Y-119934597D01*
X98306712Y-119921290D01*
X98314280Y-119908664D01*
X98323048Y-119896841D01*
X98332934Y-119885934D01*
X98343841Y-119876048D01*
X98355664Y-119867280D01*
X98368290Y-119859712D01*
X98381597Y-119853418D01*
X98395457Y-119848459D01*
X98409736Y-119844882D01*
X98424297Y-119842722D01*
X98439000Y-119842000D01*
X100189000Y-119842000D01*
X100203703Y-119842722D01*
X100203703Y-119842722D01*
G37*
D14*
X99314000Y-120142000D03*
D10*
G36*
X100203703Y-118572722D02*
G01*
X100218264Y-118574882D01*
X100232543Y-118578459D01*
X100246403Y-118583418D01*
X100259710Y-118589712D01*
X100272336Y-118597280D01*
X100284159Y-118606048D01*
X100295066Y-118615934D01*
X100304952Y-118626841D01*
X100313720Y-118638664D01*
X100321288Y-118651290D01*
X100327582Y-118664597D01*
X100332541Y-118678457D01*
X100336118Y-118692736D01*
X100338278Y-118707297D01*
X100339000Y-118722000D01*
X100339000Y-119022000D01*
X100338278Y-119036703D01*
X100336118Y-119051264D01*
X100332541Y-119065543D01*
X100327582Y-119079403D01*
X100321288Y-119092710D01*
X100313720Y-119105336D01*
X100304952Y-119117159D01*
X100295066Y-119128066D01*
X100284159Y-119137952D01*
X100272336Y-119146720D01*
X100259710Y-119154288D01*
X100246403Y-119160582D01*
X100232543Y-119165541D01*
X100218264Y-119169118D01*
X100203703Y-119171278D01*
X100189000Y-119172000D01*
X98439000Y-119172000D01*
X98424297Y-119171278D01*
X98409736Y-119169118D01*
X98395457Y-119165541D01*
X98381597Y-119160582D01*
X98368290Y-119154288D01*
X98355664Y-119146720D01*
X98343841Y-119137952D01*
X98332934Y-119128066D01*
X98323048Y-119117159D01*
X98314280Y-119105336D01*
X98306712Y-119092710D01*
X98300418Y-119079403D01*
X98295459Y-119065543D01*
X98291882Y-119051264D01*
X98289722Y-119036703D01*
X98289000Y-119022000D01*
X98289000Y-118722000D01*
X98289722Y-118707297D01*
X98291882Y-118692736D01*
X98295459Y-118678457D01*
X98300418Y-118664597D01*
X98306712Y-118651290D01*
X98314280Y-118638664D01*
X98323048Y-118626841D01*
X98332934Y-118615934D01*
X98343841Y-118606048D01*
X98355664Y-118597280D01*
X98368290Y-118589712D01*
X98381597Y-118583418D01*
X98395457Y-118578459D01*
X98409736Y-118574882D01*
X98424297Y-118572722D01*
X98439000Y-118572000D01*
X100189000Y-118572000D01*
X100203703Y-118572722D01*
X100203703Y-118572722D01*
G37*
D14*
X99314000Y-118872000D03*
D10*
G36*
X100203703Y-117302722D02*
G01*
X100218264Y-117304882D01*
X100232543Y-117308459D01*
X100246403Y-117313418D01*
X100259710Y-117319712D01*
X100272336Y-117327280D01*
X100284159Y-117336048D01*
X100295066Y-117345934D01*
X100304952Y-117356841D01*
X100313720Y-117368664D01*
X100321288Y-117381290D01*
X100327582Y-117394597D01*
X100332541Y-117408457D01*
X100336118Y-117422736D01*
X100338278Y-117437297D01*
X100339000Y-117452000D01*
X100339000Y-117752000D01*
X100338278Y-117766703D01*
X100336118Y-117781264D01*
X100332541Y-117795543D01*
X100327582Y-117809403D01*
X100321288Y-117822710D01*
X100313720Y-117835336D01*
X100304952Y-117847159D01*
X100295066Y-117858066D01*
X100284159Y-117867952D01*
X100272336Y-117876720D01*
X100259710Y-117884288D01*
X100246403Y-117890582D01*
X100232543Y-117895541D01*
X100218264Y-117899118D01*
X100203703Y-117901278D01*
X100189000Y-117902000D01*
X98439000Y-117902000D01*
X98424297Y-117901278D01*
X98409736Y-117899118D01*
X98395457Y-117895541D01*
X98381597Y-117890582D01*
X98368290Y-117884288D01*
X98355664Y-117876720D01*
X98343841Y-117867952D01*
X98332934Y-117858066D01*
X98323048Y-117847159D01*
X98314280Y-117835336D01*
X98306712Y-117822710D01*
X98300418Y-117809403D01*
X98295459Y-117795543D01*
X98291882Y-117781264D01*
X98289722Y-117766703D01*
X98289000Y-117752000D01*
X98289000Y-117452000D01*
X98289722Y-117437297D01*
X98291882Y-117422736D01*
X98295459Y-117408457D01*
X98300418Y-117394597D01*
X98306712Y-117381290D01*
X98314280Y-117368664D01*
X98323048Y-117356841D01*
X98332934Y-117345934D01*
X98343841Y-117336048D01*
X98355664Y-117327280D01*
X98368290Y-117319712D01*
X98381597Y-117313418D01*
X98395457Y-117308459D01*
X98409736Y-117304882D01*
X98424297Y-117302722D01*
X98439000Y-117302000D01*
X100189000Y-117302000D01*
X100203703Y-117302722D01*
X100203703Y-117302722D01*
G37*
D14*
X99314000Y-117602000D03*
M02*
